nimbus-sans-l_bold-condensed-italic.sfdir

StartChar: exclam
Encoding: 33 33 1
Width: 273
Flags: MW
HStem: 0 141<102 197 77 221> 698 20<199 325 325 325>
LayerCount: 2
Fore
SplineSet
221 141 m 1
 197 0 l 1
 77 0 l 1
 102 141 l 1
 221 141 l 1
293 535 m 1
 202 199 l 1
 141 199 l 1
 167 535 l 1
 199 718 l 1
 325 718 l 1
 293 535 l 1
EndSplineSet
EndChar

StartChar: quotedbl
Encoding: 34 34 2
Width: 389
Flags: MW
HStem: 698 20<205 286 286 286 353 433 433 433>
LayerCount: 2
Fore
SplineSet
305 447 m 1
 353 718 l 1
 433 718 l 1
 386 447 l 1
 305 447 l 1
158 447 m 1
 205 718 l 1
 286 718 l 1
 238 447 l 1
 158 447 l 1
EndSplineSet
EndChar

StartChar: numbersign
Encoding: 35 35 3
Width: 456
Flags: MW
HStem: 0 20 199 90<75 129 49 154 231 285 75 206 388 442> 409 90<135 189 109 215 135 266 292 346 448 502>
LayerCount: 2
Fore
SplineSet
468 289 m 1
 442 199 l 1
 362 199 l 1
 305 0 l 1
 228 0 l 1
 285 199 l 1
 206 199 l 1
 148 0 l 1
 71 0 l 1
 129 199 l 1
 49 199 l 1
 75 289 l 1
 154 289 l 1
 189 409 l 1
 109 409 l 1
 135 499 l 1
 215 499 l 1
 272 698 l 1
 349 698 l 1
 292 499 l 1
 371 499 l 1
 429 698 l 1
 506 698 l 1
 448 499 l 1
 528 499 l 1
 502 409 l 1
 423 409 l 1
 388 289 l 1
 468 289 l 1
346 409 m 1
 266 409 l 1
 231 289 l 1
 311 289 l 1
 346 409 l 1
EndSplineSet
EndChar

StartChar: dollar
Encoding: 36 36 4
Width: 456
Flags: W
VStem: 55 112<142.5 143> 121 109<483.5 492.5> 354 115<212.5 224.5> 404 106<547 563>
LayerCount: 2
Fore
SplineSet
507 501 m 1x50
 402 501 l 1
 403 517 404 530 404 541 c 0x50
 404 585 389 603 353 604 c 1
 320 417 l 1
 375 393 401 379 422 361 c 0
 453 334 469 296 469 247 c 0
 469 178 439 100 393 52 c 0
 352 9 314 -9 244 -17 c 1
 227 -115 l 1
 190 -115 l 1
 207 -17 l 1
 142 -8 112 4 87 33 c 0
 68 55 55 95 55 132 c 0
 55 154 58 182 63 215 c 1
 170 215 l 1
 168 196 167 178 167 164 c 0xa0
 167 121 183 101 225 89 c 1
 262 299 l 1
 216 315 194 326 174 341 c 0
 139 368 121 409 121 458 c 0
 121 527 152 605 198 651 c 0
 236 690 271 705 333 710 c 1
 345 775 l 1
 382 775 l 1
 371 710 l 1
 425 701 451 690 474 664 c 0
 496 639 510 597 510 554 c 0
 510 540 509 522 507 501 c 1x50
285 431 m 1
 315 604 l 1
 263 598 230 558 230 503 c 0
 230 464 245 445 285 431 c 1
296 282 m 1x20
 263 89 l 1
 317 96 354 144 354 206 c 0
 354 243 337 265 296 282 c 1x20
EndSplineSet
EndChar

StartChar: percent
Encoding: 37 37 5
Width: 729
Flags: W
HStem: -19 20 -12 69<573.5 593 573.5 594.5> 297 69<617.5 637> 332 69<213.5 233 213.5 234.5> 641 69<258.5 277.5>
VStem: 112 80<428.5 469 428.5 485.5> 299 80<574 614> 472 80<84.5 125 84.5 141.5> 659 80<229.5 270.5>
LayerCount: 2
Fore
SplineSet
278 710 m 0x9f80
 346 710 379 672 379 595 c 0
 379 512 352 419 316 378 c 0
 289 347 255 332 214 332 c 0
 147 332 112 371 112 445 c 0
 112 526 140 624 176 664 c 1
 202 695 237 710 278 710 c 0x9f80
267 641 m 0
 250 641 236 633 228 618 c 0
 210 584 192 496 192 442 c 0
 192 415 203 401 224 401 c 0
 242 401 254 408 263 425 c 0
 280 455 299 547 299 601 c 0
 299 627 288 641 267 641 c 0
680 710 m 1
 227 -19 l 1
 166 -19 l 1
 620 710 l 1
 680 710 l 1
638 366 m 0x6780
 706 366 739 328 739 251 c 0
 739 168 712 75 676 34 c 0
 649 3 615 -12 574 -12 c 0
 507 -12 472 27 472 101 c 0
 472 182 500 281 536 320 c 1
 563 351 597 366 638 366 c 0x6780
626 297 m 0
 609 297 596 289 588 274 c 0
 570 240 552 152 552 98 c 0
 552 71 563 57 584 57 c 0
 602 57 614 64 623 81 c 0
 640 111 659 202 659 257 c 0
 659 284 648 297 626 297 c 0
EndSplineSet
EndChar

StartChar: ampersand
Encoding: 38 38 6
Width: 592
Flags: MW
HStem: -19 118<239.5 263> 612 106<359.5 388.5>
VStem: 73 119<153.5 190 153.5 194.5> 209 107<531.5 561 531.5 572> 416 101<549.5 582.5>
LayerCount: 2
Fore
SplineSet
495 157 m 1
 574 0 l 1
 436 0 l 1
 406 61 l 1
 346 3 297 -19 229 -19 c 0
 134 -19 73 45 73 144 c 0
 73 245 124 328 226 394 c 2
 240 403 l 1
 218 445 209 477 209 517 c 0
 209 627 293 718 395 718 c 0
 468 718 517 666 517 589 c 0
 517 506 474 438 386 381 c 1
 448 255 l 1
 471 290 485 321 498 373 c 1
 600 373 l 1
 576 278 551 228 495 157 c 1
345 464 m 1
 397 501 416 530 416 569 c 0
 416 596 401 612 376 612 c 0
 343 612 316 580 316 542 c 0
 316 521 324 501 345 464 c 1
363 149 m 1
 283 314 l 1
 241 281 226 268 215 251 c 0
 200 230 192 203 192 177 c 0
 192 130 219 99 260 99 c 0
 293 99 323 114 363 149 c 1
EndSplineSet
EndChar

StartChar: quotesingle
Encoding: 169 39 103
Width: 195
Flags: MW
HStem: 698 20<182 263 263 263>
LayerCount: 2
Fore
SplineSet
135 447 m 1
 182 718 l 1
 263 718 l 1
 216 447 l 1
 135 447 l 1
EndSplineSet
EndChar

StartChar: parenleft
Encoding: 40 40 8
Width: 273
Flags: MW
HStem: -207 20 714 20<301 385 385 385>
VStem: 62 113<69 124.5 30 177>
LayerCount: 2
Fore
SplineSet
221 -207 m 1
 136 -207 l 1
 82 -76 62 12 62 126 c 0
 62 228 83 334 123 435 c 0
 164 539 207 611 301 734 c 1
 385 734 l 1
 295 594 255 508 220 387 c 1
 192 286 175 171 175 78 c 0
 175 -18 186 -85 221 -207 c 1
EndSplineSet
EndChar

StartChar: parenright
Encoding: 41 41 9
Width: 273
Flags: MW
HStem: -207 20 714 20<143 228 228 228>
VStem: 189 113<401 456 348.5 495.5>
LayerCount: 2
Fore
SplineSet
143 734 m 1
 228 734 l 1
 283 599 302 513 302 399 c 0
 302 298 281 193 241 91 c 0
 199 -15 156 -87 63 -207 c 1
 -21 -207 l 1
 68 -70 109 16 144 139 c 0
 172 240 189 354 189 448 c 0
 189 543 178 611 143 734 c 1
EndSplineSet
EndChar

StartChar: asterisk
Encoding: 42 42 10
Width: 319
Flags: MW
HStem: 698 20<250 319 319 319>
LayerCount: 2
Fore
SplineSet
387 633 m 1
 394 560 l 1
 303 528 l 1
 342 431 l 1
 283 387 l 1
 243 478 l 1
 171 387 l 1
 127 431 l 1
 200 528 l 1
 120 560 l 1
 152 633 l 1
 229 599 l 1
 250 718 l 1
 319 718 l 1
 299 599 l 1
 387 633 l 1
EndSplineSet
EndChar

StartChar: plus
Encoding: 43 43 11
Width: 479
Flags: MW
HStem: 0 20 197 112<87 228 67 247 339 480 87 320>
LayerCount: 2
Fore
SplineSet
247 309 m 1
 282 506 l 1
 374 506 l 1
 339 309 l 1
 500 309 l 1
 480 197 l 1
 320 197 l 1
 285 0 l 1
 193 0 l 1
 228 197 l 1
 67 197 l 1
 87 309 l 1
 247 309 l 1
EndSplineSet
EndChar

StartChar: comma
Encoding: 44 44 12
Width: 228
Flags: MW
HStem: 0 146<78 121 52 201>
LayerCount: 2
Fore
SplineSet
201 146 m 1
 179 20 l 2
 160 -86 109 -148 23 -168 c 1
 32 -115 l 1
 83 -96 105 -67 121 0 c 1
 52 0 l 1
 78 146 l 1
 201 146 l 1
EndSplineSet
EndChar

StartChar: hyphen
Encoding: 45 45 13
Width: 273
Flags: MW
HStem: 215 130<83 288 60 311>
LayerCount: 2
Fore
SplineSet
311 345 m 1
 288 215 l 1
 60 215 l 1
 83 345 l 1
 311 345 l 1
EndSplineSet
EndChar

StartChar: period
Encoding: 46 46 14
Width: 228
Flags: MW
HStem: 0 146<78 175 52 201>
LayerCount: 2
Fore
SplineSet
201 146 m 1
 175 0 l 1
 52 0 l 1
 78 146 l 1
 201 146 l 1
EndSplineSet
EndChar

StartChar: slash
Encoding: 47 47 15
Width: 228
Flags: MW
HStem: -19 20 717 20<287 383 383 383>
LayerCount: 2
Fore
SplineSet
383 737 m 1
 66 -19 l 1
 -30 -19 l 1
 287 737 l 1
 383 737 l 1
EndSplineSet
EndChar

StartChar: zero
Encoding: 48 48 16
Width: 456
Flags: MW
HStem: -19 112<225.5 260> 598 112<318.5 352.5>
VStem: 71 115<151.5 201.5 149.5 256.5> 392 114<464 542.5>
LayerCount: 2
Fore
SplineSet
352 710 m 0
 454 710 506 644 506 515 c 0
 506 350 455 152 392 69 c 0
 347 9 294 -19 226 -19 c 0
 170 -19 127 2 104 40 c 0
 83 75 71 125 71 178 c 0
 71 335 125 543 186 623 c 0
 230 681 285 710 352 710 c 0
333 598 m 0
 301 598 275 579 259 544 c 0
 238 501 230 471 212 379 c 0
 194 284 186 225 186 178 c 0
 186 121 206 93 245 93 c 0
 277 93 301 110 320 147 c 0
 352 212 392 413 392 515 c 0
 392 570 372 598 333 598 c 0
EndSplineSet
EndChar

StartChar: one
Encoding: 49 49 17
Width: 456
Flags: MW
HStem: 0 20
LayerCount: 2
Fore
SplineSet
142 489 m 1
 159 587 l 1
 175 587 l 2
 263 587 318 628 340 710 c 1
 434 710 l 1
 310 0 l 1
 195 0 l 1
 281 489 l 1
 142 489 l 1
EndSplineSet
EndChar

StartChar: two
Encoding: 50 50 18
Width: 456
Flags: MW
HStem: 0 124<188 419> 592 118<309 345>
VStem: 391 117<501.5 539>
LayerCount: 2
Fore
SplineSet
219 459 m 1
 108 459 l 1
 125 542 141 581 173 624 c 0
 214 679 275 710 343 710 c 0
 444 710 508 644 508 539 c 0
 508 464 480 390 432 334 c 0
 403 301 400 299 293 219 c 0
 219 163 205 150 188 124 c 1
 441 124 l 1
 419 0 l 1
 21 0 l 1
 52 144 95 201 270 332 c 1
 358 400 391 450 391 515 c 0
 391 563 366 592 324 592 c 0
 267 592 238 555 219 459 c 1
EndSplineSet
EndChar

StartChar: three
Encoding: 51 51 19
Width: 456
Flags: W
HStem: -19 112<213.5 255> 598 112<311 340.5>
VStem: 54 114<148.5 152> 344 120<225.5 263> 381 118<517.5 552>
LayerCount: 2
Fore
SplineSet
229 311 m 1xf0
 247 411 l 1
 265 411 l 2
 303 411 328 419 348 439 c 0
 368 459 381 495 381 530 c 0
 381 574 360 598 321 598 c 0
 269 598 237 560 223 482 c 1
 117 482 l 1
 131 551 145 586 175 625 c 0
 215 679 277 710 345 710 c 0
 440 710 499 653 499 559 c 0xc8
 499 476 465 413 399 376 c 1
 415 368 423 363 430 356 c 0
 450 335 464 295 464 257 c 0
 464 194 440 125 402 75 c 0
 356 14 291 -19 219 -19 c 0
 117 -19 54 43 54 143 c 0
 54 161 56 188 61 218 c 1
 173 218 l 1
 169 197 168 186 168 174 c 0
 168 123 192 93 235 93 c 0
 294 93 344 158 344 236 c 0
 344 290 313 310 229 311 c 1xf0
EndSplineSet
EndChar

StartChar: four
Encoding: 52 52 20
Width: 456
Flags: MW
HStem: 0 20 157 109<153 279 50 298 413 458 153 394>
LayerCount: 2
Fore
SplineSet
477 266 m 1
 458 157 l 1
 394 157 l 1
 366 0 l 1
 252 0 l 1
 279 157 l 1
 50 157 l 1
 71 278 l 1
 360 710 l 1
 490 710 l 1
 413 266 l 1
 477 266 l 1
153 266 m 1
 298 266 l 1
 354 575 l 1
 153 266 l 1
EndSplineSet
EndChar

StartChar: five
Encoding: 53 53 21
Width: 456
Flags: MW
HStem: -19 112<214 249.5> 353 112<262 369> 580 118<265 265 265 501>
VStem: 53 117<145 149> 348 122<257.5 293.5>
LayerCount: 2
Fore
SplineSet
265 580 m 1
 217 426 l 1
 256 454 286 465 325 465 c 0
 413 465 470 398 470 295 c 0
 470 220 443 136 398 77 c 1
 353 16 286 -19 213 -19 c 0
 118 -19 53 46 53 143 c 0
 53 155 54 171 56 190 c 1
 171 190 l 1
 170 181 170 176 170 169 c 0
 170 121 194 93 234 93 c 0
 297 93 348 171 348 265 c 0
 348 322 324 353 279 353 c 0
 245 353 219 337 196 302 c 1
 94 308 l 1
 202 698 l 1
 522 698 l 1
 501 580 l 1
 265 580 l 1
EndSplineSet
EndChar

StartChar: six
Encoding: 54 54 22
Width: 456
Flags: W
HStem: -19 112<226 262> 347 112<302.5 308.5> 598 112<317 356>
VStem: 70 107<158.5 232 158.5 244> 355 117<253 290> 394 113<541 555 530 559.5>
LayerCount: 2
Fore
SplineSet
507 530 m 1xf4
 393 530 l 1
 394 535 394 540 394 542 c 0xe4
 394 577 373 598 339 598 c 0
 278 598 241 541 207 397 c 1
 243 442 277 459 328 459 c 0
 417 459 472 395 472 291 c 0xf8
 472 215 444 133 399 72 c 1
 353 12 295 -19 229 -19 c 0
 127 -19 70 53 70 182 c 0
 70 306 106 473 153 564 c 0
 201 658 275 710 359 710 c 0
 457 710 507 657 507 555 c 2
 507 530 l 1xf4
288 347 m 0xf8
 225 347 177 277 177 187 c 0
 177 130 205 93 247 93 c 0
 306 93 355 172 355 265 c 0
 355 315 329 347 288 347 c 0xf8
EndSplineSet
EndChar

StartChar: seven
Encoding: 55 55 23
Width: 456
Flags: MW
HStem: 0 20 574 124<144 410 120 555>
LayerCount: 2
Fore
SplineSet
555 698 m 1
 536 590 l 1
 374 412 273 223 220 0 c 1
 102 0 l 1
 150 207 255 402 410 574 c 1
 120 574 l 1
 144 698 l 1
 555 698 l 1
EndSplineSet
EndChar

StartChar: eight
Encoding: 56 56 24
Width: 456
Flags: W
HStem: -19 112<224 261.5> 316 106<284 304> 598 112<308.5 352>
VStem: 57 121<148 172> 131 111<470.5 521 470.5 541.5> 350 122<231 260.5> 391 114<523 552.5>
LayerCount: 2
Fore
SplineSet
410 382 m 1xea
 456 347 472 317 472 263 c 0
 472 199 447 127 408 75 c 0
 362 13 298 -19 225 -19 c 0
 119 -19 57 43 57 149 c 0xf4
 57 195 68 244 87 282 c 0
 108 325 132 349 181 377 c 1
 144 405 131 432 131 477 c 0
 131 606 229 710 351 710 c 0
 445 710 505 652 505 562 c 0
 505 484 472 421 410 382 c 1xea
334 598 m 0
 283 598 242 551 242 491 c 0
 242 450 266 422 302 422 c 0
 352 422 391 471 391 532 c 0
 391 573 370 598 334 598 c 0
283 316 m 0xf4
 224 316 178 254 178 173 c 0
 178 123 203 93 245 93 c 0
 302 93 350 158 350 235 c 0
 350 286 325 316 283 316 c 0xf4
EndSplineSet
EndChar

StartChar: nine
Encoding: 57 57 25
Width: 456
Flags: MW
HStem: -19 112<213.5 245> 233 112<262 268.5> 595 115<311 349>
VStem: 100 118<398.5 438.5> 395 109<462 536.5>
LayerCount: 2
Fore
SplineSet
65 164 m 1
 179 164 l 1
 178 115 195 93 232 93 c 0
 263 93 290 110 314 147 c 0
 336 181 349 218 365 296 c 1
 330 251 295 233 242 233 c 0
 155 233 100 297 100 400 c 0
 100 477 128 564 170 620 c 0
 214 678 276 710 346 710 c 0
 448 710 504 638 504 506 c 0
 504 355 452 164 389 81 c 0
 338 14 279 -19 211 -19 c 0
 123 -19 64 43 64 135 c 0
 64 143 64 153 65 164 c 1
327 595 m 0
 263 595 218 525 218 424 c 0
 218 373 241 345 283 345 c 0
 347 345 395 415 395 509 c 0
 395 564 371 595 327 595 c 0
EndSplineSet
EndChar

StartChar: colon
Encoding: 58 58 26
Width: 273
Flags: MW
HStem: 0 146<100 198 75 224> 366 146<165 263 139 288>
LayerCount: 2
Fore
SplineSet
224 146 m 1
 198 0 l 1
 75 0 l 1
 100 146 l 1
 224 146 l 1
288 512 m 1
 263 366 l 1
 139 366 l 1
 165 512 l 1
 288 512 l 1
EndSplineSet
EndChar

StartChar: semicolon
Encoding: 59 59 27
Width: 273
Flags: MW
HStem: 0 146<101 144 75 224> 366 146<165 263 139 288>
LayerCount: 2
Fore
SplineSet
224 146 m 1
 202 20 l 1
 186 -62 158 -111 110 -141 c 0
 81 -159 64 -166 46 -168 c 1
 55 -115 l 1
 106 -96 128 -67 144 0 c 1
 75 0 l 1
 101 146 l 1
 224 146 l 1
288 512 m 1
 263 366 l 1
 139 366 l 1
 165 512 l 1
 288 512 l 1
EndSplineSet
EndChar

StartChar: less
Encoding: 60 60 28
Width: 479
Flags: MW
HStem: -15 20
LayerCount: 2
Fore
SplineSet
443 -15 m 1
 67 199 l 1
 86 307 l 1
 537 521 l 1
 516 399 l 1
 207 253 l 1
 465 107 l 1
 443 -15 l 1
EndSplineSet
EndChar

StartChar: equal
Encoding: 61 61 29
Width: 479
Flags: MW
HStem: 87 112<67 461 48 481> 307 112<106 499 86 519>
LayerCount: 2
Fore
SplineSet
519 419 m 1
 499 307 l 1
 86 307 l 1
 106 419 l 1
 519 419 l 1
481 199 m 1
 461 87 l 1
 48 87 l 1
 67 199 l 1
 481 199 l 1
EndSplineSet
EndChar

StartChar: greater
Encoding: 62 62 30
Width: 479
Flags: MW
HStem: -15 20
LayerCount: 2
Fore
SplineSet
30 -15 m 1
 51 107 l 1
 360 253 l 1
 102 399 l 1
 124 521 l 1
 500 307 l 1
 481 199 l 1
 30 -15 l 1
EndSplineSet
EndChar

StartChar: question
Encoding: 63 63 31
Width: 501
Flags: MW
HStem: 0 141<220 315 195 339> 609 118<342.5 378.5>
VStem: 424 126<537.5 560.5>
LayerCount: 2
Fore
SplineSet
343 208 m 1
 235 208 l 1
 253 315 273 349 353 411 c 0
 404 450 424 487 424 538 c 0
 424 583 400 609 357 609 c 0
 328 609 301 595 283 570 c 0
 273 557 258 525 254 509 c 2
 251 493 l 1
 135 493 l 1
 150 563 164 597 194 636 c 0
 238 694 304 727 374 727 c 0
 410 727 447 718 476 702 c 0
 524 677 550 629 550 565 c 0
 550 510 533 456 504 416 c 0
 484 388 462 367 414 330 c 0
 367 294 355 274 343 208 c 1
339 141 m 1
 315 0 l 1
 195 0 l 1
 220 141 l 1
 339 141 l 1
EndSplineSet
EndChar

StartChar: at
Encoding: 64 64 32
Width: 800
Flags: W
HStem: -19 80<372.5 439.5> 137 91<504 614.5> 137 100<351.5 449.5 404 542> 461 97<472.5 507.5> 657 80<485 585>
VStem: 152 82<217 327 217 399> 277 92<280.5 304> 712 70<447.5 524>
LayerCount: 2
Fore
SplineSet
587 493 m 1x37
 607 546 l 1
 679 546 l 1
 587 291 l 2
 577 263 573 249 573 240 c 0
 573 232 576 228 583 228 c 0
 646 228 712 348 712 465 c 0
 712 583 641 657 529 657 c 0
 441 657 363 611 306 525 c 1
 260 458 234 369 234 285 c 0
 234 149 312 61 433 61 c 0
 499 61 556 85 620 142 c 1
 693 142 l 1
 641 77 613 51 564 23 c 0
 516 -5 465 -19 414 -19 c 0
 260 -19 152 104 152 280 c 0
 152 518 339 737 543 737 c 0
 681 737 782 632 782 489 c 0
 782 406 752 318 702 253 c 0
 652 188 570 137 514 137 c 0xdf
 494 137 478 154 478 177 c 0
 478 181 479 187 480 193 c 1
 442 154 412 137 381 137 c 0
 322 137 277 196 277 272 c 0
 277 336 305 411 349 469 c 0
 393 527 445 558 500 558 c 0
 544 558 570 539 587 493 c 1x37
492 461 m 0
 433 461 369 377 369 300 c 0
 369 261 388 237 420 237 c 0x37
 479 237 544 321 544 398 c 0
 544 435 523 461 492 461 c 0
EndSplineSet
EndChar

StartChar: A
Encoding: 65 65 33
Width: 592
Flags: MW
HStem: 0 20 148 124<213 417 267 417 267 430> 698 20<352 494 494 494>
LayerCount: 2
Fore
SplineSet
213 148 m 1
 146 0 l 1
 16 0 l 1
 352 718 l 1
 494 718 l 1
 576 0 l 1
 442 0 l 1
 430 148 l 1
 213 148 l 1
394 559 m 1
 267 272 l 1
 417 272 l 1
 394 559 l 1
EndSplineSet
EndChar

StartChar: B
Encoding: 66 66 34
Width: 592
Flags: W
HStem: 0 124<202 311> 316 121<235 401 256 392> 594 124<284 284 284 425>
VStem: 467 124<235.5 270> 504 122<549.5 557>
LayerCount: 2
Fore
SplineSet
62 0 m 1xf0
 187 718 l 1
 474 718 l 2
 571 718 626 666 626 574 c 0xe8
 626 525 610 473 586 438 c 0
 570 416 555 404 525 387 c 1
 573 359 591 326 591 266 c 0
 591 197 565 127 520 77 c 0
 468 18 419 0 311 0 c 2
 62 0 l 1xf0
235 316 m 1xf0
 202 124 l 1
 353 124 l 2
 393 124 423 139 443 168 c 0
 457 190 467 222 467 249 c 0
 467 291 439 316 392 316 c 2
 235 316 l 1xf0
284 594 m 1xe8
 256 437 l 1
 401 437 l 2
 463 437 504 477 504 538 c 0
 504 576 479 594 425 594 c 2
 284 594 l 1xe8
EndSplineSet
EndChar

StartChar: D
Encoding: 68 68 36
Width: 592
Flags: MW
HStem: 0 124<204 317> 594 124<286 286 286 405>
VStem: 509 128<421.5 507>
LayerCount: 2
Fore
SplineSet
62 0 m 1
 187 718 l 1
 448 718 l 2
 502 718 551 700 581 668 c 0
 615 633 637 561 637 486 c 0
 637 352 593 206 524 114 c 0
 467 37 399 0 317 0 c 2
 62 0 l 1
286 594 m 1
 204 124 l 1
 324 124 l 2
 376 124 422 158 455 223 c 0
 488 287 509 381 509 462 c 0
 509 552 476 594 405 594 c 2
 286 594 l 1
EndSplineSet
EndChar

StartChar: F
Encoding: 70 70 38
Width: 501
Flags: MW
HStem: 0 20 302 127<238 519 260 497> 591 127<288 584 288 288>
LayerCount: 2
Fore
SplineSet
238 302 m 1
 185 0 l 1
 62 0 l 1
 187 718 l 1
 606 718 l 1
 584 591 l 1
 288 591 l 1
 260 429 l 1
 519 429 l 1
 497 302 l 1
 238 302 l 1
EndSplineSet
EndChar

StartChar: G
Encoding: 71 71 39
Width: 638
Flags: MW
HStem: -19 127<305.5 343.5> 266 121<385 653 406 522> 613 124<407.5 466.5>
VStem: 89 127<217 312.5 217 313> 546 124<495 589 521.5 532>
LayerCount: 2
Fore
SplineSet
385 266 m 1
 406 387 l 1
 653 387 l 1
 585 0 l 1
 503 0 l 1
 506 90 l 1
 435 9 383 -19 304 -19 c 0
 172 -19 89 84 89 249 c 0
 89 377 131 512 200 603 c 0
 267 691 353 737 453 737 c 0
 584 737 670 653 670 525 c 0
 670 518 670 508 669 495 c 1
 546 495 l 1
 546 501 l 2
 546 563 497 613 436 613 c 0
 379 613 323 579 284 520 c 0
 244 460 216 357 216 268 c 0
 216 166 264 108 347 108 c 0
 385 108 421 123 452 151 c 0
 482 179 498 205 522 266 c 1
 385 266 l 1
EndSplineSet
EndChar

StartChar: H
Encoding: 72 72 40
Width: 592
Flags: MW
HStem: 0 20 322 124<259 467 237 489> 698 20<183 306 306 306 536 659 659 659>
LayerCount: 2
Fore
SplineSet
467 322 m 1
 237 322 l 1
 181 0 l 1
 58 0 l 1
 183 718 l 1
 306 718 l 1
 259 446 l 1
 489 446 l 1
 536 718 l 1
 659 718 l 1
 534 0 l 1
 411 0 l 1
 467 322 l 1
EndSplineSet
EndChar

StartChar: I
Encoding: 73 73 41
Width: 228
Flags: MW
HStem: 0 20 698 20<178 301 301 301>
LayerCount: 2
Fore
SplineSet
301 718 m 1
 175 0 l 1
 52 0 l 1
 178 718 l 1
 301 718 l 1
EndSplineSet
EndChar

StartChar: K
Encoding: 75 75 43
Width: 592
Flags: MW
HStem: 0 20 698 20<196 319 319 319 544 703 703 703>
LayerCount: 2
Fore
SplineSet
236 243 m 1
 194 0 l 1
 71 0 l 1
 196 718 l 1
 319 718 l 1
 268 426 l 1
 544 718 l 1
 703 718 l 1
 411 424 l 1
 592 0 l 1
 433 0 l 1
 306 315 l 1
 236 243 l 1
EndSplineSet
EndChar

StartChar: L
Encoding: 76 76 44
Width: 501
Flags: MW
HStem: 0 130<208 478> 698 20<187 310 310 310>
LayerCount: 2
Fore
SplineSet
310 718 m 1
 208 130 l 1
 501 130 l 1
 478 0 l 1
 62 0 l 1
 187 718 l 1
 310 718 l 1
EndSplineSet
EndChar

StartChar: M
Encoding: 77 77 45
Width: 683
Flags: MW
HStem: 0 20 698 20<182 361 361 361 574 752 752 752>
LayerCount: 2
Fore
SplineSet
752 718 m 1
 627 0 l 1
 512 0 l 1
 618 609 l 1
 401 0 l 1
 281 0 l 1
 278 609 l 1
 172 0 l 1
 57 0 l 1
 182 718 l 1
 361 718 l 1
 369 148 l 1
 574 718 l 1
 752 718 l 1
EndSplineSet
EndChar

StartChar: N
Encoding: 78 78 46
Width: 592
Flags: MW
HStem: 0 20 698 20<182 311 311 311 546 661 661 661>
LayerCount: 2
Fore
SplineSet
459 214 m 1
 546 718 l 1
 661 718 l 1
 536 0 l 1
 413 0 l 1
 261 515 l 1
 172 0 l 1
 57 0 l 1
 182 718 l 1
 311 718 l 1
 459 214 l 1
EndSplineSet
EndChar

StartChar: O
Encoding: 79 79 47
Width: 638
Flags: MW
HStem: -19 127<300 363> 610 127<401 464.5>
VStem: 88 126<220 308.5> 550 125<408 497.5>
LayerCount: 2
Fore
SplineSet
449 737 m 0
 511 737 568 714 610 672 c 0
 651 631 675 557 675 474 c 0
 675 342 632 198 568 114 c 0
 504 30 411 -19 315 -19 c 0
 175 -19 88 82 88 245 c 0
 88 372 133 522 196 604 c 0
 260 688 353 737 449 737 c 0
426 610 m 0
 362 610 301 567 264 493 c 0
 233 432 214 348 214 271 c 0
 214 169 261 108 339 108 c 0
 457 108 550 257 550 447 c 0
 550 548 503 610 426 610 c 0
EndSplineSet
EndChar

StartChar: P
Encoding: 80 80 48
Width: 547
Flags: MW
HStem: 0 20 259 124<230 366 252 366 366 371> 594 124<289 386 289 289>
VStem: 480 125<514.5 549>
LayerCount: 2
Fore
SplineSet
230 259 m 1
 185 0 l 1
 62 0 l 1
 187 718 l 1
 456 718 l 2
 550 718 605 656 605 551 c 0
 605 478 579 401 537 345 c 0
 493 288 438 259 371 259 c 2
 230 259 l 1
252 383 m 1
 366 383 l 2
 410 383 441 401 460 437 c 0
 472 460 480 496 480 525 c 0
 480 573 451 594 386 594 c 2
 289 594 l 1
 252 383 l 1
EndSplineSet
EndChar

StartChar: Q
Encoding: 81 81 49
Width: 638
Flags: MW
HStem: -19 127<299 342> 610 127<401 464>
VStem: 88 126<220 310> 549 126<432 497>
LayerCount: 2
Fore
SplineSet
610 29 m 1
 531 -52 l 1
 475 29 l 1
 417 -5 370 -19 314 -19 c 0
 252 -19 194 4 153 45 c 1
 113 87 88 161 88 244 c 0
 88 376 131 520 195 604 c 0
 259 688 353 737 449 737 c 0
 510 737 570 713 610 673 c 1
 650 631 675 556 675 473 c 0
 675 391 658 299 628 223 c 0
 609 176 594 149 559 103 c 1
 610 29 l 1
360 195 m 1
 438 276 l 1
 488 205 l 1
 527 274 549 359 549 445 c 0
 549 549 503 610 425 610 c 0
 371 610 317 577 280 521 c 0
 241 463 214 360 214 271 c 0
 214 169 260 108 338 108 c 0
 362 108 382 114 408 127 c 1
 360 195 l 1
EndSplineSet
EndChar

StartChar: R
Encoding: 82 82 50
Width: 592
Flags: W
HStem: 0 20 281 121<253 358 231 397> 594 124<286 439 286 286>
VStem: 417 124<27 58> 440 126<237.5 242.5> 511 127<529.5 547.5>
LayerCount: 2
Fore
SplineSet
62 0 m 1xe8
 187 718 l 1
 485 718 l 2
 582 718 638 660 638 559 c 0xe4
 638 500 618 440 583 397 c 0
 562 371 547 359 514 344 c 1
 553 320 566 298 566 254 c 0xe8
 566 221 565 209 547 108 c 0
 543 85 541 65 541 51 c 0
 541 35 545 27 558 19 c 1
 555 0 l 1
 418 0 l 1
 417 27 l 1xf0
 417 55 421 92 431 145 c 0
 438 185 440 205 440 220 c 0
 440 265 418 281 358 281 c 2
 231 281 l 1
 182 0 l 1
 62 0 l 1xe8
253 402 m 1
 397 402 l 2
 441 402 470 415 488 442 c 0
 502 463 511 496 511 525 c 0
 511 570 486 594 439 594 c 2
 286 594 l 1
 253 402 l 1
EndSplineSet
EndChar

StartChar: T
Encoding: 84 84 52
Width: 501
Flags: MW
HStem: 0 20 591 127<136 292 114 615 415 593 415 415>
LayerCount: 2
Fore
SplineSet
415 591 m 1
 312 0 l 1
 189 0 l 1
 292 591 l 1
 114 591 l 1
 136 718 l 1
 615 718 l 1
 593 591 l 1
 415 591 l 1
EndSplineSet
EndChar

StartChar: V
Encoding: 86 86 54
Width: 547
Flags: MW
HStem: 0 20 698 20<141 273 273 273 528 656 656 656>
LayerCount: 2
Fore
SplineSet
304 170 m 1
 528 718 l 1
 656 718 l 1
 331 0 l 1
 214 0 l 1
 141 718 l 1
 273 718 l 1
 304 170 l 1
EndSplineSet
EndChar

StartChar: W
Encoding: 87 87 55
Width: 774
Flags: MW
HStem: 0 20 698 20<138 269 269 269 446 577 577 577 762 887 887 887>
LayerCount: 2
Fore
SplineSet
179 0 m 1
 138 718 l 1
 269 718 l 1
 272 558 274 388 274 327 c 0
 274 278 273 250 271 187 c 1
 310 313 352 440 446 718 c 1
 577 718 l 1
 577 344 577 301 573 187 c 1
 604 286 629 353 762 718 c 1
 887 718 l 1
 596 0 l 1
 478 0 l 1
 479 348 479 399 485 565 c 1
 421 371 349 157 343 142 c 2
 294 0 l 1
 179 0 l 1
EndSplineSet
EndChar

StartChar: X
Encoding: 88 88 56
Width: 547
Flags: MW
HStem: 0 20 698 20<147 294 294 294 506 648 648 648>
LayerCount: 2
Fore
SplineSet
408 373 m 1
 535 0 l 1
 385 0 l 1
 316 245 l 1
 155 0 l 1
 11 0 l 1
 265 367 l 1
 147 718 l 1
 294 718 l 1
 358 486 l 1
 506 718 l 1
 648 718 l 1
 408 373 l 1
EndSplineSet
EndChar

StartChar: Y
Encoding: 89 89 57
Width: 547
Flags: MW
HStem: 0 20 698 20<137 282 282 282 521 661 661 661>
LayerCount: 2
Fore
SplineSet
385 269 m 1
 339 0 l 1
 215 0 l 1
 263 271 l 1
 137 718 l 1
 282 718 l 1
 350 406 l 1
 521 718 l 1
 661 718 l 1
 385 269 l 1
EndSplineSet
EndChar

StartChar: Z
Encoding: 90 90 58
Width: 501
Flags: MW
HStem: 0 127<42 42 192 480 20 42> 591 127<153 428 131 604>
LayerCount: 2
Fore
SplineSet
503 127 m 1
 480 0 l 1
 20 0 l 1
 42 127 l 1
 428 591 l 1
 131 591 l 1
 153 718 l 1
 604 718 l 1
 583 600 l 1
 192 127 l 1
 503 127 l 1
EndSplineSet
EndChar

StartChar: bracketleft
Encoding: 91 91 59
Width: 273
Flags: MW
HStem: -196 96<134 219> 626 96<261 261 261 362>
LayerCount: 2
Fore
SplineSet
261 626 m 1
 134 -100 l 1
 236 -100 l 1
 219 -196 l 1
 17 -196 l 1
 177 722 l 1
 379 722 l 1
 362 626 l 1
 261 626 l 1
EndSplineSet
EndChar

StartChar: backslash
Encoding: 92 92 60
Width: 228
Flags: MW
HStem: -19 20 717 20<101 197 197 197>
LayerCount: 2
Fore
SplineSet
156 -19 m 1
 101 737 l 1
 197 737 l 1
 252 -19 l 1
 156 -19 l 1
EndSplineSet
EndChar

StartChar: bracketright
Encoding: 93 93 61
Width: 273
Flags: MW
HStem: -196 96<3 104 3 187 -14 104> 626 96<146 230 129 347>
LayerCount: 2
Fore
SplineSet
104 -100 m 1
 230 626 l 1
 129 626 l 1
 146 722 l 1
 347 722 l 1
 187 -196 l 1
 -14 -196 l 1
 3 -100 l 1
 104 -100 l 1
EndSplineSet
EndChar

StartChar: asciicircum
Encoding: 94 94 62
Width: 479
Flags: W
LayerCount: 2
Fore
SplineSet
196 323 m 1
 107 323 l 1
 320 698 l 1
 402 698 l 1
 484 323 l 1
 394 323 l 1
 341 586 l 1
 196 323 l 1
EndSplineSet
EndChar

StartChar: underscore
Encoding: 95 95 63
Width: 456
Flags: MW
HStem: -125 50<-13 434 -22 443>
LayerCount: 2
Fore
SplineSet
434 -125 m 1
 -22 -125 l 1
 -13 -75 l 1
 443 -75 l 1
 434 -125 l 1
EndSplineSet
EndChar

StartChar: grave
Encoding: 193 96 123
Width: 273
Flags: MW
HStem: 604 146<207 207 207 238 112 290>
LayerCount: 2
Fore
SplineSet
207 604 m 1
 112 750 l 1
 238 750 l 1
 290 604 l 1
 207 604 l 1
EndSplineSet
EndChar

StartChar: b
Encoding: 98 98 66
Width: 501
Flags: MW
HStem: -14 115<258.5 297 253.5 318> 425 121<312 431> 698 20<175 290 290 290>
VStem: 407 122<306.5 356>
LayerCount: 2
Fore
SplineSet
290 718 m 1
 245 460 l 1
 291 522 331 546 387 546 c 0
 475 546 529 474 529 358 c 0
 529 255 495 143 443 73 c 0
 400 15 348 -14 288 -14 c 0
 229 -14 194 12 175 70 c 1
 162 0 l 1
 50 0 l 1
 175 718 l 1
 290 718 l 1
332 425 m 0
 292 425 258 401 235 355 c 0
 214 313 200 253 200 203 c 0
 200 139 229 101 278 101 c 0
 316 101 348 126 373 174 c 0
 394 216 407 271 407 323 c 0
 407 389 381 425 332 425 c 0
EndSplineSet
EndChar

StartChar: d
Encoding: 100 100 68
Width: 501
Flags: MW
HStem: -14 115<235.5 237.5> 425 121<298 333 239 342.5> 698 20<462 577 577 577>
VStem: 67 120<174 233 174 281.5>
LayerCount: 2
Fore
SplineSet
577 718 m 1
 452 0 l 1
 339 0 l 1
 352 70 l 1
 312 12 267 -14 208 -14 c 0
 119 -14 67 57 67 180 c 0
 67 383 173 546 305 546 c 0
 361 546 393 521 417 460 c 1
 462 718 l 1
 577 718 l 1
318 425 m 0
 278 425 244 400 221 355 c 0
 201 315 187 257 187 209 c 0
 187 139 212 101 259 101 c 0
 335 101 393 196 393 321 c 0
 393 390 367 425 318 425 c 0
EndSplineSet
EndChar

StartChar: f
Encoding: 102 102 70
Width: 273
Flags: MW
HStem: 0 20 432 100<101 146 83 164 279 336 101 261> 612 115<315.5 333 333 342.5 286.5 365>
LayerCount: 2
Fore
SplineSet
261 432 m 1
 186 0 l 1
 71 0 l 1
 146 432 l 1
 83 432 l 1
 101 532 l 1
 164 532 l 1
 171 575 l 1
 190 680 240 727 333 727 c 0
 352 727 370 726 385 725 c 1
 365 612 l 1
 333 612 l 2
 298 612 292 605 283 553 c 2
 279 532 l 1
 354 532 l 1
 336 432 l 1
 261 432 l 1
EndSplineSet
EndChar

StartChar: g
Encoding: 103 103 71
Width: 501
Flags: MW
HStem: -217 106<208 239> -3 118<239.5 248> 425 121<281.5 338>
VStem: 71 120<181 270 181 284>
LayerCount: 2
Fore
SplineSet
436 532 m 1
 546 532 l 1
 458 28 l 2
 443 -59 419 -114 381 -151 c 0
 338 -194 275 -217 203 -217 c 0
 95 -217 31 -168 31 -84 c 0
 31 -78 31 -67 32 -57 c 1
 157 -57 l 1
 157 -72 158 -79 161 -85 c 0
 169 -102 192 -111 224 -111 c 0
 290 -111 325 -74 340 11 c 2
 352 80 l 1
 311 18 277 -3 219 -3 c 0
 126 -3 71 66 71 184 c 0
 71 384 178 546 310 546 c 0
 371 546 404 517 421 450 c 1
 436 532 l 1
315 425 m 0
 248 425 191 328 191 212 c 0
 191 150 217 115 262 115 c 0
 302 115 336 139 359 183 c 0
 378 221 390 273 390 319 c 0
 390 385 361 425 315 425 c 0
EndSplineSet
EndChar

StartChar: h
Encoding: 104 104 72
Width: 501
Flags: MW
HStem: 0 20 428 118<306 431> 698 20<178 293 293 293>
VStem: 394 122<363 454>
LayerCount: 2
Fore
SplineSet
293 718 m 1
 248 459 l 1
 281 516 331 546 393 546 c 0
 469 546 516 495 516 413 c 0
 516 399 515 384 512 368 c 2
 448 0 l 1
 333 0 l 1
 389 323 l 2
 392 341 394 358 394 368 c 0
 394 406 372 428 334 428 c 0
 278 428 234 381 221 305 c 2
 168 0 l 1
 53 0 l 1
 178 718 l 1
 293 718 l 1
EndSplineSet
EndChar

StartChar: i
Encoding: 105 105 73
Width: 228
Flags: MW
HStem: 0 20 512 20<150 264 264 264> 595 130<183 275 161 298>
LayerCount: 2
Fore
SplineSet
150 532 m 1
 264 532 l 1
 172 0 l 1
 57 0 l 1
 150 532 l 1
298 725 m 1
 275 595 l 1
 161 595 l 1
 183 725 l 1
 298 725 l 1
EndSplineSet
EndChar

StartChar: j
Encoding: 106 106 74
Width: 228
Flags: MW
HStem: -214 20 595 130<183 275 160 298>
LayerCount: 2
Fore
SplineSet
264 532 m 1
 162 -56 l 2
 141 -175 100 -214 -6 -214 c 2
 -35 -214 l 1
 -15 -102 l 1
 5 -102 l 2
 29 -102 41 -88 47 -53 c 2
 149 532 l 1
 264 532 l 1
298 725 m 1
 275 595 l 1
 160 595 l 1
 183 725 l 1
 298 725 l 1
EndSplineSet
EndChar

StartChar: k
Encoding: 107 107 75
Width: 456
Flags: MW
HStem: 0 20 698 20<182 297 297 297>
LayerCount: 2
Fore
SplineSet
201 168 m 1
 172 0 l 1
 57 0 l 1
 182 718 l 1
 297 718 l 1
 229 330 l 1
 408 532 l 1
 549 532 l 1
 359 326 l 1
 461 0 l 1
 323 0 l 1
 259 228 l 1
 201 168 l 1
EndSplineSet
EndChar

StartChar: l
Encoding: 108 108 76
Width: 228
Flags: MW
HStem: 0 20 698 20<182 297 297 297>
LayerCount: 2
Fore
SplineSet
297 718 m 1
 172 0 l 1
 57 0 l 1
 182 718 l 1
 297 718 l 1
EndSplineSet
EndChar

StartChar: m
Encoding: 109 109 77
Width: 729
Flags: W
HStem: 0 20 428 118<289.5 413> 512 20<145 255 255 255>
VStem: 623 123<358.5 453.5>
LayerCount: 2
Fore
SplineSet
255 532 m 1xb0
 241 451 l 1
 284 519 324 546 385 546 c 0
 441 546 465 526 490 461 c 1
 536 523 572 546 625 546 c 0
 698 546 746 494 746 413 c 0
 746 399 745 384 742 368 c 2
 678 0 l 1
 563 0 l 1
 619 323 l 2
 621 337 623 353 623 364 c 0
 623 407 606 428 573 428 c 0
 524 428 490 389 478 319 c 2
 422 0 l 1
 307 0 l 1
 363 320 l 2
 367 341 369 361 369 373 c 0
 369 409 349 428 313 428 c 0xd0
 266 428 235 393 223 324 c 2
 167 0 l 1
 52 0 l 1
 145 532 l 1
 255 532 l 1xb0
EndSplineSet
EndChar

StartChar: n
Encoding: 110 110 78
Width: 501
Flags: W
HStem: 0 20 428 118<306 430> 512 20<146 256 256 256>
VStem: 394 122<363 454.5>
LayerCount: 2
Fore
SplineSet
256 532 m 1xb0
 242 451 l 1
 288 519 330 546 391 546 c 0
 469 546 516 496 516 413 c 0
 516 399 515 384 512 368 c 2
 448 0 l 1
 333 0 l 1
 389 323 l 2
 392 341 394 358 394 368 c 0
 394 406 372 428 334 428 c 0xd0
 278 428 234 381 221 305 c 2
 168 0 l 1
 53 0 l 1
 146 532 l 1
 256 532 l 1xb0
EndSplineSet
EndChar

StartChar: o
Encoding: 111 111 79
Width: 501
Flags: MW
HStem: -14 118<241.5 286.5> 428 118<302 351.5>
VStem: 67 119<174.5 232.5 174.5 290.5> 407 120<300 358>
LayerCount: 2
Fore
SplineSet
346 546 m 0
 458 546 527 468 527 342 c 0
 527 252 495 152 448 90 c 0
 397 23 325 -14 248 -14 c 0
 136 -14 67 64 67 190 c 0
 67 391 189 546 346 546 c 0
324 428 m 0
 280 428 243 403 220 355 c 1
 200 316 186 256 186 209 c 0
 186 140 214 104 269 104 c 0
 313 104 350 129 374 177 c 0
 394 216 407 276 407 324 c 0
 407 392 379 428 324 428 c 0
EndSplineSet
EndChar

StartChar: q
Encoding: 113 113 81
Width: 501
Flags: MW
HStem: -207 20 -14 118<236.5 240> 425 121<296.5 338.5>
VStem: 66 119<167 223.5 167 229>
LayerCount: 2
Fore
SplineSet
435 532 m 1
 545 532 l 1
 416 -207 l 1
 301 -207 l 1
 350 69 l 1
 310 10 270 -14 210 -14 c 0
 119 -14 66 57 66 179 c 0
 66 279 99 386 153 456 c 1
 197 515 251 546 312 546 c 0
 370 546 399 520 421 450 c 1
 435 532 l 1
315 425 m 0
 278 425 243 399 221 355 c 0
 199 312 185 250 185 197 c 0
 185 137 212 104 261 104 c 0
 334 104 391 198 391 321 c 0
 391 385 362 425 315 425 c 0
EndSplineSet
EndChar

StartChar: r
Encoding: 114 114 82
Width: 319
Flags: W
HStem: 0 20 404 142<351 353.5> 512 20<145 255 255 255>
LayerCount: 2
Fore
SplineSet
52 0 m 1xc0
 145 532 l 1
 255 532 l 1xa0
 238 437 l 1
 291 521 323 546 379 546 c 0
 383 546 389 545 401 544 c 1
 376 402 l 1
 365 404 360 404 347 404 c 0
 273 404 230 363 215 277 c 2
 167 0 l 1
 52 0 l 1xc0
EndSplineSet
EndChar

StartChar: t
Encoding: 116 116 84
Width: 273
Flags: MW
HStem: -6 20 432 100<100 142 83 160 275 329 100 257>
LayerCount: 2
Fore
SplineSet
300 676 m 1
 275 532 l 1
 346 532 l 1
 329 432 l 1
 257 432 l 1
 207 143 l 2
 205 134 204 125 204 120 c 0
 204 106 216 100 246 100 c 0
 252 100 259 101 271 102 c 1
 252 -4 l 1
 212 -6 211 -6 198 -6 c 2
 183 -6 l 2
 113 -6 82 17 82 68 c 0
 82 81 83 95 86 109 c 2
 142 432 l 1
 83 432 l 1
 100 532 l 1
 160 532 l 1
 185 676 l 1
 300 676 l 1
EndSplineSet
EndChar

StartChar: v
Encoding: 118 118 86
Width: 456
Flags: MW
HStem: 0 20 512 20<103 231 231 231 416 538 538 538>
LayerCount: 2
Fore
SplineSet
538 532 m 1
 288 0 l 1
 167 0 l 1
 103 532 l 1
 231 532 l 1
 253 136 l 1
 416 532 l 1
 538 532 l 1
EndSplineSet
EndChar

StartChar: w
Encoding: 119 119 87
Width: 638
Flags: MW
HStem: 0 20 512 20<101 223 223 223 354 470 470 470 605 723 723 723>
VStem: 387 83<145 393 393 393>
LayerCount: 2
Fore
SplineSet
723 532 m 1
 505 0 l 1
 387 0 l 1
 387 393 l 1
 249 0 l 1
 131 0 l 1
 101 532 l 1
 223 532 l 1
 225 145 l 1
 354 532 l 1
 470 532 l 1
 470 145 l 1
 605 532 l 1
 723 532 l 1
EndSplineSet
EndChar

StartChar: x
Encoding: 120 120 88
Width: 456
Flags: MW
HStem: 0 20 512 20<110 250 250 250 396 531 531 531>
LayerCount: 2
Fore
SplineSet
342 271 m 1
 443 0 l 1
 301 0 l 1
 254 160 l 1
 151 0 l 1
 12 0 l 1
 208 271 l 1
 110 532 l 1
 250 532 l 1
 297 377 l 1
 396 532 l 1
 531 532 l 1
 342 271 l 1
EndSplineSet
EndChar

StartChar: y
Encoding: 121 121 89
Width: 456
Flags: MW
HStem: -214 112<82.5 102 73.5 135.5> 512 20<101 229 229 229 413 535 535 535>
LayerCount: 2
Fore
SplineSet
535 532 m 1
 293 9 l 2
 198 -197 183 -214 88 -214 c 0
 77 -214 61 -213 34 -212 c 1
 54 -100 l 1
 61 -101 69 -102 78 -102 c 0
 126 -102 143 -87 165 -22 c 1
 101 532 l 1
 229 532 l 1
 254 136 l 1
 413 532 l 1
 535 532 l 1
EndSplineSet
EndChar

StartChar: z
Encoding: 122 122 90
Width: 410
Flags: MW
HStem: 0 115<185 393> 420 112<124 313 105 478>
LayerCount: 2
Fore
SplineSet
458 417 m 1
 185 115 l 1
 414 115 l 1
 393 0 l 1
 16 0 l 1
 35 109 l 1
 313 420 l 1
 105 420 l 1
 124 532 l 1
 478 532 l 1
 458 417 l 1
EndSplineSet
EndChar

StartChar: braceleft
Encoding: 123 123 91
Width: 319
Flags: W
HStem: -196 88<169.5 280 243 265> 634 88<357 373 373 410>
VStem: 103 103<-122 -66.5> 143 102<155 184>
LayerCount: 2
Fore
SplineSet
280 -108 m 1xe0
 265 -196 l 1
 197 -196 l 2
 142 -196 103 -153 103 -91 c 0xe0
 103 -82 104 -70 106 -59 c 2
 141 141 l 2
 142 147 143 153 143 157 c 0
 145 191 120 214 77 217 c 1
 93 309 l 1
 141 311 176 341 183 385 c 2
 218 585 l 2
 232 663 291 722 357 722 c 2
 425 722 l 1
 410 634 l 1
 373 634 l 2
 340 634 323 615 315 568 c 2
 281 372 l 1
 268 313 220 269 164 263 c 1
 190 258 202 253 214 242 c 0
 233 225 245 198 245 170 c 0xd0
 245 167 244 160 243 154 c 2
 209 -42 l 2
 207 -53 206 -63 206 -70 c 0
 206 -95 219 -108 243 -108 c 2
 280 -108 l 1xe0
EndSplineSet
EndChar

StartChar: bar
Encoding: 124 124 92
Width: 230
Flags: MW
HStem: -19 20 717 20<197 289 289 289>
LayerCount: 2
Fore
SplineSet
66 -19 m 1
 197 737 l 1
 289 737 l 1
 158 -19 l 1
 66 -19 l 1
EndSplineSet
EndChar

StartChar: braceright
Encoding: 125 125 93
Width: 319
Flags: W
HStem: -196 88<1 38 38 54 -14 38> 634 88<146 167 130 213>
VStem: 166 102<351 359> 204 103<591.5 648>
LayerCount: 2
Fore
SplineSet
333 309 m 1xe0
 317 217 l 1
 270 215 234 185 227 141 c 2
 192 -59 l 2
 179 -137 119 -196 54 -196 c 2
 -14 -196 l 1
 1 -108 l 1
 38 -108 l 2
 70 -108 87 -88 95 -42 c 2
 129 154 l 1
 143 213 190 257 246 263 c 1
 220 268 209 273 196 284 c 0
 178 301 166 328 166 356 c 0xe0
 166 362 166 367 167 372 c 2
 201 568 l 2
 203 578 204 587 204 596 c 0
 204 621 191 634 167 634 c 2
 130 634 l 1
 146 722 l 1
 213 722 l 2
 268 722 307 679 307 617 c 0xd0
 307 607 306 596 304 585 c 2
 269 385 l 2
 268 379 268 375 268 369 c 0
 268 333 291 312 333 309 c 1xe0
EndSplineSet
EndChar

StartChar: asciitilde
Encoding: 126 126 94
Width: 479
Flags: W
HStem: 173 112<356.5 372.5> 224 112<195.5 210.5>
LayerCount: 2
Fore
SplineSet
431 321 m 1x80
 473 267 l 1
 428 199 395 173 350 173 c 0x80
 328 173 308 180 277 198 c 0
 244 217 223 224 198 224 c 0
 172 224 158 216 136 187 c 1
 94 242 l 1
 139 311 173 336 218 336 c 0x40
 239 336 259 329 290 311 c 0
 323 292 344 285 369 285 c 0
 395 285 409 294 431 321 c 1x80
EndSplineSet
EndChar

StartChar: exclamdown
Encoding: 161 161 95
Width: 273
Flags: MW
HStem: 391 141<145 290 170 265>
LayerCount: 2
Fore
SplineSet
145 391 m 1
 170 532 l 1
 290 532 l 1
 265 391 l 1
 145 391 l 1
73 -3 m 1
 165 333 l 1
 226 333 l 1
 200 -3 l 1
 168 -186 l 1
 41 -186 l 1
 73 -3 l 1
EndSplineSet
EndChar

StartChar: cent
Encoding: 162 162 96
Width: 456
Flags: W
HStem: -14 115<247.5 272.5 247.5 283> -10 20 523 20<369 369> 526 20<295 337>
VStem: 65 120<179 218>
LayerCount: 2
Fore
SplineSet
489 342 m 1x28
 373 342 l 1
 373 373 368 396 357 410 c 1
 233 105 l 1
 238 102 244 101 251 101 c 0
 294 101 332 138 346 194 c 1
 463 194 l 1
 422 59 339 -14 227 -14 c 0x88
 212 -14 198 -13 186 -10 c 1
 142 -118 l 1
 100 -118 l 1
 148 2 l 1
 121 18 108 29 97 46 c 0
 76 80 65 123 65 168 c 0
 65 268 101 388 150 453 c 0
 197 515 258 546 332 546 c 0x58
 342 546 356 545 369 543 c 1
 403 628 l 1
 446 628 l 1
 406 530 l 1
 434 515 447 505 459 488 c 0
 480 460 491 423 491 384 c 0
 491 373 490 358 489 342 c 1x28
200 129 m 1
 322 428 l 1
 312 428 l 2
 275 428 244 405 222 361 c 1
 200 320 185 248 185 192 c 0
 185 166 189 149 200 129 c 1
EndSplineSet
EndChar

StartChar: sterling
Encoding: 163 163 97
Width: 456
Flags: W
HStem: -16 118<303.5 356.5> -11 20 321 60<89 137 89 154 79 137 266 364 266 266> 606 112<312.5 363>
VStem: 123 116<487 525.5 487 542> 408 112<545.5 551.5>
LayerCount: 2
Fore
SplineSet
374 381 m 1x7c
 364 321 l 1
 266 321 l 1
 263 223 235 173 143 98 c 1
 195 120 219 127 248 127 c 0
 271 127 287 123 312 112 c 0
 327 106 339 102 345 102 c 0
 368 102 398 114 434 138 c 1
 448 29 l 1
 400 -2 359 -16 318 -16 c 0xac
 289 -16 266 -10 221 10 c 0
 201 19 181 24 165 24 c 0
 143 24 132 20 68 -11 c 1
 41 86 l 1
 83 112 118 149 143 192 c 0
 155 213 160 235 160 265 c 0
 160 286 159 299 154 321 c 1
 79 321 l 1
 89 381 l 1
 137 381 l 1
 126 435 123 453 123 476 c 0
 123 608 229 718 356 718 c 0
 457 718 520 655 520 554 c 0
 520 537 518 514 515 487 c 1
 407 487 l 1
 408 502 408 506 408 524 c 0
 408 579 386 606 340 606 c 0
 285 606 239 556 239 495 c 0
 239 479 243 455 257 381 c 1
 374 381 l 1x7c
EndSplineSet
EndChar

StartChar: currency
Encoding: 168 164 102
Width: 456
Flags: W
HStem: 141 103<250 270> 468 103<311 330.5> 518 20<226 226 418 418>
VStem: 110 94<302.5 334> 378 93<374 409.5>
LayerCount: 2
Fore
SplineSet
22 142 m 1xb8
 120 240 l 1
 112 267 110 281 110 305 c 0
 110 363 127 420 160 472 c 1
 97 570 l 1
 162 636 l 1
 226 538 l 1x38
 263 561 294 571 328 571 c 0xd8
 362 571 390 561 418 538 c 1
 515 636 l 1
 558 570 l 1
 460 472 l 1
 468 447 471 428 471 402 c 0
 471 346 454 292 420 240 c 1
 483 142 l 1
 418 76 l 1
 354 174 l 1
 319 151 288 141 252 141 c 0
 219 141 191 151 162 174 c 1
 65 76 l 1
 22 142 l 1xb8
310 468 m 0xd8
 252 468 204 404 204 328 c 0
 204 277 230 244 270 244 c 0
 327 244 378 310 378 384 c 0
 378 435 351 468 310 468 c 0xd8
EndSplineSet
EndChar

StartChar: yen
Encoding: 165 165 99
Width: 456
Flags: MW
HStem: 0 20 210 60<59 215 49 226 331 487> 345 60<83 190 83 206 73 190 411 510>
LayerCount: 2
Fore
SplineSet
521 405 m 1
 510 345 l 1
 375 345 l 1
 331 270 l 1
 497 270 l 1
 487 210 l 1
 320 210 l 1
 283 0 l 1
 179 0 l 1
 215 210 l 1
 49 210 l 1
 59 270 l 1
 226 270 l 1
 206 345 l 1
 73 345 l 1
 83 405 l 1
 190 405 l 1
 114 698 l 1
 237 698 l 1
 304 404 l 1
 469 698 l 1
 585 698 l 1
 411 405 l 1
 521 405 l 1
EndSplineSet
EndChar

StartChar: brokenbar
Encoding: 420 166 313
Width: 230
Flags: MW
HStem: -19 20 717 20<197 289 289 289>
LayerCount: 2
Fore
SplineSet
66 -19 m 1
 116 271 l 1
 208 271 l 1
 158 -19 l 1
 66 -19 l 1
147 447 m 1
 197 737 l 1
 289 737 l 1
 239 447 l 1
 147 447 l 1
EndSplineSet
EndChar

StartChar: section
Encoding: 167 167 101
Width: 456
Flags: W
HStem: -184 106<199.5 238 199.5 249> 621 106<314.5 350>
VStem: 50 110<-35.5 -30.5> 76 104<229.5 326> 154 109<544 571 544 572> 292 113<-16.5 16.5> 370 109<239.5 332.5> 385 106<562.5 635>
LayerCount: 2
Fore
SplineSet
488 544 m 1xc9
 384 544 l 1
 385 552 385 560 385 565 c 0xd1
 385 600 366 621 334 621 c 0
 295 621 263 590 263 552 c 0
 263 536 270 523 286 512 c 2
 405 431 l 2
 456 396 479 358 479 307 c 0xca
 479 239 438 171 374 134 c 1
 396 104 405 77 405 39 c 0
 405 -83 308 -184 190 -184 c 0
 104 -184 50 -127 50 -35 c 0
 50 -26 51 -14 53 3 c 1
 161 3 l 1
 160 -4 160 -11 160 -16 c 0xe4
 160 -55 181 -78 218 -78 c 0
 258 -78 292 -39 292 6 c 0
 292 27 282 41 254 61 c 2
 142 139 l 2
 94 172 76 204 76 255 c 0xd4
 76 333 106 384 180 432 c 1
 161 460 154 483 154 515 c 0
 154 629 247 727 355 727 c 0
 439 727 491 676 491 594 c 0
 491 581 490 564 488 544 c 1xc9
209 263 m 2
 323 179 l 1
 354 200 370 225 370 254 c 0xc2
 370 274 358 292 334 309 c 2
 227 383 l 1
 200 370 180 340 180 312 c 0
 180 292 188 278 209 263 c 2
EndSplineSet
EndChar

StartChar: dieresis
Encoding: 200 168 130
Width: 273
Flags: MW
HStem: 614 115<132 215 112 235 132 272 292 375>
LayerCount: 2
Fore
SplineSet
235 729 m 1
 215 614 l 1
 112 614 l 1
 132 729 l 1
 235 729 l 1
395 729 m 1
 375 614 l 1
 272 614 l 1
 292 729 l 1
 395 729 l 1
EndSplineSet
EndChar

StartChar: copyright
Encoding: 409 169 302
Width: 604
Flags: MW
HStem: -19 88<261 389 261 402.5> 146 87<336.5 378.5 336.5 378.5> 492 87<369 419.5> 650 87<341 468.5>
VStem: 46 91<221 384 221 397.5> 203 86<298 373 298 384> 594 91<334 496>
LayerCount: 2
Fore
SplineSet
441 303 m 1
 514 303 l 1
 479 201 418 146 339 146 c 0
 256 146 203 211 203 310 c 0
 203 458 298 579 414 579 c 0
 490 579 539 519 533 431 c 1
 533 426 l 1
 462 426 l 1
 461 469 439 492 400 492 c 0
 338 492 289 419 289 327 c 0
 289 269 315 233 358 233 c 0
 399 233 428 257 441 303 c 1
432 737 m 0
 583 737 685 621 685 450 c 0
 685 196 507 -19 298 -19 c 0
 148 -19 46 98 46 271 c 0
 46 524 222 737 432 737 c 0
415 650 m 0
 267 650 137 481 137 287 c 0
 137 155 207 69 315 69 c 0
 463 69 594 238 594 430 c 0
 594 562 522 650 415 650 c 0
EndSplineSet
EndChar

StartChar: ordfeminine
Encoding: 227 170 138
Width: 303
Flags: MW
HStem: 276 80<89 321 75 335> 401 61<154 228> 666 71<250 279.5>
VStem: 102 79<481.5 504> 306 75<630 686.5>
LayerCount: 2
Fore
SplineSet
209 625 m 1
 137 625 l 1
 161 705 201 737 280 737 c 0
 345 737 381 710 381 663 c 0
 381 657 380 650 379 644 c 2
 349 471 l 2
 347 460 346 449 346 444 c 0
 346 432 350 425 358 422 c 1
 356 409 l 1
 275 409 l 1
 274 417 274 421 274 426 c 0
 274 431 274 436 275 447 c 1
 240 413 214 401 177 401 c 0
 131 401 102 428 102 472 c 0
 102 536 145 588 206 598 c 2
 275 609 l 2
 297 613 306 621 306 639 c 0
 306 657 293 666 266 666 c 0
 234 666 219 656 209 625 c 1
286 525 m 2
 293 565 l 1
 281 557 268 553 240 548 c 0
 200 541 181 522 181 490 c 0
 181 473 192 462 210 462 c 0
 246 462 280 490 286 525 c 2
89 356 m 1
 335 356 l 1
 321 276 l 1
 75 276 l 1
 89 356 l 1
EndSplineSet
EndChar

StartChar: guillemotleft
Encoding: 171 171 105
Width: 456
Flags: W
LayerCount: 2
Fore
SplineSet
273 368 m 1
 176 280 l 1
 243 192 l 1
 223 76 l 1
 111 220 l 1
 132 340 l 1
 294 484 l 1
 273 368 l 1
448 368 m 1
 351 280 l 1
 417 192 l 1
 397 76 l 1
 285 220 l 1
 306 340 l 1
 468 484 l 1
 448 368 l 1
EndSplineSet
EndChar

StartChar: logicalnot
Encoding: 417 172 310
Width: 479
Flags: MW
HStem: 307 112<106 408 86 519>
LayerCount: 2
Fore
SplineSet
373 108 m 1
 408 307 l 1
 86 307 l 1
 106 419 l 1
 519 419 l 1
 465 108 l 1
 373 108 l 1
EndSplineSet
EndChar

StartChar: registered
Encoding: 410 174 303
Width: 604
Flags: MW
HStem: -19 88<260 388 260 402.5> 327 69<307 383 319 341> 494 69<337 387 337 337> 649 88<340 467>
VStem: 45 91<221 383.5 221 396> 444 77<453 471.5> 592 92<333.5 495>
LayerCount: 2
Fore
SplineSet
307 327 m 1
 278 156 l 1
 206 156 l 1
 277 563 l 1
 402 563 l 2
 483 563 521 535 521 474 c 0
 521 432 506 388 484 364 c 0
 467 346 450 338 419 334 c 1
 473 156 l 1
 388 156 l 1
 341 327 l 1
 307 327 l 1
319 396 m 1
 383 396 l 2
 408 396 422 402 432 416 c 0
 439 426 444 445 444 459 c 0
 444 484 427 494 387 494 c 2
 337 494 l 1
 319 396 l 1
431 737 m 0
 582 737 684 621 684 449 c 0
 684 195 507 -19 298 -19 c 0
 146 -19 45 97 45 269 c 0
 45 523 221 737 431 737 c 0
414 649 m 0
 266 649 136 480 136 287 c 0
 136 155 206 69 314 69 c 0
 462 69 592 238 592 429 c 0
 592 561 520 649 414 649 c 0
EndSplineSet
EndChar

StartChar: macron
Encoding: 197 175 127
Width: 273
Flags: MW
HStem: 604 74<113 383 100 396>
LayerCount: 2
Fore
SplineSet
396 678 m 1
 383 604 l 1
 100 604 l 1
 113 678 l 1
 396 678 l 1
EndSplineSet
EndChar

StartChar: degree
Encoding: 399 176 292
Width: 328
Flags: MW
HStem: 426 56<231 270.5 231 275.5> 656 56<255.5 294.5>
VStem: 143 47<530.5 577.5 530.5 583.5> 336 47<560 607>
LayerCount: 2
Fore
SplineSet
288 712 m 0
 343 712 383 664 383 599 c 0
 383 510 313 426 238 426 c 0
 183 426 143 474 143 539 c 0
 143 628 214 712 288 712 c 0
278 656 m 0
 233 656 190 605 190 550 c 0
 190 511 214 482 248 482 c 0
 293 482 336 533 336 587 c 0
 336 627 311 656 278 656 c 0
EndSplineSet
EndChar

StartChar: plusminus
Encoding: 404 177 297
Width: 479
Flags: MW
HStem: 0 112<33 465 52 446> 269 112<99 240 80 260 352 493 99 332>
LayerCount: 2
Fore
SplineSet
260 381 m 1
 294 578 l 1
 386 578 l 1
 352 381 l 1
 512 381 l 1
 493 269 l 1
 332 269 l 1
 310 143 l 1
 218 143 l 1
 240 269 l 1
 80 269 l 1
 99 381 l 1
 260 381 l 1
33 0 m 1
 52 112 l 1
 465 112 l 1
 446 0 l 1
 33 0 l 1
EndSplineSet
EndChar

StartChar: twosuperior
Encoding: 397 178 290
Width: 273
Flags: MW
HStem: 283 82<177 315> 643 79<239 260.5>
VStem: 290 78<583.5 607.5>
LayerCount: 2
Fore
SplineSet
181 558 m 1
 109 558 l 1
 119 609 129 634 148 662 c 0
 175 700 217 722 261 722 c 0
 326 722 368 676 368 606 c 0
 368 561 351 516 322 481 c 1
 303 460 301 458 239 416 c 0
 211 396 188 377 177 365 c 1
 330 365 l 1
 315 283 l 1
 57 283 l 1
 77 370 107 409 212 482 c 1
 267 522 290 555 290 593 c 0
 290 622 273 643 248 643 c 0
 213 643 192 617 181 558 c 1
EndSplineSet
EndChar

StartChar: threesuperior
Encoding: 398 179 291
Width: 273
Flags: W
HStem: 271 75<179.5 213 179.5 225> 647 75<236.5 256>
VStem: 75 74<345.5 405.5> 259 82<409 451> 281 80<604.5 622>
LayerCount: 2
Fore
SplineSet
78 425 m 1xf0
 151 425 l 1
 150 416 149 408 149 403 c 0
 149 366 165 346 194 346 c 0
 232 346 259 383 259 435 c 0xf0
 259 467 240 479 187 479 c 1
 198 543 l 1
 210 543 l 2
 258 543 281 565 281 610 c 0
 281 634 268 647 244 647 c 0
 211 647 190 627 182 585 c 1
 112 585 l 1
 121 625 129 645 147 668 c 0
 173 702 214 722 259 722 c 0
 322 722 361 687 361 630 c 0xc8
 361 579 339 541 297 520 c 1
 327 507 341 484 341 446 c 0
 341 350 269 271 181 271 c 0
 115 271 75 312 75 379 c 0
 75 390 76 408 78 425 c 1xf0
EndSplineSet
EndChar

StartChar: acute
Encoding: 194 180 124
Width: 273
Flags: W
LayerCount: 2
Fore
SplineSet
423 750 m 1
 277 604 l 1
 194 604 l 1
 297 750 l 1
 423 750 l 1
EndSplineSet
EndChar

StartChar: paragraph
Encoding: 182 182 114
Width: 456
Flags: MW
HStem: 615 85<374 457 374 374>
LayerCount: 2
Fore
SplineSet
141 -191 m 1
 235 347 l 1
 187 349 166 354 141 367 c 1
 101 390 80 428 80 480 c 0
 80 542 104 606 141 643 c 0
 179 681 236 700 315 700 c 2
 564 700 l 1
 408 -191 l 1
 316 -191 l 1
 457 615 l 1
 374 615 l 1
 233 -191 l 1
 141 -191 l 1
EndSplineSet
EndChar

StartChar: periodcentered
Encoding: 180 183 113
Width: 228
Flags: W
LayerCount: 2
Fore
SplineSet
172 334 m 0
 203 334 226 307 226 270 c 0
 226 219 187 172 144 172 c 0
 112 172 90 198 90 235 c 0
 90 286 130 334 172 334 c 0
EndSplineSet
EndChar

StartChar: cedilla
Encoding: 203 184 132
Width: 273
Flags: MW
HStem: -228 57<49.5 68.5 49.5 91.5>
VStem: 103 77<-136.5 -115.5>
LayerCount: 2
Fore
SplineSet
28 -84 m 1
 88 0 l 1
 136 0 l 1
 96 -55 l 1
 106 -52 113 -51 120 -51 c 0
 156 -51 180 -76 180 -111 c 0
 180 -176 126 -228 57 -228 c 0
 30 -228 12 -223 -30 -203 c 1
 -4 -155 l 1
 26 -166 43 -171 56 -171 c 0
 81 -171 103 -149 103 -124 c 0
 103 -107 92 -96 76 -96 c 0
 69 -96 57 -99 42 -104 c 1
 28 -84 l 1
EndSplineSet
EndChar

StartChar: onesuperior
Encoding: 396 185 289
Width: 273
Flags: W
LayerCount: 2
Fore
SplineSet
121 574 m 1
 132 636 l 1
 143 636 l 2
 200 636 235 661 248 710 c 1
 318 710 l 1
 243 283 l 1
 161 283 l 1
 211 574 l 1
 121 574 l 1
EndSplineSet
EndChar

StartChar: ordmasculine
Encoding: 235 186 142
Width: 299
Flags: MW
HStem: 276 80<89 321 75 335> 401 72<217 255.5 217 269> 665 72<243.5 281.5>
VStem: 101 81<520 574.5 520 587.5> 317 81<563.5 618>
LayerCount: 2
Fore
SplineSet
279 737 m 0
 353 737 398 688 398 606 c 0
 398 493 318 401 220 401 c 0
 146 401 101 450 101 531 c 0
 101 644 181 737 279 737 c 0
266 665 m 0
 221 665 182 608 182 541 c 0
 182 499 201 473 233 473 c 0
 278 473 317 530 317 597 c 0
 317 639 297 665 266 665 c 0
89 356 m 1
 335 356 l 1
 321 276 l 1
 75 276 l 1
 89 356 l 1
EndSplineSet
EndChar

StartChar: guillemotright
Encoding: 187 187 119
Width: 456
Flags: W
LayerCount: 2
Fore
SplineSet
377 280 m 1
 311 368 l 1
 331 484 l 1
 443 340 l 1
 422 220 l 1
 260 76 l 1
 280 192 l 1
 377 280 l 1
203 280 m 1
 136 368 l 1
 156 484 l 1
 268 340 l 1
 247 220 l 1
 85 76 l 1
 105 192 l 1
 203 280 l 1
EndSplineSet
EndChar

StartChar: onequarter
Encoding: 406 188 299
Width: 684
Flags: W
HStem: -19 20 90 67<445 525 445 644 445 603> 90 69<615 644 603 656>
LayerCount: 2
Fore
SplineSet
661 424 m 1x20
 615 159 l 1
 656 159 l 1x20
 644 90 l 1
 603 90 l 1xc0
 587 0 l 1
 509 0 l 1
 525 90 l 1
 375 90 l 1
 388 164 l 1
 572 424 l 1
 661 424 l 1x20
445 157 m 1xc0
 540 157 l 1
 559 264 563 288 574 343 c 1
 445 157 l 1xc0
108 -19 m 1
 586 710 l 1
 650 710 l 1
 173 -19 l 1
 108 -19 l 1
121 574 m 1
 132 636 l 1
 143 636 l 2
 200 636 235 661 248 710 c 1
 318 710 l 1
 244 283 l 1
 161 283 l 1
 211 574 l 1
 121 574 l 1
EndSplineSet
EndChar

StartChar: onehalf
Encoding: 405 189 298
Width: 684
Flags: W
HStem: -19 20 0 82<513 651> 360 79<574.5 596.5>
VStem: 626 78<300.5 324.5>
LayerCount: 2
Fore
SplineSet
108 -19 m 1xb0
 586 710 l 1
 650 710 l 1
 173 -19 l 1
 108 -19 l 1xb0
121 574 m 1
 132 636 l 1
 143 636 l 2
 200 636 235 661 248 710 c 1
 318 710 l 1
 244 283 l 1
 161 283 l 1
 211 574 l 1
 121 574 l 1
517 275 m 1
 445 275 l 1
 455 326 464 351 484 379 c 0
 510 417 552 439 597 439 c 0
 662 439 704 393 704 323 c 0
 704 278 687 233 658 198 c 1
 639 177 637 175 575 133 c 0
 549 115 523 93 513 82 c 1
 666 82 l 1
 651 0 l 1
 393 0 l 1x70
 412 87 443 126 548 199 c 1
 603 239 626 272 626 310 c 0
 626 339 609 360 584 360 c 0
 549 360 528 334 517 275 c 1
EndSplineSet
EndChar

StartChar: threequarters
Encoding: 407 190 300
Width: 684
Flags: W
HStem: -19 20 90 69<472 552 642 671 472 630> 271 75<186.5 220 186.5 231.5> 647 75<243.5 263>
VStem: 82 74<383.5 384> 265 82<409 451> 288 80<604.5 622.5>
LayerCount: 2
Fore
SplineSet
688 424 m 1xfc
 642 159 l 1
 683 159 l 1
 671 90 l 1
 630 90 l 1
 614 0 l 1
 536 0 l 1
 552 90 l 1
 402 90 l 1
 415 164 l 1
 599 424 l 1
 688 424 l 1xfc
472 159 m 1
 564 159 l 1
 582 260 587 290 597 339 c 1
 472 159 l 1
144 -19 m 1
 622 710 l 1
 686 710 l 1
 209 -19 l 1
 144 -19 l 1
85 425 m 1
 159 425 l 1
 157 415 156 406 156 401 c 0
 156 366 172 346 201 346 c 0
 239 346 265 383 265 435 c 0xfc
 265 467 247 479 194 479 c 1
 205 543 l 1
 217 543 l 2
 265 543 288 565 288 610 c 0
 288 635 275 647 251 647 c 0
 218 647 197 626 189 585 c 1
 119 585 l 1
 128 625 136 645 154 668 c 0
 180 702 221 722 266 722 c 0
 329 722 368 687 368 630 c 0xf2
 368 579 346 541 304 520 c 1
 333 507 347 484 347 446 c 0
 347 350 275 271 188 271 c 0
 123 271 82 312 82 378 c 0
 82 390 83 407 85 425 c 1
EndSplineSet
EndChar

StartChar: questiondown
Encoding: 191 191 122
Width: 501
Flags: MW
HStem: -195 118<215.5 251.5 215.5 255> 391 141<255 399 279 374>
VStem: 44 126<-28.5 -5.5>
LayerCount: 2
Fore
SplineSet
251 324 m 1
 359 324 l 1
 341 216 321 183 241 121 c 0
 190 82 170 46 170 -6 c 0
 170 -51 194 -77 237 -77 c 0
 266 -77 293 -63 311 -38 c 0
 321 -25 336 7 340 23 c 2
 343 39 l 1
 459 39 l 1
 444 -30 430 -65 400 -104 c 0
 356 -162 290 -195 220 -195 c 0
 184 -195 147 -186 118 -170 c 0
 70 -145 44 -97 44 -33 c 0
 44 22 61 76 90 116 c 0
 110 143 133 166 180 202 c 0
 227 238 239 257 251 324 c 1
255 391 m 1
 279 532 l 1
 399 532 l 1
 374 391 l 1
 255 391 l 1
EndSplineSet
EndChar

StartChar: Agrave
Encoding: 258 192 151
Width: 592
Flags: MW
HStem: 0 20 148 124<213 417 267 417 267 430> 698 20<352 494 494 494> 790 146<399 399 399 430 304 482>
LayerCount: 2
Fore
SplineSet
213 148 m 1
 146 0 l 1
 16 0 l 1
 352 718 l 1
 494 718 l 1
 576 0 l 1
 442 0 l 1
 430 148 l 1
 213 148 l 1
394 559 m 1
 267 272 l 1
 417 272 l 1
 394 559 l 1
399 790 m 1
 304 936 l 1
 430 936 l 1
 482 790 l 1
 399 790 l 1
EndSplineSet
EndChar

StartChar: Aacute
Encoding: 257 193 150
Width: 592
Flags: MW
HStem: 0 20 148 124<213 417 267 417 267 430> 698 20<352 494 494 494>
LayerCount: 2
Fore
SplineSet
213 148 m 1
 146 0 l 1
 16 0 l 1
 352 718 l 1
 494 718 l 1
 576 0 l 1
 442 0 l 1
 430 148 l 1
 213 148 l 1
394 559 m 1
 267 272 l 1
 417 272 l 1
 394 559 l 1
615 936 m 1
 469 790 l 1
 386 790 l 1
 489 936 l 1
 615 936 l 1
EndSplineSet
EndChar

StartChar: Acircumflex
Encoding: 259 194 152
Width: 592
Flags: MW
HStem: 0 20 148 124<213 417 267 417 267 430> 698 20<352 494 494 494> 790 146<289 511 289 511 486 511 408 579 486 486>
LayerCount: 2
Fore
SplineSet
213 148 m 1
 146 0 l 1
 16 0 l 1
 352 718 l 1
 494 718 l 1
 576 0 l 1
 442 0 l 1
 430 148 l 1
 213 148 l 1
394 559 m 1
 267 272 l 1
 417 272 l 1
 394 559 l 1
511 936 m 1
 579 790 l 1
 486 790 l 1
 448 872 l 1
 382 790 l 1
 289 790 l 1
 408 936 l 1
 511 936 l 1
EndSplineSet
EndChar

StartChar: Atilde
Encoding: 261 195 154
Width: 592
Flags: W
HStem: 0 20 148 124<213 417 267 417 267 430> 698 20<352 494 494 494> 803 80<502.5 518.5 502.5 520> 839 80<377.5 386>
LayerCount: 2
Fore
SplineSet
213 148 m 1xe0
 146 0 l 1
 16 0 l 1
 352 718 l 1
 494 718 l 1
 576 0 l 1
 442 0 l 1
 430 148 l 1
 213 148 l 1xe0
394 559 m 1
 267 272 l 1
 417 272 l 1
 394 559 l 1
554 923 m 1x10
 607 923 l 1
 580 843 543 803 497 803 c 0x10
 480 803 452 812 418 828 c 0
 400 836 390 839 382 839 c 0
 363 839 347 824 336 796 c 1
 284 796 l 1
 314 881 351 919 404 919 c 0x08
 420 919 428 916 460 900 c 0
 487 887 497 883 508 883 c 0
 529 883 543 895 554 923 c 1x10
EndSplineSet
EndChar

StartChar: Adieresis
Encoding: 256 196 149
Width: 592
Flags: MW
HStem: 0 20 148 124<213 417 267 417 267 430> 698 20<352 494 494 494> 800 115<324 407 304 427 324 464 484 567>
LayerCount: 2
Fore
SplineSet
213 148 m 1
 146 0 l 1
 16 0 l 1
 352 718 l 1
 494 718 l 1
 576 0 l 1
 442 0 l 1
 430 148 l 1
 213 148 l 1
394 559 m 1
 267 272 l 1
 417 272 l 1
 394 559 l 1
427 915 m 1
 407 800 l 1
 304 800 l 1
 324 915 l 1
 427 915 l 1
587 915 m 1
 567 800 l 1
 464 800 l 1
 484 915 l 1
 587 915 l 1
EndSplineSet
EndChar

StartChar: Aring
Encoding: 262 197 155
Width: 592
Flags: MW
HStem: 0 20 148 124<213 417 267 417 267 430> 698 20<352 494 494 494> 754 52 910 52
VStem: 16 47 149 47
LayerCount: 2
Fore
SplineSet
213 148 m 1
 146 0 l 1
 16 0 l 1
 352 718 l 1
 494 718 l 1
 576 0 l 1
 442 0 l 1
 430 148 l 1
 213 148 l 1
394 559 m 1
 267 272 l 1
 417 272 l 1
 394 559 l 1
469 989 m 0
 509 989 541 952 541 906 c 0
 541 843 487 781 433 781 c 0
 393 781 361 818 361 864 c 0
 361 927 415 989 469 989 c 0
460 937 m 0
 433 937 408 907 408 874 c 0
 408 850 422 833 442 833 c 0
 469 833 494 863 494 896 c 0
 494 920 480 937 460 937 c 0
EndSplineSet
EndChar

StartChar: AE
Encoding: 225 198 137
Width: 820
Flags: MW
HStem: 0 127<495 783> 153 118<255 379 202 399> 313 127<527 823 549 801> 591 127<402 455 402 402 575 880 575 575>
LayerCount: 2
Fore
SplineSet
527 313 m 1
 495 127 l 1
 805 127 l 1
 783 0 l 1
 352 0 l 1
 379 153 l 1
 202 153 l 1
 133 0 l 1
 4 0 l 1
 344 718 l 1
 902 718 l 1
 880 591 l 1
 575 591 l 1
 549 440 l 1
 823 440 l 1
 801 313 l 1
 527 313 l 1
255 271 m 1
 399 271 l 1
 455 591 l 1
 402 591 l 1
 255 271 l 1
EndSplineSet
EndChar

StartChar: Ccedilla
Encoding: 264 199 157
Width: 592
Flags: MW
HStem: -228 57<225 243.5 225 267.5> 607 130<391.5 438.5>
VStem: 88 128<217 308.5> 278 78<-136.5 -116>
LayerCount: 2
Fore
SplineSet
298 -19 m 1
 272 -55 l 1
 282 -52 289 -51 296 -51 c 0
 332 -51 356 -75 356 -111 c 0
 356 -176 302 -228 233 -228 c 0
 206 -228 187 -223 146 -203 c 1
 172 -155 l 1
 202 -167 219 -171 231 -171 c 0
 256 -171 278 -149 278 -124 c 0
 278 -108 267 -96 252 -96 c 0
 244 -96 233 -99 218 -104 c 1
 204 -84 l 1
 254 -14 l 1
 231 -10 213 -3 195 7 c 0
 126 44 88 128 88 241 c 0
 88 376 131 519 199 609 c 0
 262 693 345 737 438 737 c 0
 563 737 647 649 647 519 c 0
 647 510 647 499 645 483 c 1
 522 483 l 1
 520 522 517 538 506 559 c 0
 491 589 459 607 418 607 c 0
 365 607 319 579 283 524 c 0
 244 464 216 359 216 267 c 0
 216 167 256 111 327 111 c 0
 370 111 409 130 439 167 c 0
 456 188 465 205 481 246 c 1
 604 246 l 1
 546 73 438 -20 298 -19 c 1
EndSplineSet
EndChar

StartChar: Egrave
Encoding: 270 200 163
Width: 547
Flags: MW
HStem: 0 127<205 509> 313 127<259 524 237 546> 591 127<285 598 285 285> 790 146<376 376 376 407 281 459>
LayerCount: 2
Fore
SplineSet
620 718 m 1
 598 591 l 1
 285 591 l 1
 259 440 l 1
 546 440 l 1
 524 313 l 1
 237 313 l 1
 205 127 l 1
 531 127 l 1
 509 0 l 1
 62 0 l 1
 187 718 l 1
 620 718 l 1
376 790 m 1
 281 936 l 1
 407 936 l 1
 459 790 l 1
 376 790 l 1
EndSplineSet
EndChar

StartChar: Eacute
Encoding: 269 201 162
Width: 547
Flags: MW
HStem: 0 127<205 509> 313 127<259 524 237 546> 591 127<285 598 285 285>
LayerCount: 2
Fore
SplineSet
620 718 m 1
 598 591 l 1
 285 591 l 1
 259 440 l 1
 546 440 l 1
 524 313 l 1
 237 313 l 1
 205 127 l 1
 531 127 l 1
 509 0 l 1
 62 0 l 1
 187 718 l 1
 620 718 l 1
592 936 m 1
 446 790 l 1
 363 790 l 1
 466 936 l 1
 592 936 l 1
EndSplineSet
EndChar

StartChar: Ecircumflex
Encoding: 271 202 164
Width: 547
Flags: MW
HStem: 0 127<205 509> 313 127<259 524 237 546> 591 127<285 598 285 285> 790 146<267 489 267 489 464 489 386 557 464 464>
LayerCount: 2
Fore
SplineSet
620 718 m 1
 598 591 l 1
 285 591 l 1
 259 440 l 1
 546 440 l 1
 524 313 l 1
 237 313 l 1
 205 127 l 1
 531 127 l 1
 509 0 l 1
 62 0 l 1
 187 718 l 1
 620 718 l 1
489 936 m 1
 557 790 l 1
 464 790 l 1
 426 872 l 1
 360 790 l 1
 267 790 l 1
 386 936 l 1
 489 936 l 1
EndSplineSet
EndChar

StartChar: Igrave
Encoding: 278 204 171
Width: 228
Flags: MW
HStem: 0 20 698 20<178 301 301 301> 790 146<217 217 217 248 122 300>
LayerCount: 2
Fore
SplineSet
301 718 m 1
 175 0 l 1
 52 0 l 1
 178 718 l 1
 301 718 l 1
217 790 m 1
 122 936 l 1
 248 936 l 1
 300 790 l 1
 217 790 l 1
EndSplineSet
EndChar

StartChar: Iacute
Encoding: 277 205 170
Width: 228
Flags: MW
HStem: 0 20 698 20<178 301 301 301>
LayerCount: 2
Fore
SplineSet
301 718 m 1
 175 0 l 1
 52 0 l 1
 178 718 l 1
 301 718 l 1
433 936 m 1
 287 790 l 1
 204 790 l 1
 307 936 l 1
 433 936 l 1
EndSplineSet
EndChar

StartChar: Icircumflex
Encoding: 279 206 172
Width: 228
Flags: MW
HStem: 0 20 698 20<178 301 301 301> 790 146<107 329 107 329 304 329 226 397 304 304>
LayerCount: 2
Fore
SplineSet
301 718 m 1
 175 0 l 1
 52 0 l 1
 178 718 l 1
 301 718 l 1
329 936 m 1
 397 790 l 1
 304 790 l 1
 266 872 l 1
 200 790 l 1
 107 790 l 1
 226 936 l 1
 329 936 l 1
EndSplineSet
EndChar

StartChar: Idieresis
Encoding: 276 207 169
Width: 228
Flags: MW
HStem: 0 20 698 20<177 300 300 300> 800 115<142 225 122 245 142 282 302 385>
LayerCount: 2
Fore
SplineSet
300 718 m 1
 175 0 l 1
 52 0 l 1
 177 718 l 1
 300 718 l 1
245 915 m 1
 225 800 l 1
 122 800 l 1
 142 915 l 1
 245 915 l 1
405 915 m 1
 385 800 l 1
 282 800 l 1
 302 915 l 1
 405 915 l 1
EndSplineSet
EndChar

StartChar: Eth
Encoding: 389 208 282
Width: 592
Flags: MW
HStem: 0 124<205 318> 316 124<73 117 51 139 73 238 260 374> 594 124<287 287 287 405>
VStem: 509 128<421 507>
LayerCount: 2
Fore
SplineSet
117 316 m 1
 51 316 l 1
 73 440 l 1
 139 440 l 1
 188 718 l 1
 448 718 l 2
 502 718 551 700 581 668 c 0
 615 633 637 561 637 485 c 0
 637 352 593 206 524 114 c 0
 467 37 399 0 318 0 c 2
 62 0 l 1
 117 316 l 1
287 594 m 1
 260 440 l 1
 396 440 l 1
 374 316 l 1
 238 316 l 1
 205 124 l 1
 324 124 l 2
 377 124 421 158 455 223 c 0
 488 287 509 380 509 462 c 0
 509 552 476 594 405 594 c 2
 287 594 l 1
EndSplineSet
EndChar

StartChar: Ntilde
Encoding: 285 209 178
Width: 592
Flags: W
HStem: 0 20 698 20<182 311 311 311 546 661 661 661> 803 80<503.5 519.5 503.5 521> 839 80<378.5 387>
LayerCount: 2
Fore
SplineSet
459 214 m 1xc0
 546 718 l 1
 661 718 l 1
 536 0 l 1
 413 0 l 1
 261 515 l 1
 172 0 l 1
 57 0 l 1
 182 718 l 1
 311 718 l 1
 459 214 l 1xc0
555 923 m 1x20
 608 923 l 1
 581 843 544 803 498 803 c 0x20
 481 803 453 812 419 828 c 0
 401 836 391 839 383 839 c 0
 364 839 348 824 337 796 c 1
 285 796 l 1
 315 881 352 919 405 919 c 0x10
 421 919 429 916 461 900 c 0
 488 887 498 883 509 883 c 0
 530 883 544 895 555 923 c 1x20
EndSplineSet
EndChar

StartChar: Ocircumflex
Encoding: 289 212 182
Width: 638
Flags: MW
HStem: -19 127<300 363> 610 127<401 464.5> 790 146<313 535 313 535 510 535 432 603 510 510>
VStem: 88 126<220 308.5> 550 125<408 497.5>
LayerCount: 2
Fore
SplineSet
449 737 m 0
 511 737 568 714 610 672 c 0
 651 631 675 557 675 474 c 0
 675 342 632 198 568 114 c 0
 504 30 411 -19 315 -19 c 0
 175 -19 88 82 88 245 c 0
 88 372 133 522 196 604 c 0
 260 688 353 737 449 737 c 0
426 610 m 0
 362 610 301 567 264 493 c 0
 233 432 214 348 214 271 c 0
 214 169 261 108 339 108 c 0
 457 108 550 257 550 447 c 0
 550 548 503 610 426 610 c 0
535 936 m 1
 603 790 l 1
 510 790 l 1
 472 872 l 1
 406 790 l 1
 313 790 l 1
 432 936 l 1
 535 936 l 1
EndSplineSet
EndChar

StartChar: Otilde
Encoding: 290 213 183
Width: 638
Flags: W
HStem: -19 127<300 363> 610 127<401 464.5> 803 80<526.5 542.5 526.5 544> 839 80<401.5 410>
VStem: 88 126<220 308.5> 550 125<408 497.5>
LayerCount: 2
Fore
SplineSet
449 737 m 0xcc
 511 737 568 714 610 672 c 0
 651 631 675 557 675 474 c 0
 675 342 632 198 568 114 c 0
 504 30 411 -19 315 -19 c 0
 175 -19 88 82 88 245 c 0
 88 372 133 522 196 604 c 0
 260 688 353 737 449 737 c 0xcc
426 610 m 0
 362 610 301 567 264 493 c 0
 233 432 214 348 214 271 c 0
 214 169 261 108 339 108 c 0
 457 108 550 257 550 447 c 0
 550 548 503 610 426 610 c 0
578 923 m 1x2c
 631 923 l 1
 604 843 567 803 521 803 c 0x2c
 504 803 476 812 442 828 c 0
 424 836 414 839 406 839 c 0
 387 839 371 824 360 796 c 1
 308 796 l 1
 338 881 375 919 428 919 c 0x1c
 444 919 452 916 484 900 c 0
 511 887 521 883 532 883 c 0
 553 883 567 895 578 923 c 1x2c
EndSplineSet
EndChar

StartChar: multiply
Encoding: 401 215 294
Width: 479
Flags: W
LayerCount: 2
Fore
SplineSet
219 253 m 1
 107 426 l 1
 186 505 l 1
 297 332 l 1
 469 505 l 1
 520 426 l 1
 348 253 l 1
 461 80 l 1
 381 1 l 1
 270 174 l 1
 99 1 l 1
 47 80 l 1
 219 253 l 1
EndSplineSet
EndChar

StartChar: Oslash
Encoding: 233 216 140
Width: 638
Flags: MW
HStem: -19 127<315 363> 610 127<399.5 447>
VStem: 88 126<263.5 309 263.5 309.5> 549 126<409.5 455.5>
LayerCount: 2
Fore
SplineSet
733 707 m 1
 648 615 l 1
 669 563 675 530 675 473 c 0
 675 346 630 197 567 114 c 0
 503 30 410 -19 316 -19 c 0
 278 -19 241 -11 208 6 c 0
 182 19 167 31 140 63 c 1
 57 -27 l 1
 29 11 l 1
 115 104 l 1
 95 154 88 189 88 246 c 0
 88 373 133 522 196 604 c 1
 259 688 353 737 446 737 c 0
 483 737 520 729 552 713 c 0
 579 700 594 688 623 656 c 1
 705 745 l 1
 733 707 l 1
219 218 m 1
 526 551 l 1
 499 593 469 610 425 610 c 0
 362 610 299 564 264 493 c 1
 234 429 214 344 214 274 c 0
 214 253 215 242 219 218 c 1
543 501 m 1
 236 168 l 1
 262 126 293 108 337 108 c 0
 401 108 464 153 498 224 c 0
 530 289 549 373 549 444 c 0
 549 467 548 477 543 501 c 1
EndSplineSet
EndChar

StartChar: Ugrave
Encoding: 300 217 193
Width: 592
Flags: MW
HStem: -19 127<285 351 285 371> 698 20<185 310 310 310 534 659 659 659> 790 146<400 400 400 431 305 483>
VStem: 96 129<175 181.5>
LayerCount: 2
Fore
SplineSet
659 718 m 1
 578 251 l 2
 547 76 448 -19 294 -19 c 0
 167 -19 96 49 96 169 c 0
 96 194 98 218 102 242 c 2
 185 718 l 1
 310 718 l 1
 229 252 l 2
 227 237 225 220 225 208 c 0
 225 142 256 108 314 108 c 0
 388 108 436 155 451 245 c 2
 534 718 l 1
 659 718 l 1
400 790 m 1
 305 936 l 1
 431 936 l 1
 483 790 l 1
 400 790 l 1
EndSplineSet
EndChar

StartChar: Ucircumflex
Encoding: 301 219 194
Width: 592
Flags: MW
HStem: -19 127<285 351 285 371> 698 20<185 310 310 310 534 659 659 659> 790 146<290 512 290 512 487 512 409 580 487 487>
VStem: 96 129<175 181.5>
LayerCount: 2
Fore
SplineSet
659 718 m 1
 578 251 l 2
 547 76 448 -19 294 -19 c 0
 167 -19 96 49 96 169 c 0
 96 194 98 218 102 242 c 2
 185 718 l 1
 310 718 l 1
 229 252 l 2
 227 237 225 220 225 208 c 0
 225 142 256 108 314 108 c 0
 388 108 436 155 451 245 c 2
 534 718 l 1
 659 718 l 1
512 936 m 1
 580 790 l 1
 487 790 l 1
 449 872 l 1
 383 790 l 1
 290 790 l 1
 409 936 l 1
 512 936 l 1
EndSplineSet
EndChar

StartChar: Udieresis
Encoding: 298 220 191
Width: 592
Flags: MW
HStem: -19 127<285 351 285 371> 698 20<185 310 310 310 534 659 659 659> 800 115<325 408 305 428 325 465 485 568>
VStem: 96 129<175 181.5>
LayerCount: 2
Fore
SplineSet
659 718 m 1
 578 251 l 2
 547 76 448 -19 294 -19 c 0
 167 -19 96 49 96 169 c 0
 96 194 98 218 102 242 c 2
 185 718 l 1
 310 718 l 1
 229 252 l 2
 227 237 225 220 225 208 c 0
 225 142 256 108 314 108 c 0
 388 108 436 155 451 245 c 2
 534 718 l 1
 659 718 l 1
428 915 m 1
 408 800 l 1
 305 800 l 1
 325 915 l 1
 428 915 l 1
588 915 m 1
 568 800 l 1
 465 800 l 1
 485 915 l 1
 588 915 l 1
EndSplineSet
EndChar

StartChar: Yacute
Encoding: 304 221 197
Width: 547
Flags: MW
HStem: 0 20 698 20<137 282 282 282 521 661 661 661>
LayerCount: 2
Fore
SplineSet
385 269 m 1
 339 0 l 1
 215 0 l 1
 263 271 l 1
 137 718 l 1
 282 718 l 1
 350 406 l 1
 521 718 l 1
 661 718 l 1
 385 269 l 1
592 936 m 1
 446 790 l 1
 363 790 l 1
 466 936 l 1
 592 936 l 1
EndSplineSet
EndChar

StartChar: Thorn
Encoding: 391 222 284
Width: 547
Flags: MW
HStem: 0 20 159 124<234 349 349 354 213 349> 496 124<293 369 272 439> 698 20<187 310 310 310>
VStem: 463 125<414.5 449.5>
LayerCount: 2
Fore
SplineSet
62 0 m 1
 187 718 l 1
 310 718 l 1
 293 620 l 1
 439 620 l 2
 533 620 588 558 588 451 c 0
 588 378 562 301 520 245 c 0
 476 188 421 159 354 159 c 2
 213 159 l 1
 185 0 l 1
 62 0 l 1
234 283 m 1
 349 283 l 2
 393 283 424 301 443 337 c 0
 455 360 463 396 463 425 c 0
 463 474 433 496 369 496 c 2
 272 496 l 1
 234 283 l 1
EndSplineSet
EndChar

StartChar: germandbls
Encoding: 251 223 148
Width: 501
Flags: W
HStem: -14 115<267.5 293.5 267.5 309.5> 619 112<331 375>
VStem: 402 118<250.5 289> 421 118<545.5 576>
LayerCount: 2
Fore
SplineSet
228 -8 m 1xe0
 247 102 l 1
 250 102 l 1
 254 101 264 101 271 101 c 0
 316 101 350 118 373 152 c 0
 390 178 402 223 402 260 c 0xe0
 402 318 375 340 295 347 c 1
 312 444 l 1
 357 446 376 452 392 469 c 0
 409 487 421 522 421 556 c 0
 421 596 396 619 354 619 c 0
 308 619 273 585 264 530 c 2
 172 0 l 1
 57 0 l 1
 151 539 l 2
 171 656 259 731 377 731 c 0
 481 731 539 679 539 585 c 0xd0
 539 506 509 445 453 411 c 1
 502 377 520 344 520 285 c 0
 520 216 491 128 451 76 c 0
 407 17 345 -14 274 -14 c 0
 260 -14 252 -13 228 -8 c 1xe0
EndSplineSet
EndChar

StartChar: atilde
Encoding: 327 227 220
Width: 456
Flags: W
HStem: -14 100<122 236> 434 112<285.5 320> 617 80<402.5 418.5 402.5 420> 653 80<277.5 286> 717 20<454 507 507 507>
VStem: 45 118<118.5 155.5> 307 113<25.5 62> 361 117<370.5 463.5>
LayerCount: 2
Fore
SplineSet
211 360 m 1xc5
 101 360 l 1
 118 419 131 448 156 478 c 0
 194 524 248 546 323 546 c 0
 422 546 478 502 478 425 c 0xc5
 478 414 477 403 475 392 c 2
 425 104 l 2
 422 85 420 69 420 55 c 0
 420 37 425 27 436 21 c 1
 432 0 l 1
 308 0 l 1
 307 16 307 22 307 29 c 0xc2
 307 37 307 44 309 63 c 1
 254 7 213 -14 157 -14 c 0
 87 -14 45 29 45 101 c 0
 45 210 109 294 205 311 c 2
 312 330 l 2
 345 336 361 354 361 387 c 0
 361 419 341 434 299 434 c 0
 251 434 227 414 211 360 c 1xc5
328 191 m 2
 340 259 l 1
 322 246 304 239 257 230 c 0
 191 216 163 188 163 133 c 0
 163 104 180 86 208 86 c 0
 264 86 318 133 328 191 c 2
454 737 m 1x28
 507 737 l 1
 480 657 443 617 397 617 c 0x28
 380 617 352 626 318 642 c 0
 300 650 290 653 282 653 c 0
 263 653 247 638 236 610 c 1
 184 610 l 1
 214 695 251 733 304 733 c 0x10
 320 733 328 730 360 714 c 0
 387 701 397 697 408 697 c 0
 429 697 443 709 454 737 c 1x28
EndSplineSet
EndChar

StartChar: aring
Encoding: 328 229 221
Width: 456
Flags: W
HStem: -14 100<122 236> 434 112<285.5 320> 568 52 724 52
VStem: 45 47 45 118<118.5 155.5> 178 47 307 113<25.5 62> 361 117<370.5 463.5>
LayerCount: 2
Fore
SplineSet
211 360 m 1xf480
 101 360 l 1
 118 419 131 448 156 478 c 0
 194 524 248 546 323 546 c 0
 422 546 478 502 478 425 c 0xf480
 478 414 477 403 475 392 c 2
 425 104 l 2
 422 85 420 69 420 55 c 0
 420 37 425 27 436 21 c 1
 432 0 l 1
 308 0 l 1
 307 16 307 22 307 29 c 0xf1
 307 37 307 44 309 63 c 1
 254 7 213 -14 157 -14 c 0
 87 -14 45 29 45 101 c 0
 45 210 109 294 205 311 c 2
 312 330 l 2
 345 336 361 354 361 387 c 0
 361 419 341 434 299 434 c 0
 251 434 227 414 211 360 c 1xf480
328 191 m 2
 340 259 l 1
 322 246 304 239 257 230 c 0
 191 216 163 188 163 133 c 0
 163 104 180 86 208 86 c 0
 264 86 318 133 328 191 c 2
368 803 m 0xfa
 408 803 440 766 440 720 c 0
 440 657 386 595 332 595 c 0
 292 595 260 632 260 678 c 0
 260 741 314 803 368 803 c 0xfa
359 751 m 0
 332 751 307 721 307 688 c 0
 307 664 321 647 341 647 c 0
 368 647 393 677 393 710 c 0
 393 734 379 751 359 751 c 0
EndSplineSet
EndChar

StartChar: ae
Encoding: 241 230 143
Width: 729
Flags: W
HStem: -14 100<199.5 214> -14 112<496.5 523.5> 228 91<464 642 464 744 444 642> 431 115<572.5 593.5> 434 112<290.5 323>
VStem: 46 118<118.5 144.5 118.5 156> 643 114<344 371>
LayerCount: 2
Fore
SplineSet
608 156 m 1x76
 726 156 l 1
 696 90 673 59 632 29 c 0
 592 0 549 -14 498 -14 c 0x46
 423 -14 386 8 357 72 c 1
 314 15 252 -14 176 -14 c 0
 91 -14 46 27 46 105 c 0
 46 207 102 284 187 301 c 2
 299 323 l 2
 333 330 347 335 355 345 c 0
 362 353 368 374 368 393 c 0
 368 419 344 434 302 434 c 0
 252 434 225 411 215 359 c 1
 102 359 l 1
 117 414 130 442 155 473 c 0
 193 520 254 546 327 546 c 0x8e
 385 546 421 529 456 487 c 1
 511 531 547 546 598 546 c 0
 699 546 757 474 757 351 c 0
 757 319 754 286 748 253 c 2
 744 228 l 1
 444 228 l 1
 443 213 442 197 442 188 c 0
 442 131 471 98 522 98 c 0
 561 98 591 118 608 156 c 1x76
332 188 m 1xb6
 343 255 l 1
 328 241 309 235 253 225 c 0
 214 218 199 211 186 197 c 0
 173 182 164 156 164 133 c 0
 164 104 184 86 215 86 c 0
 268 86 322 134 332 188 c 1xb6
464 319 m 1
 642 319 l 1
 643 344 l 1
 643 398 616 431 571 431 c 0
 520 431 487 396 464 319 c 1
EndSplineSet
EndChar

StartChar: ccedilla
Encoding: 332 231 225
Width: 456
Flags: MW
HStem: -228 57<157 175.5 157 199> 428 118<294.5 334.5>
VStem: 65 120<161 218 161 221> 210 78<-136.5 -116>
LayerCount: 2
Fore
SplineSet
234 -14 m 1
 204 -55 l 1
 214 -52 221 -51 228 -51 c 0
 264 -51 288 -76 288 -111 c 0
 288 -176 233 -228 165 -228 c 0
 138 -228 119 -223 78 -203 c 1
 104 -155 l 1
 133 -166 151 -171 163 -171 c 0
 188 -171 210 -149 210 -124 c 0
 210 -108 199 -96 184 -96 c 0
 176 -96 165 -99 150 -104 c 1
 136 -84 l 1
 188 -11 l 1
 169 -7 154 -2 140 6 c 0
 92 32 65 91 65 170 c 0
 65 272 99 386 150 453 c 0
 196 514 258 546 329 546 c 0
 427 546 491 483 491 385 c 0
 491 374 490 358 489 342 c 1
 373 342 l 1
 372 402 355 428 314 428 c 0
 275 428 245 406 222 361 c 0
 200 320 185 247 185 189 c 0
 185 133 209 101 251 101 c 0
 294 101 332 138 346 194 c 1
 463 194 l 1
 427 67 341 -12 234 -14 c 1
EndSplineSet
EndChar

StartChar: egrave
Encoding: 336 232 229
Width: 456
Flags: MW
HStem: -14 112<225.5 254> 228 91<193 371 193 473 174 371> 431 115<276 322> 604 146<298 298 298 329 203 381>
VStem: 58 113<160 193 160 219> 372 114<345 371.5>
LayerCount: 2
Fore
SplineSet
337 156 m 1
 455 156 l 1
 425 90 402 59 361 29 c 0
 322 0 278 -14 230 -14 c 0
 118 -14 58 53 58 179 c 0
 58 259 77 341 110 404 c 0
 158 497 231 546 321 546 c 0
 428 546 486 477 486 351 c 0
 486 319 483 286 477 253 c 2
 473 228 l 1
 174 228 l 1
 172 213 171 197 171 189 c 0
 171 131 200 98 251 98 c 0
 290 98 319 118 337 156 c 1
193 319 m 1
 371 319 l 1
 372 345 l 1
 372 398 344 431 300 431 c 0
 249 431 216 397 193 319 c 1
298 604 m 1
 203 750 l 1
 329 750 l 1
 381 604 l 1
 298 604 l 1
EndSplineSet
EndChar

StartChar: ecircumflex
Encoding: 337 234 230
Width: 456
Flags: MW
HStem: -14 112<225.5 254> 228 91<193 371 193 473 174 371> 431 115<276 322> 604 146<189 411 189 411 386 411 308 479 386 386>
VStem: 58 113<160 193 160 219> 372 114<345 371.5>
LayerCount: 2
Fore
SplineSet
337 156 m 1
 455 156 l 1
 425 90 402 59 361 29 c 0
 322 0 278 -14 230 -14 c 0
 118 -14 58 53 58 179 c 0
 58 259 77 341 110 404 c 0
 158 497 231 546 321 546 c 0
 428 546 486 477 486 351 c 0
 486 319 483 286 477 253 c 2
 473 228 l 1
 174 228 l 1
 172 213 171 197 171 189 c 0
 171 131 200 98 251 98 c 0
 290 98 319 118 337 156 c 1
193 319 m 1
 371 319 l 1
 372 345 l 1
 372 398 344 431 300 431 c 0
 249 431 216 397 193 319 c 1
411 750 m 1
 479 604 l 1
 386 604 l 1
 348 686 l 1
 282 604 l 1
 189 604 l 1
 308 750 l 1
 411 750 l 1
EndSplineSet
EndChar

StartChar: igrave
Encoding: 344 236 237
Width: 228
Flags: MW
HStem: 0 20 512 20<150 264 264 264> 604 146<185 185 185 216 90 268>
LayerCount: 2
Fore
SplineSet
150 532 m 1
 264 532 l 1
 171 0 l 1
 57 0 l 1
 150 532 l 1
185 604 m 1
 90 750 l 1
 216 750 l 1
 268 604 l 1
 185 604 l 1
EndSplineSet
EndChar

StartChar: icircumflex
Encoding: 345 238 238
Width: 228
Flags: MW
HStem: 0 20 512 20<150 264 264 264> 604 146<75 297 75 297 272 297 194 365 272 272>
LayerCount: 2
Fore
SplineSet
150 532 m 1
 264 532 l 1
 171 0 l 1
 57 0 l 1
 150 532 l 1
297 750 m 1
 365 604 l 1
 272 604 l 1
 234 686 l 1
 168 604 l 1
 75 604 l 1
 194 750 l 1
 297 750 l 1
EndSplineSet
EndChar

StartChar: idieresis
Encoding: 342 239 235
Width: 228
Flags: MW
HStem: 0 20 512 20<150 264 264 264> 614 115<110 193 90 213 110 250 270 353>
LayerCount: 2
Fore
SplineSet
150 532 m 1
 264 532 l 1
 172 0 l 1
 57 0 l 1
 150 532 l 1
213 729 m 1
 193 614 l 1
 90 614 l 1
 110 729 l 1
 213 729 l 1
373 729 m 1
 353 614 l 1
 250 614 l 1
 270 729 l 1
 373 729 l 1
EndSplineSet
EndChar

StartChar: eth
Encoding: 393 240 286
Width: 501
Flags: MW
HStem: -14 118<243 285.5> 405 118<285 342 250.5 348.5> 524 20<260 260> 717 20<359 359 507 507>
VStem: 67 119<176 264 176 280> 405 129<281.5 436>
LayerCount: 2
Fore
SplineSet
549 685 m 1
 459 641 l 1
 513 554 534 484 534 388 c 0
 534 279 499 163 444 91 c 0
 392 23 323 -14 248 -14 c 0
 136 -14 67 64 67 189 c 0
 67 371 182 523 319 523 c 0
 365 523 393 506 417 460 c 1
 406 510 390 545 356 591 c 1
 260 544 l 1
 217 596 l 1
 314 643 l 1
 293 664 277 678 262 688 c 1
 359 737 l 1
 381 724 397 712 416 693 c 1
 507 737 l 1
 549 685 l 1
323 405 m 0
 247 405 186 318 186 210 c 0
 186 142 216 104 270 104 c 0
 313 104 349 130 374 177 c 1
 393 216 405 262 405 301 c 0
 405 366 374 405 323 405 c 0
EndSplineSet
EndChar

StartChar: ntilde
Encoding: 350 241 243
Width: 501
Flags: W
HStem: 0 20 428 118<306 430> 512 20<146 256 256 256> 617 80<424.5 440.5 424.5 442> 653 80<299.5 308> 717 20<476 529 529 529>
VStem: 394 122<363 454.5>
LayerCount: 2
Fore
SplineSet
256 532 m 1xa2
 242 451 l 1
 288 519 330 546 391 546 c 0
 469 546 516 496 516 413 c 0
 516 399 515 384 512 368 c 2
 448 0 l 1
 333 0 l 1
 389 323 l 2
 392 341 394 358 394 368 c 0
 394 406 372 428 334 428 c 0xc2
 278 428 234 381 221 305 c 2
 168 0 l 1
 53 0 l 1
 146 532 l 1
 256 532 l 1xa2
476 737 m 1x16
 529 737 l 1
 502 657 465 617 419 617 c 0x16
 402 617 374 626 340 642 c 0
 322 650 312 653 304 653 c 0
 285 653 269 638 258 610 c 1
 206 610 l 1
 236 695 273 733 326 733 c 0x0a
 342 733 350 730 382 714 c 0
 409 701 419 697 430 697 c 0
 451 697 465 709 476 737 c 1x16
EndSplineSet
EndChar

StartChar: otilde
Encoding: 355 245 248
Width: 501
Flags: W
HStem: -14 118<241.5 286.5> 428 118<302 351.5> 617 80<424.5 440.5 424.5 442> 653 80<299.5 308> 717 20<476 529 529 529>
VStem: 67 119<174.5 232.5 174.5 290.5> 407 120<300 358>
LayerCount: 2
Fore
SplineSet
346 546 m 0xc6
 458 546 527 468 527 342 c 0
 527 252 495 152 448 90 c 0
 397 23 325 -14 248 -14 c 0
 136 -14 67 64 67 190 c 0
 67 391 189 546 346 546 c 0xc6
324 428 m 0
 280 428 243 403 220 355 c 1
 200 316 186 256 186 209 c 0
 186 140 214 104 269 104 c 0
 313 104 350 129 374 177 c 0
 394 216 407 276 407 324 c 0
 407 392 379 428 324 428 c 0
476 737 m 1x2e
 529 737 l 1
 502 657 465 617 419 617 c 0x2e
 402 617 374 626 340 642 c 0
 322 650 312 653 304 653 c 0
 285 653 269 638 258 610 c 1
 206 610 l 1
 236 695 273 733 326 733 c 0x16
 342 733 350 730 382 714 c 0
 409 701 419 697 430 697 c 0
 451 697 465 709 476 737 c 1x2e
EndSplineSet
EndChar

StartChar: odieresis
Encoding: 351 246 244
Width: 501
Flags: MW
HStem: -14 118<241.5 286.5> 428 118<302 351.5> 614 115<246 329 226 349 246 386 406 489>
VStem: 67 119<174.5 232.5 174.5 290.5> 407 120<300 358>
LayerCount: 2
Fore
SplineSet
346 546 m 0
 458 546 527 468 527 342 c 0
 527 252 495 152 448 90 c 0
 397 23 325 -14 248 -14 c 0
 136 -14 67 64 67 190 c 0
 67 391 189 546 346 546 c 0
324 428 m 0
 280 428 243 403 220 355 c 1
 200 316 186 256 186 209 c 0
 186 140 214 104 269 104 c 0
 313 104 350 129 374 177 c 0
 394 216 407 276 407 324 c 0
 407 392 379 428 324 428 c 0
349 729 m 1
 329 614 l 1
 226 614 l 1
 246 729 l 1
 349 729 l 1
509 729 m 1
 489 614 l 1
 386 614 l 1
 406 729 l 1
 509 729 l 1
EndSplineSet
EndChar

StartChar: divide
Encoding: 402 247 295
Width: 479
Flags: MW
HStem: 197 112<87 480 67 500> 528 20<313 352.5>
LayerCount: 2
Fore
SplineSet
480 197 m 1
 67 197 l 1
 87 309 l 1
 500 309 l 1
 480 197 l 1
336 548 m 0
 369 548 394 517 394 476 c 0
 394 425 348 371 305 371 c 0
 272 371 246 401 246 441 c 0
 246 496 290 548 336 548 c 0
264 135 m 0
 297 135 322 104 322 63 c 0
 322 12 276 -42 233 -42 c 0
 200 -42 174 -11 174 28 c 0
 174 83 218 135 264 135 c 0
EndSplineSet
EndChar

StartChar: oslash
Encoding: 249 248 146
Width: 501
Flags: MW
HStem: -14 118<252.5 286.5> 428 118<307.5 341.5>
VStem: 67 120<205.5 229 205.5 235> 407 120<303.5 326.5>
LayerCount: 2
Fore
SplineSet
575 528 m 1
 504 454 l 1
 521 413 527 386 527 341 c 0
 527 253 495 152 448 90 c 0
 397 23 325 -14 248 -14 c 0
 191 -14 151 3 113 44 c 1
 44 -29 l 1
 18 0 l 1
 91 77 l 1
 73 118 67 147 67 191 c 0
 67 279 99 381 146 442 c 0
 198 509 269 546 346 546 c 0
 403 546 443 529 483 487 c 1
 552 560 l 1
 575 528 l 1
406 351 m 1
 203 138 l 1
 218 114 237 104 268 104 c 0
 320 104 358 135 383 197 c 0
 397 234 407 285 407 322 c 0
 407 331 407 337 406 351 c 1
189 179 m 1
 393 393 l 1
 376 418 357 428 326 428 c 0
 274 428 236 397 211 335 c 0
 197 299 187 248 187 210 c 0
 187 201 188 194 189 179 c 1
EndSplineSet
EndChar

StartChar: udieresis
Encoding: 362 252 255
Width: 501
Flags: MW
HStem: -14 118<161 288> 512 20<147 262 262 262 425 540 540 540> 614 115<246 329 226 349 246 386 406 489>
VStem: 80 121<77 174>
LayerCount: 2
Fore
SplineSet
540 532 m 1
 447 0 l 1
 337 0 l 1
 351 78 l 1
 306 13 262 -14 199 -14 c 0
 123 -14 80 34 80 120 c 0
 80 140 82 161 85 182 c 2
 147 532 l 1
 262 532 l 1
 204 202 l 2
 202 191 201 180 201 168 c 0
 201 126 221 104 260 104 c 0
 316 104 358 150 371 225 c 2
 425 532 l 1
 540 532 l 1
349 729 m 1
 329 614 l 1
 226 614 l 1
 246 729 l 1
 349 729 l 1
509 729 m 1
 489 614 l 1
 386 614 l 1
 406 729 l 1
 509 729 l 1
EndSplineSet
EndChar

StartChar: yacute
Encoding: 368 253 261
Width: 456
Flags: MW
HStem: -214 112<82.5 102 73.5 135.5> 512 20<101 229 229 229 413 535 535 535>
LayerCount: 2
Fore
SplineSet
535 532 m 1
 293 9 l 2
 198 -197 183 -214 88 -214 c 0
 77 -214 61 -213 34 -212 c 1
 54 -100 l 1
 61 -101 69 -102 78 -102 c 0
 126 -102 143 -87 165 -22 c 1
 101 532 l 1
 229 532 l 1
 254 136 l 1
 413 532 l 1
 535 532 l 1
515 750 m 1
 369 604 l 1
 286 604 l 1
 389 750 l 1
 515 750 l 1
EndSplineSet
EndChar

StartChar: thorn
Encoding: 394 254 287
Width: 501
Flags: MW
HStem: -207 20 -14 115<258 297 253.5 318> 425 121<312 431> 698 20<176 291 291 291>
VStem: 407 122<306.5 355>
LayerCount: 2
Fore
SplineSet
178 71 m 1
 130 -207 l 1
 15 -207 l 1
 176 718 l 1
 291 718 l 1
 246 461 l 1
 291 522 331 546 387 546 c 0
 475 546 529 474 529 358 c 0
 529 255 495 143 443 73 c 0
 400 15 348 -14 288 -14 c 0
 228 -14 198 10 178 71 c 1
332 425 m 0
 292 425 258 401 237 357 c 0
 215 312 201 252 201 202 c 0
 201 138 229 101 278 101 c 0
 316 101 349 126 373 174 c 0
 394 217 407 272 407 321 c 0
 407 389 381 425 332 425 c 0
EndSplineSet
EndChar

StartChar: ydieresis
Encoding: 372 255 265
Width: 456
Flags: MW
HStem: -214 112<82.5 102 73.5 135.5> 512 20<101 229 229 229 413 535 535 535> 614 115<224 307 204 327 224 364 384 467>
LayerCount: 2
Fore
SplineSet
535 532 m 1
 293 9 l 2
 198 -197 183 -214 88 -214 c 0
 77 -214 61 -213 34 -212 c 1
 54 -100 l 1
 61 -101 69 -102 78 -102 c 0
 126 -102 143 -87 165 -22 c 1
 101 532 l 1
 229 532 l 1
 254 136 l 1
 413 532 l 1
 535 532 l 1
327 729 m 1
 307 614 l 1
 204 614 l 1
 224 729 l 1
 327 729 l 1
487 729 m 1
 467 614 l 1
 364 614 l 1
 384 729 l 1
 487 729 l 1
EndSplineSet
EndChar

StartChar: Amacron
Encoding: 308 256 201
Width: 592
Flags: MW
HStem: 0 20 148 124<213 417 267 417 267 430> 698 20<352 494 494 494> 790 74<305 575 292 588>
LayerCount: 2
Fore
SplineSet
213 148 m 1
 146 0 l 1
 16 0 l 1
 352 718 l 1
 494 718 l 1
 576 0 l 1
 442 0 l 1
 430 148 l 1
 213 148 l 1
394 559 m 1
 267 272 l 1
 417 272 l 1
 394 559 l 1
588 864 m 1
 575 790 l 1
 292 790 l 1
 305 864 l 1
 588 864 l 1
EndSplineSet
EndChar

StartChar: amacron
Encoding: 374 257 267
Width: 456
Flags: W
HStem: -14 100<122 236> 434 112<285.5 320> 604 74<205 475 192 488>
VStem: 45 118<118.5 155.5> 307 113<25.5 62> 361 117<370.5 463.5>
LayerCount: 2
Fore
SplineSet
211 360 m 1xf4
 101 360 l 1
 118 419 131 448 156 478 c 0
 194 524 248 546 323 546 c 0
 422 546 478 502 478 425 c 0xf4
 478 414 477 403 475 392 c 2
 425 104 l 2
 422 85 420 69 420 55 c 0
 420 37 425 27 436 21 c 1
 432 0 l 1
 308 0 l 1
 307 16 307 22 307 29 c 0xe8
 307 37 307 44 309 63 c 1
 254 7 213 -14 157 -14 c 0
 87 -14 45 29 45 101 c 0
 45 210 109 294 205 311 c 2
 312 330 l 2
 345 336 361 354 361 387 c 0
 361 419 341 434 299 434 c 0
 251 434 227 414 211 360 c 1xf4
328 191 m 2
 340 259 l 1
 322 246 304 239 257 230 c 0
 191 216 163 188 163 133 c 0
 163 104 180 86 208 86 c 0
 264 86 318 133 328 191 c 2
488 678 m 1xe0
 475 604 l 1
 192 604 l 1
 205 678 l 1
 488 678 l 1xe0
EndSplineSet
EndChar

StartChar: Abreve
Encoding: 260 258 153
Width: 592
Flags: MW
HStem: 0 20 148 124<213 417 267 417 267 430> 698 20<352 494 494 494> 790 76<421.5 471>
VStem: 16 55
LayerCount: 2
Fore
SplineSet
213 148 m 1
 146 0 l 1
 16 0 l 1
 352 718 l 1
 494 718 l 1
 576 0 l 1
 442 0 l 1
 430 148 l 1
 213 148 l 1
394 559 m 1
 267 272 l 1
 417 272 l 1
 394 559 l 1
544 936 m 1
 597 936 l 1
 570 839 513 790 429 790 c 0
 359 790 320 832 320 908 c 0
 320 914 320 924 321 936 c 1
 375 936 l 1
 375 930 l 2
 375 885 396 866 447 866 c 0
 500 866 524 883 544 936 c 1
EndSplineSet
EndChar

StartChar: abreve
Encoding: 326 259 219
Width: 456
Flags: W
HStem: -14 100<122 236> 434 112<285.5 320> 604 76<320.5 370>
VStem: 45 55 45 118<118.5 155.5> 307 113<25.5 62> 361 117<370.5 463.5>
LayerCount: 2
Fore
SplineSet
211 360 m 1xea
 101 360 l 1
 118 419 131 448 156 478 c 0
 194 524 248 546 323 546 c 0
 422 546 478 502 478 425 c 0xea
 478 414 477 403 475 392 c 2
 425 104 l 2
 422 85 420 69 420 55 c 0
 420 37 425 27 436 21 c 1
 432 0 l 1
 308 0 l 1
 307 16 307 22 307 29 c 0xe4
 307 37 307 44 309 63 c 1
 254 7 213 -14 157 -14 c 0
 87 -14 45 29 45 101 c 0
 45 210 109 294 205 311 c 2
 312 330 l 2
 345 336 361 354 361 387 c 0
 361 419 341 434 299 434 c 0
 251 434 227 414 211 360 c 1xea
328 191 m 2
 340 259 l 1
 322 246 304 239 257 230 c 0
 191 216 163 188 163 133 c 0
 163 104 180 86 208 86 c 0
 264 86 318 133 328 191 c 2
443 750 m 1xf0
 496 750 l 1
 469 653 412 604 328 604 c 0
 258 604 219 646 219 722 c 0
 219 728 219 738 220 750 c 1
 274 750 l 1
 274 744 l 2
 274 699 295 680 346 680 c 0
 399 680 423 697 443 750 c 1xf0
EndSplineSet
EndChar

StartChar: Aogonek
Encoding: 263 260 156
Width: 592
Flags: MW
HStem: -228 56<493.5 494.5> 148 124<267 417 267 430 213 417> 698 20<352 494 494 494>
VStem: 393 79<-146.5 -133>
LayerCount: 2
Fore
SplineSet
430 148 m 1
 213 148 l 1
 146 0 l 1
 16 0 l 1
 352 718 l 1
 494 718 l 1
 576 0 l 1
 511 -46 472 -97 472 -136 c 0
 472 -157 485 -172 502 -172 c 0
 517 -172 541 -166 567 -155 c 1
 573 -204 l 1
 529 -222 508 -228 481 -228 c 0
 429 -228 393 -197 393 -151 c 0
 393 -115 413 -71 445 -40 c 0
 463 -23 472 -17 507 0 c 1
 442 0 l 1
 430 148 l 1
394 559 m 1
 267 272 l 1
 417 272 l 1
 394 559 l 1
EndSplineSet
EndChar

StartChar: aogonek
Encoding: 329 261 222
Width: 456
Flags: W
HStem: -228 56<349.5 350.5> -14 100<122 236> 434 112<285.5 320>
VStem: 45 118<118.5 155.5> 249 79<-146.5 -133> 307 113<25.5 62> 361 117<370.5 463.5>
LayerCount: 2
Fore
SplineSet
436 21 m 1xe4
 432 0 l 1
 368 -46 328 -97 328 -136 c 0
 328 -157 341 -172 358 -172 c 0
 373 -172 396 -166 423 -155 c 1
 429 -204 l 1
 386 -222 364 -228 337 -228 c 0
 285 -228 249 -197 249 -151 c 0xf8
 249 -115 269 -71 301 -40 c 0
 319 -23 328 -17 363 0 c 1
 308 0 l 1
 307 16 307 22 307 29 c 0xe4
 307 37 307 44 309 63 c 1
 254 7 213 -14 157 -14 c 0
 87 -14 45 29 45 101 c 0
 45 210 109 294 205 311 c 2
 312 330 l 2
 345 336 361 354 361 387 c 0
 361 419 341 434 299 434 c 0
 251 434 227 414 211 360 c 1
 101 360 l 1
 118 419 131 448 156 478 c 0
 194 524 248 546 323 546 c 0
 422 546 478 502 478 425 c 0xf2
 478 414 477 403 475 392 c 2
 425 104 l 2
 422 85 420 69 420 55 c 0
 420 37 425 27 436 21 c 1xe4
328 191 m 2
 340 259 l 1
 322 246 304 239 257 230 c 0
 191 216 163 188 163 133 c 0
 163 104 180 86 208 86 c 0
 264 86 318 133 328 191 c 2
EndSplineSet
EndChar

StartChar: Cacute
Encoding: 265 262 158
Width: 592
Flags: MW
HStem: -19 130<291.5 342> 607 130<391.5 438.5>
VStem: 88 128<216.5 308.5>
LayerCount: 2
Fore
SplineSet
646 483 m 1
 522 483 l 1
 520 522 517 538 506 559 c 0
 491 589 459 607 418 607 c 0
 365 607 319 579 283 524 c 0
 244 464 216 359 216 266 c 0
 216 167 256 111 327 111 c 0
 370 111 409 130 439 167 c 0
 456 188 465 205 481 246 c 1
 604 246 l 1
 573 161 550 120 508 74 c 0
 453 14 381 -19 303 -19 c 0
 242 -19 188 2 152 39 c 0
 113 80 88 158 88 241 c 0
 88 376 132 521 199 609 c 0
 263 693 345 737 438 737 c 0
 563 737 647 650 647 519 c 0
 647 510 647 499 646 483 c 1
615 936 m 1
 469 790 l 1
 386 790 l 1
 489 936 l 1
 615 936 l 1
EndSplineSet
EndChar

StartChar: Ccaron
Encoding: 266 268 159
Width: 592
Flags: MW
HStem: -19 130<291.5 342> 607 130<391.5 438.5> 790 146<403 428 335 505 403 403>
VStem: 88 128<216.5 308.5>
LayerCount: 2
Fore
SplineSet
646 483 m 1
 522 483 l 1
 520 522 517 538 506 559 c 0
 491 589 459 607 418 607 c 0
 365 607 319 579 283 524 c 0
 244 464 216 359 216 266 c 0
 216 167 256 111 327 111 c 0
 370 111 409 130 439 167 c 0
 456 188 465 205 481 246 c 1
 604 246 l 1
 573 161 550 120 508 74 c 0
 453 14 381 -19 303 -19 c 0
 242 -19 188 2 152 39 c 0
 113 80 88 158 88 241 c 0
 88 376 132 521 199 609 c 0
 263 693 345 737 438 737 c 0
 563 737 647 650 647 519 c 0
 647 510 647 499 646 483 c 1
624 936 m 1
 505 790 l 1
 403 790 l 1
 335 936 l 1
 428 936 l 1
 465 854 l 1
 531 936 l 1
 624 936 l 1
EndSplineSet
EndChar

StartChar: Dcaron
Encoding: 267 270 160
Width: 592
Flags: MW
HStem: 0 124<204 317> 594 124<286 286 286 405> 790 146<363 388 295 465 363 363>
VStem: 509 128<421.5 507>
LayerCount: 2
Fore
SplineSet
62 0 m 1
 187 718 l 1
 448 718 l 2
 502 718 551 700 581 668 c 0
 615 633 637 561 637 486 c 0
 637 352 593 206 524 114 c 0
 467 37 399 0 317 0 c 2
 62 0 l 1
286 594 m 1
 204 124 l 1
 324 124 l 2
 376 124 422 158 455 223 c 0
 488 287 509 381 509 462 c 0
 509 552 476 594 405 594 c 2
 286 594 l 1
584 936 m 1
 465 790 l 1
 363 790 l 1
 295 936 l 1
 388 936 l 1
 425 854 l 1
 491 936 l 1
 584 936 l 1
EndSplineSet
EndChar

StartChar: dcaron
Encoding: 333 271 226
Width: 561
Flags: W
HStem: -14 115<235.5 237.5> 425 121<298 333 239 342.5> 611 107<603 640 462 584> 698 20<462 577 577 577 603 701 701 701>
VStem: 67 120<174 233 174 281.5>
LayerCount: 2
Fore
SplineSet
577 718 m 1xd8
 452 0 l 1
 339 0 l 1
 352 70 l 1
 312 12 267 -14 208 -14 c 0
 119 -14 67 57 67 180 c 0
 67 383 173 546 305 546 c 0
 361 546 393 521 417 460 c 1
 462 718 l 1
 577 718 l 1xd8
318 425 m 0
 278 425 244 400 221 355 c 0
 201 315 187 257 187 209 c 0
 187 139 212 101 259 101 c 0
 335 101 393 196 393 321 c 0
 393 390 367 425 318 425 c 0
603 718 m 1x28
 701 718 l 1
 684 623 l 1
 675 545 624 486 561 480 c 1
 569 523 l 1
 607 531 635 565 640 611 c 1
 584 611 l 1
 603 718 l 1x28
EndSplineSet
EndChar

StartChar: dcroat
Encoding: 392 273 285
Width: 501
Flags: MW
HStem: -14 115<235.5 237.5> 425 121<298 333 239 342.5> 596 67<336 441 324 452 567 605> 698 20<462 577 577 577>
VStem: 67 120<174 233 174 281.5>
LayerCount: 2
Fore
SplineSet
567 663 m 1
 617 663 l 1
 605 596 l 1
 556 596 l 1
 452 0 l 1
 339 0 l 1
 352 70 l 1
 312 12 267 -14 208 -14 c 0
 119 -14 67 57 67 180 c 0
 67 383 173 546 305 546 c 0
 361 546 393 521 417 460 c 1
 441 596 l 1
 324 596 l 1
 336 663 l 1
 452 663 l 1
 462 718 l 1
 577 718 l 1
 567 663 l 1
318 425 m 0
 278 425 244 400 221 355 c 0
 201 315 187 257 187 209 c 0
 187 139 212 101 259 101 c 0
 335 101 393 196 393 321 c 0
 393 390 367 425 318 425 c 0
EndSplineSet
EndChar

StartChar: Emacron
Encoding: 311 274 204
Width: 547
Flags: MW
HStem: 0 127<205 509> 313 127<259 524 237 546> 591 127<285 598 285 285> 790 74<282 552 269 565>
LayerCount: 2
Fore
SplineSet
620 718 m 1
 598 591 l 1
 285 591 l 1
 259 440 l 1
 546 440 l 1
 524 313 l 1
 237 313 l 1
 205 127 l 1
 531 127 l 1
 509 0 l 1
 62 0 l 1
 187 718 l 1
 620 718 l 1
565 864 m 1
 552 790 l 1
 269 790 l 1
 282 864 l 1
 565 864 l 1
EndSplineSet
EndChar

StartChar: Ebreve
Encoding: 628 276 521
Width: 547
Flags: W
HStem: 0 127<205 509> 313 127<259 524 237 546> 591 127<285 598 285 285> 818 76<416.5 466>
VStem: 315 55<935.5 939> 316 54<935.5 964>
LayerCount: 2
Fore
SplineSet
539 964 m 1xf8
 592 964 l 1
 565 867 508 818 424 818 c 0
 354 818 315 860 315 936 c 0xf8
 315 942 315 952 316 964 c 1xf4
 370 964 l 1
 370 958 l 2
 370 913 391 894 442 894 c 0
 495 894 519 911 539 964 c 1xf8
620 718 m 1
 598 591 l 1
 285 591 l 1
 259 440 l 1
 546 440 l 1
 524 313 l 1
 237 313 l 1
 205 127 l 1
 531 127 l 1
 509 0 l 1
 62 0 l 1
 187 718 l 1
 620 718 l 1
EndSplineSet
EndChar

StartChar: ebreve
Encoding: 629 277 522
Width: 456
Flags: W
HStem: -14 112<225.5 254> 228 91<193 371 193 473 174 371> 431 115<276 322> 632 76<328.5 378>
VStem: 58 113<160 193 160 219> 227 55<749.5 753> 228 54<749.5 778> 372 114<345 371.5>
LayerCount: 2
Fore
SplineSet
451 778 m 1xfd
 504 778 l 1
 477 681 420 632 336 632 c 0
 266 632 227 674 227 750 c 0xfd
 227 756 227 766 228 778 c 1xfb
 282 778 l 1
 282 772 l 2
 282 727 303 708 354 708 c 0
 407 708 431 725 451 778 c 1xfd
337 156 m 1
 455 156 l 1
 425 90 402 59 361 29 c 0
 322 0 278 -14 230 -14 c 0
 118 -14 58 53 58 179 c 0
 58 259 77 341 110 404 c 0
 158 497 231 546 321 546 c 0
 428 546 486 477 486 351 c 0
 486 319 483 286 477 253 c 2
 473 228 l 1
 174 228 l 1
 172 213 171 197 171 189 c 0
 171 131 200 98 251 98 c 0
 290 98 319 118 337 156 c 1
193 319 m 1
 371 319 l 1
 372 345 l 1
 372 398 344 431 300 431 c 0
 249 431 216 397 193 319 c 1
EndSplineSet
EndChar

StartChar: Edotaccent
Encoding: 273 278 166
Width: 547
Flags: MW
HStem: 0 127<205 509> 313 127<259 524 237 546> 591 127<285 598 285 285> 800 115<381 465 361 485>
LayerCount: 2
Fore
SplineSet
620 718 m 1
 598 591 l 1
 285 591 l 1
 259 440 l 1
 546 440 l 1
 524 313 l 1
 237 313 l 1
 205 127 l 1
 531 127 l 1
 509 0 l 1
 62 0 l 1
 187 718 l 1
 620 718 l 1
485 915 m 1
 465 800 l 1
 361 800 l 1
 381 915 l 1
 485 915 l 1
EndSplineSet
EndChar

StartChar: edotaccent
Encoding: 339 279 232
Width: 456
Flags: MW
HStem: -14 112<225.5 254> 228 91<193 371 193 473 174 371> 431 115<276 322> 614 115<304 388 284 408>
VStem: 58 113<160 193 160 219> 372 114<345 371.5>
LayerCount: 2
Fore
SplineSet
337 156 m 1
 455 156 l 1
 425 90 402 59 361 29 c 0
 322 0 278 -14 230 -14 c 0
 118 -14 58 53 58 179 c 0
 58 259 77 341 110 404 c 0
 158 497 231 546 321 546 c 0
 428 546 486 477 486 351 c 0
 486 319 483 286 477 253 c 2
 473 228 l 1
 174 228 l 1
 172 213 171 197 171 189 c 0
 171 131 200 98 251 98 c 0
 290 98 319 118 337 156 c 1
193 319 m 1
 371 319 l 1
 372 345 l 1
 372 398 344 431 300 431 c 0
 249 431 216 397 193 319 c 1
408 729 m 1
 388 614 l 1
 284 614 l 1
 304 729 l 1
 408 729 l 1
EndSplineSet
EndChar

StartChar: Eogonek
Encoding: 274 280 167
Width: 547
Flags: MW
HStem: -228 56<426.5 427.5> 0 127<205 440 509 509> 313 127<259 524 237 546> 591 127<285 598 285 285>
VStem: 326 79<-146.5 -133>
LayerCount: 2
Fore
SplineSet
620 718 m 1
 598 591 l 1
 285 591 l 1
 259 440 l 1
 546 440 l 1
 524 313 l 1
 237 313 l 1
 205 127 l 1
 531 127 l 1
 509 0 l 1
 444 -46 405 -97 405 -136 c 0
 405 -157 418 -172 435 -172 c 0
 450 -172 473 -166 500 -155 c 1
 506 -204 l 1
 462 -222 441 -228 414 -228 c 0
 362 -228 326 -197 326 -151 c 0
 326 -115 346 -71 378 -40 c 0
 395 -24 406 -17 440 0 c 1
 62 0 l 1
 187 718 l 1
 620 718 l 1
EndSplineSet
EndChar

StartChar: eogonek
Encoding: 340 281 233
Width: 456
Flags: W
HStem: -228 56<264.5 265.5> -14 112<225.5 233> 228 91<193 371 193 473 174 371> 431 115<276 322>
VStem: 58 113<160 193 160 219.5> 164 79<-146.5 -125.5> 372 114<345 371.5>
LayerCount: 2
Fore
SplineSet
473 228 m 1xfa
 174 228 l 1
 172 213 171 197 171 189 c 0xfa
 171 131 200 98 251 98 c 0
 290 98 319 118 337 156 c 1
 455 156 l 1
 425 91 414 76 342 5 c 0
 268 -67 243 -102 243 -136 c 0
 243 -157 256 -172 273 -172 c 0
 288 -172 312 -166 339 -155 c 1
 345 -204 l 1
 301 -222 279 -228 252 -228 c 0
 200 -228 164 -197 164 -151 c 0xf4
 164 -100 201 -42 253 -13 c 1
 242 -14 236 -14 230 -14 c 0
 118 -14 58 53 58 180 c 0
 58 259 77 341 110 404 c 0
 158 497 231 546 321 546 c 0
 428 546 486 477 486 351 c 0
 486 319 483 286 477 253 c 2
 473 228 l 1xfa
193 319 m 1
 371 319 l 1
 372 345 l 1
 372 398 344 431 300 431 c 0
 249 431 216 397 193 319 c 1
EndSplineSet
EndChar

StartChar: Ecaron
Encoding: 272 282 165
Width: 547
Flags: MW
HStem: 0 127<205 509> 313 127<259 524 237 546> 591 127<285 598 285 285> 790 146<360 385 292 462 360 360>
LayerCount: 2
Fore
SplineSet
620 718 m 1
 598 591 l 1
 285 591 l 1
 259 440 l 1
 546 440 l 1
 524 313 l 1
 237 313 l 1
 205 127 l 1
 531 127 l 1
 509 0 l 1
 62 0 l 1
 187 718 l 1
 620 718 l 1
581 936 m 1
 462 790 l 1
 360 790 l 1
 292 936 l 1
 385 936 l 1
 422 854 l 1
 488 936 l 1
 581 936 l 1
EndSplineSet
EndChar

StartChar: Gcircumflex
Encoding: 630 284 523
Width: 638
Flags: MW
HStem: -19 127<305.5 343.5> 266 121<385 653 406 522> 613 124<407.5 466.5>
VStem: 89 127<217 312.5 217 313> 546 124<495 589 521.5 532>
LayerCount: 2
Fore
SplineSet
535 964 m 1
 603 818 l 1
 510 818 l 1
 472 900 l 1
 406 818 l 1
 313 818 l 1
 432 964 l 1
 535 964 l 1
385 266 m 1
 406 387 l 1
 653 387 l 1
 585 0 l 1
 503 0 l 1
 506 90 l 1
 435 9 383 -19 304 -19 c 0
 172 -19 89 84 89 249 c 0
 89 377 131 512 200 603 c 0
 267 691 353 737 453 737 c 0
 584 737 670 653 670 525 c 0
 670 518 670 508 669 495 c 1
 546 495 l 1
 546 501 l 2
 546 563 497 613 436 613 c 0
 379 613 323 579 284 520 c 0
 244 460 216 357 216 268 c 0
 216 166 264 108 347 108 c 0
 385 108 421 123 452 151 c 0
 482 179 498 205 522 266 c 1
 385 266 l 1
EndSplineSet
EndChar

StartChar: Gbreve
Encoding: 275 286 168
Width: 638
Flags: W
HStem: -19 127<305.5 343.5> 266 121<385 653 406 522> 613 124<407.5 466.5> 790 76<444.5 494>
VStem: 89 55 89 127<217 312.5 217 313> 546 124<495 589 521.5 532>
LayerCount: 2
Fore
SplineSet
385 266 m 1xf6
 406 387 l 1
 653 387 l 1
 585 0 l 1
 503 0 l 1
 506 90 l 1
 435 9 383 -19 304 -19 c 0
 172 -19 89 84 89 249 c 0
 89 377 131 512 200 603 c 0
 267 691 353 737 453 737 c 0
 584 737 670 653 670 525 c 0
 670 518 670 508 669 495 c 1
 546 495 l 1
 546 501 l 2
 546 563 497 613 436 613 c 0
 379 613 323 579 284 520 c 0
 244 460 216 357 216 268 c 0
 216 166 264 108 347 108 c 0
 385 108 421 123 452 151 c 0
 482 179 498 205 522 266 c 1
 385 266 l 1xf6
567 936 m 1xf8
 620 936 l 1
 593 839 536 790 452 790 c 0
 382 790 343 832 343 908 c 0
 343 914 343 924 344 936 c 1
 398 936 l 1
 398 930 l 2
 398 885 419 866 470 866 c 0
 523 866 547 883 567 936 c 1xf8
EndSplineSet
EndChar

StartChar: gdotaccent
Encoding: 633 289 526
Width: 501
Flags: MW
HStem: -217 106<208 239> -3 118<239.5 248> 425 121<281.5 338> 632 115<325 409 305 429>
VStem: 71 120<181 270 181 284>
LayerCount: 2
Fore
SplineSet
429 747 m 1
 409 632 l 1
 305 632 l 1
 325 747 l 1
 429 747 l 1
436 532 m 1
 546 532 l 1
 458 28 l 2
 443 -59 419 -114 381 -151 c 0
 338 -194 275 -217 203 -217 c 0
 95 -217 31 -168 31 -84 c 0
 31 -78 31 -67 32 -57 c 1
 157 -57 l 1
 157 -72 158 -79 161 -85 c 0
 169 -102 192 -111 224 -111 c 0
 290 -111 325 -74 340 11 c 2
 352 80 l 1
 311 18 277 -3 219 -3 c 0
 126 -3 71 66 71 184 c 0
 71 384 178 546 310 546 c 0
 371 546 404 517 421 450 c 1
 436 532 l 1
315 425 m 0
 248 425 191 328 191 212 c 0
 191 150 217 115 262 115 c 0
 302 115 336 139 359 183 c 0
 378 221 390 273 390 319 c 0
 390 385 361 425 315 425 c 0
EndSplineSet
EndChar

StartChar: Hcircumflex
Encoding: 634 292 527
Width: 592
Flags: MW
HStem: 0 21G<58 181 58 58 411 411 411 534> 322 124<259 467 237 489> 698 20G<183 306 306 306 536 659 659 659>
LayerCount: 2
Fore
SplineSet
516 964 m 1
 584 818 l 1
 491 818 l 1
 453 900 l 1
 387 818 l 1
 294 818 l 1
 413 964 l 1
 516 964 l 1
467 322 m 1
 237 322 l 1
 181 0 l 1
 58 0 l 1
 183 718 l 1
 306 718 l 1
 259 446 l 1
 489 446 l 1
 536 718 l 1
 659 718 l 1
 534 0 l 1
 411 0 l 1
 467 322 l 1
EndSplineSet
EndChar

StartChar: hcircumflex
Encoding: 635 293 528
Width: 501
Flags: MW
HStem: 0 21G<53 168 53 53 333 448 333 333> 428 118<306 431> 698 20G<178 293 293 293>
LayerCount: 2
Fore
SplineSet
470 964 m 1
 538 818 l 1
 445 818 l 1
 407 900 l 1
 341 818 l 1
 248 818 l 1
 367 964 l 1
 470 964 l 1
293 718 m 1
 248 459 l 1
 281 516 331 546 393 546 c 0
 469 546 516 495 516 413 c 0
 516 399 515 384 512 368 c 2
 448 0 l 1
 333 0 l 1
 389 323 l 2
 392 341 394 358 394 368 c 0
 394 406 372 428 334 428 c 0
 278 428 234 381 221 305 c 2
 168 0 l 1
 53 0 l 1
 178 718 l 1
 293 718 l 1
EndSplineSet
EndChar

StartChar: Hbar
Encoding: 636 294 529
Width: 678
Flags: MW
HStem: 0 21G<103 226 103 103 456 456 456 579> 322 124<304 512 282 534> 527 102<132 195 114 213 336 548 689 747> 698 20G<228 351 351 351 581 704 704 704>
LayerCount: 2
Fore
SplineSet
512 322 m 1
 282 322 l 1
 226 0 l 1
 103 0 l 1
 195 527 l 1
 114 527 l 1
 132 629 l 1
 213 629 l 1
 228 718 l 1
 351 718 l 1
 336 629 l 1
 566 629 l 1
 581 718 l 1
 704 718 l 1
 689 629 l 1
 765 629 l 1
 747 527 l 1
 671 527 l 1
 579 0 l 1
 456 0 l 1
 512 322 l 1
548 527 m 1
 318 527 l 1
 304 446 l 1
 534 446 l 1
 548 527 l 1
EndSplineSet
EndChar

StartChar: hbar
Encoding: 637 295 530
Width: 541
Flags: MW
HStem: 0 21G<93 208 93 93 373 488 373 373> 428 118<346 471> 557 82<127 190 113 204 319 396> 698 20G<218 333 333 333>
LayerCount: 2
Fore
SplineSet
204 639 m 1
 218 718 l 1
 333 718 l 1
 319 639 l 1
 410 639 l 1
 396 557 l 1
 305 557 l 1
 288 459 l 1
 321 516 371 546 433 546 c 0
 509 546 556 495 556 413 c 0
 556 399 555 384 552 368 c 2
 488 0 l 1
 373 0 l 1
 429 323 l 2
 432 341 434 358 434 368 c 0
 434 406 412 428 374 428 c 0
 318 428 274 381 261 305 c 2
 208 0 l 1
 93 0 l 1
 190 557 l 1
 113 557 l 1
 127 639 l 1
 204 639 l 1
EndSplineSet
EndChar

StartChar: Itilde
Encoding: 638 296 531
Width: 228
Flags: W
HStem: 0 21G<52 175 52 52> 698 20G<178 301 301 301> 825 80<324.5 340.5 324.5 342> 861 80<199.5 208>
VStem: 52 377
LayerCount: 2
Fore
SplineSet
376 945 m 1xe8
 429 945 l 1
 402 865 365 825 319 825 c 0xe8
 302 825 274 834 240 850 c 0
 222 858 212 861 204 861 c 0
 185 861 169 846 158 818 c 1
 106 818 l 1
 136 903 173 941 226 941 c 0xd8
 242 941 250 938 282 922 c 0
 309 909 319 905 330 905 c 0
 351 905 365 917 376 945 c 1xe8
301 718 m 1
 175 0 l 1
 52 0 l 1
 178 718 l 1
 301 718 l 1
EndSplineSet
EndChar

StartChar: itilde
Encoding: 639 297 532
Width: 228
Flags: W
HStem: 0 21G<57 171 57 57> 512 20G<150 264 264 264> 639 80<292.5 308.5 292.5 310> 675 80<167.5 176>
VStem: 57 340
LayerCount: 2
Fore
SplineSet
344 759 m 1xe8
 397 759 l 1
 370 679 333 639 287 639 c 0xe8
 270 639 242 648 208 664 c 0
 190 672 180 675 172 675 c 0
 153 675 137 660 126 632 c 1
 74 632 l 1
 104 717 141 755 194 755 c 0xd8
 210 755 218 752 250 736 c 0
 277 723 287 719 298 719 c 0
 319 719 333 731 344 759 c 1xe8
150 532 m 1
 264 532 l 1
 171 0 l 1
 57 0 l 1
 150 532 l 1
EndSplineSet
EndChar

StartChar: Imacron
Encoding: 312 298 205
Width: 228
Flags: MW
HStem: 0 20 698 20<178 301 301 301> 790 74<123 393 110 406>
LayerCount: 2
Fore
SplineSet
301 718 m 1
 175 0 l 1
 52 0 l 1
 178 718 l 1
 301 718 l 1
406 864 m 1
 393 790 l 1
 110 790 l 1
 123 864 l 1
 406 864 l 1
EndSplineSet
EndChar

StartChar: imacron
Encoding: 376 299 269
Width: 228
Flags: MW
HStem: 0 20 512 20<150 264 264 264> 604 74<91 361 78 374>
LayerCount: 2
Fore
SplineSet
150 532 m 1
 264 532 l 1
 171 0 l 1
 57 0 l 1
 150 532 l 1
374 678 m 1
 361 604 l 1
 78 604 l 1
 91 678 l 1
 374 678 l 1
EndSplineSet
EndChar

StartChar: Ibreve
Encoding: 640 300 533
Width: 228
Flags: W
HStem: 0 21G<52 175 52 52> 698 20G<178 301 301 301> 818 76<244.5 294>
VStem: 143 55<935.5 939> 144 54<935.5 964>
LayerCount: 2
Fore
SplineSet
367 964 m 1xf0
 420 964 l 1
 393 867 336 818 252 818 c 0
 182 818 143 860 143 936 c 0xf0
 143 942 143 952 144 964 c 1xe8
 198 964 l 1
 198 958 l 2
 198 913 219 894 270 894 c 0
 323 894 347 911 367 964 c 1xf0
301 718 m 1
 175 0 l 1
 52 0 l 1
 178 718 l 1
 301 718 l 1
EndSplineSet
EndChar

StartChar: ibreve
Encoding: 641 301 534
Width: 228
Flags: W
HStem: 0 21G<57 171 57 57> 512 20G<150 264 264 264> 632 76<212.5 262>
VStem: 111 55<749.5 753> 112 54<749.5 778>
LayerCount: 2
Fore
SplineSet
335 778 m 1xf0
 388 778 l 1
 361 681 304 632 220 632 c 0
 150 632 111 674 111 750 c 0xf0
 111 756 111 766 112 778 c 1xe8
 166 778 l 1
 166 772 l 2
 166 727 187 708 238 708 c 0
 291 708 315 725 335 778 c 1xf0
150 532 m 1
 264 532 l 1
 171 0 l 1
 57 0 l 1
 150 532 l 1
EndSplineSet
EndChar

StartChar: Iogonek
Encoding: 313 302 206
Width: 228
Flags: MW
HStem: -228 56<92.5 93.5> 698 20<177 301 301 301>
VStem: -8 79<-146.5 -133>
LayerCount: 2
Fore
SplineSet
301 718 m 1
 175 0 l 1
 110 -46 71 -97 71 -136 c 0
 71 -157 84 -172 101 -172 c 0
 116 -172 140 -166 166 -155 c 1
 172 -204 l 1
 128 -222 107 -228 80 -228 c 0
 28 -228 -8 -197 -8 -151 c 0
 -8 -115 12 -71 44 -40 c 0
 62 -23 71 -17 106 0 c 1
 52 0 l 1
 177 718 l 1
 301 718 l 1
EndSplineSet
EndChar

StartChar: iogonek
Encoding: 387 303 280
Width: 228
Flags: MW
HStem: -228 56<89.5 90.5> 512 20<150 265 265 265> 595 130<184 276 161 298>
VStem: -11 79<-146.5 -133>
LayerCount: 2
Fore
SplineSet
265 532 m 1
 172 0 l 1
 107 -46 68 -97 68 -136 c 0
 68 -157 81 -172 98 -172 c 0
 113 -172 137 -166 163 -155 c 1
 169 -204 l 1
 125 -222 104 -228 77 -228 c 0
 25 -228 -11 -197 -11 -151 c 0
 -11 -115 9 -71 41 -40 c 0
 59 -23 68 -17 103 0 c 1
 57 0 l 1
 150 532 l 1
 265 532 l 1
298 725 m 1
 276 595 l 1
 161 595 l 1
 184 725 l 1
 298 725 l 1
EndSplineSet
EndChar

StartChar: Idotaccent
Encoding: 280 304 173
Width: 228
Flags: MW
HStem: 0 20 698 20<178 301 301 301> 800 115<222 306 202 326>
LayerCount: 2
Fore
SplineSet
301 718 m 1
 175 0 l 1
 52 0 l 1
 178 718 l 1
 301 718 l 1
326 915 m 1
 306 800 l 1
 202 800 l 1
 222 915 l 1
 326 915 l 1
EndSplineSet
EndChar

StartChar: dotlessi
Encoding: 245 305 144
Width: 228
Flags: MW
HStem: 0 20 512 20<150 264 264 264>
LayerCount: 2
Fore
SplineSet
150 532 m 1
 264 532 l 1
 171 0 l 1
 57 0 l 1
 150 532 l 1
EndSplineSet
EndChar

StartChar: IJ
Encoding: 642 306 535
Width: 650
Flags: MW
HStem: -18 121<404.5 449 404.5 469.5> 698 20G<178 301 301 301 599 722 722 722>
VStem: 249 119<144 150.5>
LayerCount: 2
Fore
SplineSet
722 718 m 1
 633 208 l 2
 607 58 531 -18 408 -18 c 0
 300 -18 249 31 249 134 c 0
 249 167 253 200 265 271 c 1
 380 271 l 1
 371 214 368 190 368 166 c 0
 368 122 385 103 424 103 c 0
 474 103 497 130 510 208 c 2
 599 718 l 1
 722 718 l 1
301 718 m 1
 175 0 l 1
 52 0 l 1
 178 718 l 1
 301 718 l 1
EndSplineSet
Ligature2: "'liga' Standard Ligatures in Latin lookup 0 subtable" I J
EndChar

StartChar: ij
Encoding: 643 307 536
Width: 432
Flags: MW
HStem: 0 21G<57 172 57 57> 512 20G<150 264 264 264 349 464 464 464> 595 130<183 275 161 298 383 475 183 360>
VStem: 57 441
LayerCount: 2
Fore
SplineSet
464 532 m 1
 362 -56 l 2
 341 -175 300 -214 194 -214 c 2
 165 -214 l 1
 185 -102 l 1
 205 -102 l 2
 229 -102 241 -88 247 -53 c 2
 349 532 l 1
 464 532 l 1
498 725 m 1
 475 595 l 1
 360 595 l 1
 383 725 l 1
 498 725 l 1
150 532 m 1
 264 532 l 1
 172 0 l 1
 57 0 l 1
 150 532 l 1
298 725 m 1
 275 595 l 1
 161 595 l 1
 183 725 l 1
 298 725 l 1
EndSplineSet
Ligature2: "'liga' Standard Ligatures in Latin lookup 0 subtable" i j
EndChar

StartChar: jcircumflex
Encoding: 645 309 538
Width: 228
Flags: MW
HStem: 512 20G<149 264 264 264>
VStem: -35 422
LayerCount: 2
Fore
SplineSet
264 532 m 1
 162 -56 l 2
 141 -175 100 -214 -6 -214 c 2
 -35 -214 l 1
 -15 -102 l 1
 5 -102 l 2
 29 -102 41 -88 47 -53 c 2
 149 532 l 1
 264 532 l 1
319 750 m 1
 387 604 l 1
 294 604 l 1
 256 686 l 1
 190 604 l 1
 97 604 l 1
 216 750 l 1
 319 750 l 1
EndSplineSet
EndChar

StartChar: Kcommaaccent
Encoding: 314 310 207
Width: 592
Flags: MW
HStem: -167 107<236 273 217 334> 0 20 698 20<196 319 319 319 544 703 703 703>
LayerCount: 2
Fore
SplineSet
236 243 m 1
 194 0 l 1
 71 0 l 1
 196 718 l 1
 319 718 l 1
 268 426 l 1
 544 718 l 1
 703 718 l 1
 411 424 l 1
 592 0 l 1
 433 0 l 1
 306 315 l 1
 236 243 l 1
236 -60 m 1
 334 -60 l 1
 317 -155 l 1
 308 -233 257 -292 194 -298 c 1
 202 -255 l 1
 240 -247 268 -213 273 -167 c 1
 217 -167 l 1
 236 -60 l 1
EndSplineSet
EndChar

StartChar: kcommaaccent
Encoding: 377 311 270
Width: 456
Flags: MW
HStem: -167 107<168 205 149 266> 0 20 698 20<182 297 297 297>
LayerCount: 2
Fore
SplineSet
201 168 m 1
 172 0 l 1
 57 0 l 1
 182 718 l 1
 297 718 l 1
 229 330 l 1
 408 532 l 1
 549 532 l 1
 359 326 l 1
 461 0 l 1
 323 0 l 1
 259 228 l 1
 201 168 l 1
168 -60 m 1
 266 -60 l 1
 249 -155 l 1
 240 -233 189 -292 126 -298 c 1
 134 -255 l 1
 172 -247 200 -213 205 -167 c 1
 149 -167 l 1
 168 -60 l 1
EndSplineSet
EndChar

StartChar: Lacute
Encoding: 281 313 174
Width: 501
Flags: MW
HStem: 0 130<208 478> 698 20<187 310 310 310>
LayerCount: 2
Fore
SplineSet
310 718 m 1
 208 130 l 1
 501 130 l 1
 478 0 l 1
 62 0 l 1
 187 718 l 1
 310 718 l 1
489 936 m 1
 343 790 l 1
 260 790 l 1
 363 936 l 1
 489 936 l 1
EndSplineSet
EndChar

StartChar: lacute
Encoding: 346 314 239
Width: 228
Flags: MW
HStem: 0 20 698 20<182 297 297 297>
LayerCount: 2
Fore
SplineSet
297 718 m 1
 172 0 l 1
 57 0 l 1
 182 718 l 1
 297 718 l 1
433 936 m 1
 287 790 l 1
 204 790 l 1
 307 936 l 1
 433 936 l 1
EndSplineSet
EndChar

StartChar: Lcommaaccent
Encoding: 315 315 208
Width: 501
Flags: MW
HStem: -167 107<191 228 172 289> 0 130<208 478> 698 20<187 310 310 310>
LayerCount: 2
Fore
SplineSet
310 718 m 1
 208 130 l 1
 501 130 l 1
 478 0 l 1
 62 0 l 1
 187 718 l 1
 310 718 l 1
191 -60 m 1
 289 -60 l 1
 272 -155 l 1
 263 -233 212 -292 149 -298 c 1
 157 -255 l 1
 195 -247 223 -213 228 -167 c 1
 172 -167 l 1
 191 -60 l 1
EndSplineSet
EndChar

StartChar: lcommaaccent
Encoding: 378 316 271
Width: 228
Flags: MW
HStem: -167 107<54 91 35 152> 698 20<182 297 297 297>
LayerCount: 2
Fore
SplineSet
297 718 m 1
 172 0 l 1
 57 0 l 1
 182 718 l 1
 297 718 l 1
54 -60 m 1
 152 -60 l 1
 135 -155 l 1
 126 -233 75 -292 12 -298 c 1
 20 -255 l 1
 58 -247 86 -213 91 -167 c 1
 35 -167 l 1
 54 -60 l 1
EndSplineSet
EndChar

StartChar: Lcaron
Encoding: 282 317 175
Width: 501
Flags: W
HStem: 0 130<208 478> 611 107<475 512> 698 20<187 310 310 310 475 573 573 573>
LayerCount: 2
Fore
SplineSet
310 718 m 1xa0
 208 130 l 1
 501 130 l 1
 478 0 l 1
 62 0 l 1
 187 718 l 1
 310 718 l 1xa0
475 718 m 1x40
 573 718 l 1
 556 623 l 1
 547 545 496 486 433 480 c 1
 441 523 l 1
 479 531 507 565 512 611 c 1
 456 611 l 1
 475 718 l 1x40
EndSplineSet
EndChar

StartChar: lcaron
Encoding: 347 318 240
Width: 283
Flags: W
HStem: 0 20 611 107<324 361 182 305> 698 20<182 297 297 297 324 422 422 422>
LayerCount: 2
Fore
SplineSet
297 718 m 1xa0
 172 0 l 1
 57 0 l 1
 182 718 l 1
 297 718 l 1xa0
324 718 m 1x40
 422 718 l 1
 405 623 l 1
 396 545 345 486 282 480 c 1
 290 523 l 1
 328 531 356 565 361 611 c 1
 305 611 l 1
 324 718 l 1x40
EndSplineSet
EndChar

StartChar: Ldot
Encoding: 647 319 540
Width: 501
Flags: MW
HStem: 0 130<208 478> 698 20G<187 310 310 310>
VStem: 307 136<350.5 366.5>
LayerCount: 2
Fore
SplineSet
389 440 m 0
 420 440 443 413 443 376 c 0
 443 325 404 278 361 278 c 0
 329 278 307 304 307 341 c 0
 307 392 347 440 389 440 c 0
310 718 m 1
 208 130 l 1
 501 130 l 1
 478 0 l 1
 62 0 l 1
 187 718 l 1
 310 718 l 1
EndSplineSet
Ligature2: "'liga' Standard Ligatures in Latin lookup 0 subtable" L periodcentered
EndChar

StartChar: ldot
Encoding: 648 320 541
Width: 456
Flags: MW
HStem: 0 21G<57 172 57 57> 698 20G<182 297 297 297>
VStem: 318 136<244.5 260.5>
LayerCount: 2
Fore
SplineSet
400 334 m 0
 431 334 454 307 454 270 c 0
 454 219 415 172 372 172 c 0
 340 172 318 198 318 235 c 0
 318 286 358 334 400 334 c 0
297 718 m 1
 172 0 l 1
 57 0 l 1
 182 718 l 1
 297 718 l 1
EndSplineSet
Ligature2: "'liga' Standard Ligatures in Latin lookup 0 subtable" l periodcentered
EndChar

StartChar: Lslash
Encoding: 232 321 139
Width: 501
Flags: MW
HStem: 0 130<208 478> 698 20<187 311 311 311>
LayerCount: 2
Fore
SplineSet
370 459 m 1
 253 386 l 1
 208 130 l 1
 501 130 l 1
 478 0 l 1
 62 0 l 1
 116 311 l 1
 28 256 l 1
 42 334 l 1
 130 389 l 1
 187 718 l 1
 311 718 l 1
 266 464 l 1
 384 537 l 1
 370 459 l 1
EndSplineSet
EndChar

StartChar: lslash
Encoding: 248 322 145
Width: 228
Flags: MW
HStem: 0 20 698 20<182 297 297 297>
LayerCount: 2
Fore
SplineSet
334 523 m 1
 320 445 l 1
 240 395 l 1
 171 0 l 1
 57 0 l 1
 113 324 l 1
 33 274 l 1
 47 352 l 1
 127 402 l 1
 182 718 l 1
 297 718 l 1
 254 473 l 1
 334 523 l 1
EndSplineSet
EndChar

StartChar: Nacute
Encoding: 283 323 176
Width: 592
Flags: MW
HStem: 0 20 698 20<182 311 311 311 546 661 661 661>
LayerCount: 2
Fore
SplineSet
459 214 m 1
 546 718 l 1
 661 718 l 1
 536 0 l 1
 413 0 l 1
 261 515 l 1
 172 0 l 1
 57 0 l 1
 182 718 l 1
 311 718 l 1
 459 214 l 1
615 936 m 1
 469 790 l 1
 386 790 l 1
 489 936 l 1
 615 936 l 1
EndSplineSet
EndChar

StartChar: nacute
Encoding: 348 324 241
Width: 501
Flags: W
HStem: 0 20 428 118<306 430> 512 20<146 256 256 256>
VStem: 394 122<363 454.5>
LayerCount: 2
Fore
SplineSet
256 532 m 1xb0
 242 451 l 1
 288 519 330 546 391 546 c 0
 469 546 516 496 516 413 c 0
 516 399 515 384 512 368 c 2
 448 0 l 1
 333 0 l 1
 389 323 l 2
 392 341 394 358 394 368 c 0
 394 406 372 428 334 428 c 0xd0
 278 428 234 381 221 305 c 2
 168 0 l 1
 53 0 l 1
 146 532 l 1
 256 532 l 1xb0
537 750 m 1
 391 604 l 1
 308 604 l 1
 411 750 l 1
 537 750 l 1
EndSplineSet
EndChar

StartChar: Ncommaaccent
Encoding: 316 325 209
Width: 592
Flags: MW
HStem: -167 107<236 273 217 334> 0 20 698 20<182 311 311 311 546 661 661 661>
LayerCount: 2
Fore
SplineSet
459 214 m 1
 546 718 l 1
 661 718 l 1
 536 0 l 1
 413 0 l 1
 261 515 l 1
 172 0 l 1
 57 0 l 1
 182 718 l 1
 311 718 l 1
 459 214 l 1
236 -60 m 1
 334 -60 l 1
 317 -155 l 1
 308 -233 257 -292 194 -298 c 1
 202 -255 l 1
 240 -247 268 -213 273 -167 c 1
 217 -167 l 1
 236 -60 l 1
EndSplineSet
EndChar

StartChar: ncommaaccent
Encoding: 379 326 272
Width: 501
Flags: W
HStem: -167 107<191 228 172 289> 0 20 428 118<306 430> 512 20<146 256 256 256>
VStem: 394 122<363 454.5>
LayerCount: 2
Fore
SplineSet
256 532 m 1x58
 242 451 l 1
 288 519 330 546 391 546 c 0
 469 546 516 496 516 413 c 0
 516 399 515 384 512 368 c 2
 448 0 l 1
 333 0 l 1
 389 323 l 2
 392 341 394 358 394 368 c 0
 394 406 372 428 334 428 c 0x68
 278 428 234 381 221 305 c 2
 168 0 l 1
 53 0 l 1
 146 532 l 1
 256 532 l 1x58
191 -60 m 1x88
 289 -60 l 1
 272 -155 l 1
 263 -233 212 -292 149 -298 c 1
 157 -255 l 1
 195 -247 223 -213 228 -167 c 1
 172 -167 l 1
 191 -60 l 1x88
EndSplineSet
EndChar

StartChar: Ncaron
Encoding: 284 327 177
Width: 592
Flags: MW
HStem: 0 20 698 20<182 311 311 311 546 661 661 661> 790 146<383 408 315 485 383 383>
LayerCount: 2
Fore
SplineSet
459 214 m 1
 546 718 l 1
 661 718 l 1
 536 0 l 1
 413 0 l 1
 261 515 l 1
 172 0 l 1
 57 0 l 1
 182 718 l 1
 311 718 l 1
 459 214 l 1
604 936 m 1
 485 790 l 1
 383 790 l 1
 315 936 l 1
 408 936 l 1
 445 854 l 1
 511 936 l 1
 604 936 l 1
EndSplineSet
EndChar

StartChar: ncaron
Encoding: 349 328 242
Width: 501
Flags: W
HStem: 0 20 428 118<306 430> 512 20<146 256 256 256> 604 146<305 330 237 407 305 305>
VStem: 394 122<363 454.5>
LayerCount: 2
Fore
SplineSet
256 532 m 1xa8
 242 451 l 1
 288 519 330 546 391 546 c 0
 469 546 516 496 516 413 c 0
 516 399 515 384 512 368 c 2
 448 0 l 1
 333 0 l 1
 389 323 l 2
 392 341 394 358 394 368 c 0
 394 406 372 428 334 428 c 0xc8
 278 428 234 381 221 305 c 2
 168 0 l 1
 53 0 l 1
 146 532 l 1
 256 532 l 1xa8
526 750 m 1x18
 407 604 l 1
 305 604 l 1
 237 750 l 1
 330 750 l 1
 367 668 l 1
 433 750 l 1
 526 750 l 1x18
EndSplineSet
EndChar

StartChar: napostrophe
Encoding: 649 329 542
Width: 501
Flags: MW
HStem: 0 21G<53 168 53 53 333 448 333 333> 428 118<306 430> 711 20G<184 184 184 247>
LayerCount: 2
Fore
SplineSet
184 731 m 1
 206 858 l 1
 321 858 l 1
 303 756 l 2
 285 659 240 605 161 585 c 1
 170 636 l 1
 217 654 236 678 247 731 c 1
 184 731 l 1
256 532 m 1
 242 451 l 1
 288 519 330 546 391 546 c 0
 469 546 516 496 516 413 c 0
 516 399 515 384 512 368 c 2
 448 0 l 1
 333 0 l 1
 389 323 l 2
 392 341 394 358 394 368 c 0
 394 406 372 428 334 428 c 0
 278 428 234 381 221 305 c 2
 168 0 l 1
 53 0 l 1
 146 532 l 1
 256 532 l 1
EndSplineSet
EndChar

StartChar: Eng
Encoding: 650 330 543
Width: 592
Flags: MW
HStem: -138 79<314 343 314 381.5> 0 21G<57 172 57 57 413 413 536 536> 698 20G<182 311 311 311 546 661 661 661>
LayerCount: 2
Fore
SplineSet
536 0 m 2
 514 -126 449 -138 314 -138 c 1
 314 -59 l 1
 372 -59 414 -36 414 -8 c 0
 414 -5 414 -3 413 0 c 2
 261 515 l 1
 172 0 l 1
 57 0 l 1
 182 718 l 1
 311 718 l 1
 459 214 l 1
 546 718 l 1
 661 718 l 1
 536 0 l 2
EndSplineSet
EndChar

StartChar: eng
Encoding: 651 331 544
Width: 501
Flags: MW
HStem: -135 73<273 292 273 340.5> 0 21G<53 168 53 53> 428 118<306 430>
LayerCount: 2
Fore
SplineSet
333 -2 m 2
 389 323 l 2
 392 341 394 358 394 368 c 0
 394 406 372 428 334 428 c 0
 278 428 234 381 221 305 c 2
 168 0 l 1
 53 0 l 1
 146 532 l 1
 256 532 l 1
 242 451 l 1
 288 519 330 546 391 546 c 0
 469 546 516 496 516 413 c 0
 516 399 515 384 512 368 c 2
 447 -2 l 2
 430 -98 408 -135 273 -135 c 1
 273 -62 l 1
 311 -62 327 -36 333 -2 c 2
EndSplineSet
EndChar

StartChar: Obreve
Encoding: 652 334 545
Width: 638
Flags: W
HStem: -19 127<300 363> 610 127<401 464.5> 818 76<449.5 499>
VStem: 88 126<220 308.5> 348 55<935.5 939> 349 54<935.5 964> 550 125<408 497.5>
LayerCount: 2
Fore
SplineSet
572 964 m 1xfa
 625 964 l 1
 598 867 541 818 457 818 c 0
 387 818 348 860 348 936 c 0xfa
 348 942 348 952 349 964 c 1xf6
 403 964 l 1
 403 958 l 2
 403 913 424 894 475 894 c 0
 528 894 552 911 572 964 c 1xfa
449 737 m 0
 511 737 568 714 610 672 c 0
 651 631 675 557 675 474 c 0
 675 342 632 198 568 114 c 0
 504 30 411 -19 315 -19 c 0
 175 -19 88 82 88 245 c 0
 88 372 133 522 196 604 c 0
 260 688 353 737 449 737 c 0
426 610 m 0
 362 610 301 567 264 493 c 0
 233 432 214 348 214 271 c 0
 214 169 261 108 339 108 c 0
 457 108 550 257 550 447 c 0
 550 548 503 610 426 610 c 0
EndSplineSet
EndChar

StartChar: obreve
Encoding: 653 335 546
Width: 501
Flags: W
HStem: -14 118<241.5 286.5> 428 118<302 351.5> 632 76<349.5 399>
VStem: 67 119<174.5 232.5 174.5 290.5> 248 55<749.5 753> 249 54<749.5 778> 407 120<300 358>
LayerCount: 2
Fore
SplineSet
472 778 m 1xfa
 525 778 l 1
 498 681 441 632 357 632 c 0
 287 632 248 674 248 750 c 0xfa
 248 756 248 766 249 778 c 1xf6
 303 778 l 1
 303 772 l 2
 303 727 324 708 375 708 c 0
 428 708 452 725 472 778 c 1xfa
346 546 m 0
 458 546 527 468 527 342 c 0
 527 252 495 152 448 90 c 0
 397 23 325 -14 248 -14 c 0
 136 -14 67 64 67 190 c 0
 67 391 189 546 346 546 c 0
324 428 m 0
 280 428 243 403 220 355 c 1
 200 316 186 256 186 209 c 0
 186 140 214 104 269 104 c 0
 313 104 350 129 374 177 c 0
 394 216 407 276 407 324 c 0
 407 392 379 428 324 428 c 0
EndSplineSet
EndChar

StartChar: OE
Encoding: 234 338 141
Width: 820
Flags: W
HStem: -19 124<274 301> 0 127<537 788> 313 127<591 824 569 846> 591 127<618 618 618 891> 613 124<371 425>
VStem: 81 123<216.5 303>
LayerCount: 2
Fore
SplineSet
618 591 m 1x74
 591 440 l 1
 846 440 l 1
 824 313 l 1
 569 313 l 1
 537 127 l 1
 810 127 l 1
 788 0 l 1
 402 0 l 1x74
 411 50 l 1
 362 -3 329 -19 273 -19 c 0
 153 -19 81 75 81 232 c 0
 81 374 128 531 197 623 c 0
 255 699 323 737 403 737 c 0x8c
 459 737 491 720 520 676 c 1
 527 718 l 1
 913 718 l 1
 891 591 l 1
 618 591 l 1x74
428 196 m 2x8c
 485 521 l 2
 486 528 487 534 487 539 c 0
 489 581 451 613 399 613 c 0
 343 613 295 576 260 508 c 1
 227 441 204 346 204 269 c 0
 204 164 241 105 307 105 c 0
 364 105 420 147 428 196 c 2x8c
EndSplineSet
EndChar

StartChar: oe
Encoding: 250 339 147
Width: 774
Flags: W
HStem: -14 112<540.5 569> -14 118<241.5 279.5> 228 91<507 686 507 788 488 686> 428 118<302.5 352.5> 431 115<610 637>
VStem: 67 119<174 231.5 174 290> 687 114<345 371.5>
LayerCount: 2
Fore
SplineSet
652 156 m 1xae
 770 156 l 1
 740 90 717 59 676 29 c 0
 637 0 593 -14 545 -14 c 0x96
 476 -14 437 7 404 60 c 1
 358 8 311 -14 248 -14 c 0
 136 -14 67 64 67 190 c 0
 67 390 189 546 344 546 c 0x76
 404 546 449 520 482 466 c 1
 543 527 580 546 640 546 c 0
 743 546 801 475 801 351 c 0
 801 319 798 286 792 253 c 2
 788 228 l 1
 488 228 l 1
 487 213 486 198 486 188 c 0
 486 130 515 98 566 98 c 0
 605 98 634 118 652 156 c 1xae
325 428 m 0
 280 428 244 403 220 355 c 0
 200 316 186 255 186 208 c 0
 186 140 214 104 269 104 c 0x76
 314 104 350 129 374 177 c 0
 394 216 408 276 408 323 c 0
 408 392 380 428 325 428 c 0
507 319 m 1
 686 319 l 1
 687 345 l 1
 687 398 659 431 615 431 c 0x2e
 564 431 530 396 507 319 c 1
EndSplineSet
EndChar

StartChar: racute
Encoding: 357 341 250
Width: 319
Flags: W
HStem: 0 20 404 142<351 353.5> 512 20<145 255 255 255>
LayerCount: 2
Fore
SplineSet
52 0 m 1xc0
 145 532 l 1
 255 532 l 1xa0
 238 437 l 1
 291 521 323 546 379 546 c 0
 383 546 389 545 401 544 c 1
 376 402 l 1
 365 404 360 404 347 404 c 0
 273 404 230 363 215 277 c 2
 167 0 l 1
 52 0 l 1xc0
446 750 m 1
 300 604 l 1
 217 604 l 1
 320 750 l 1
 446 750 l 1
EndSplineSet
EndChar

StartChar: Rcommaaccent
Encoding: 318 342 211
Width: 592
Flags: W
HStem: -167 107<236 273 217 334> 0 20 281 121<253 358 231 397> 594 124<286 439 286 286>
VStem: 417 124<27 58> 440 126<237.5 242.5> 511 127<529.5 547.5>
LayerCount: 2
Fore
SplineSet
62 0 m 1xf4
 187 718 l 1
 485 718 l 2
 582 718 638 660 638 559 c 0xf2
 638 500 618 440 583 397 c 0
 562 371 547 359 514 344 c 1
 553 320 566 298 566 254 c 0xf4
 566 221 565 209 547 108 c 0
 543 85 541 65 541 51 c 0
 541 35 545 27 558 19 c 1
 555 0 l 1
 418 0 l 1
 417 27 l 1xf8
 417 55 421 92 431 145 c 0
 438 185 440 205 440 220 c 0
 440 265 418 281 358 281 c 2
 231 281 l 1
 182 0 l 1
 62 0 l 1xf4
253 402 m 1
 397 402 l 2
 441 402 470 415 488 442 c 0
 502 463 511 496 511 525 c 0
 511 570 486 594 439 594 c 2
 286 594 l 1
 253 402 l 1
236 -60 m 1xf0
 334 -60 l 1
 317 -155 l 1
 308 -233 257 -292 194 -298 c 1
 202 -255 l 1
 240 -247 268 -213 273 -167 c 1
 217 -167 l 1
 236 -60 l 1xf0
EndSplineSet
EndChar

StartChar: rcommaaccent
Encoding: 381 343 274
Width: 319
Flags: W
HStem: -167 107<47 84 28 145> 404 142<351 353.5> 512 20<145 255 255 255>
LayerCount: 2
Fore
SplineSet
52 0 m 1x40
 145 532 l 1
 255 532 l 1xa0
 238 437 l 1
 291 521 323 546 379 546 c 0
 383 546 389 545 401 544 c 1
 376 402 l 1
 365 404 360 404 347 404 c 0
 273 404 230 363 215 277 c 2
 167 0 l 1
 52 0 l 1x40
47 -60 m 1
 145 -60 l 1
 128 -155 l 1
 119 -233 68 -292 5 -298 c 1
 13 -255 l 1
 51 -247 79 -213 84 -167 c 1
 28 -167 l 1
 47 -60 l 1
EndSplineSet
EndChar

StartChar: rcaron
Encoding: 384 345 277
Width: 319
Flags: W
HStem: 0 20 404 142<351 353.5> 512 20<145 255 255 255> 604 146<214 239 146 316 214 214>
LayerCount: 2
Fore
SplineSet
52 0 m 1xc0
 145 532 l 1
 255 532 l 1xa0
 238 437 l 1
 291 521 323 546 379 546 c 0
 383 546 389 545 401 544 c 1
 376 402 l 1
 365 404 360 404 347 404 c 0
 273 404 230 363 215 277 c 2
 167 0 l 1
 52 0 l 1xc0
435 750 m 1x10
 316 604 l 1
 214 604 l 1
 146 750 l 1
 239 750 l 1
 276 668 l 1
 342 750 l 1
 435 750 l 1x10
EndSplineSet
EndChar

StartChar: Scircumflex
Encoding: 654 348 547
Width: 547
Flags: W
HStem: -19 124<261 314> 613 124<348.5 399>
VStem: 66 121<165.5 169> 126 120<494 494.5> 433 124<225 230.5 225 409> 467 121<505 574 549.5 554>
LayerCount: 2
Fore
SplineSet
492 964 m 1xc4
 560 818 l 1
 467 818 l 1
 429 900 l 1
 363 818 l 1
 270 818 l 1
 389 964 l 1
 492 964 l 1xc4
71 221 m 1
 189 221 l 1
 188 210 187 201 187 194 c 0
 187 137 226 105 296 105 c 0
 379 105 433 148 433 213 c 0xe8
 433 248 411 266 341 287 c 2
 281 305 l 2
 224 322 182 341 165 358 c 0
 141 381 126 421 126 463 c 0
 126 526 149 594 185 642 c 0
 232 703 305 737 392 737 c 0
 470 737 527 711 558 663 c 1
 576 633 588 592 588 556 c 0
 588 543 587 526 584 505 c 1
 467 505 l 1
 467 526 l 2
 467 582 431 613 367 613 c 0
 295 613 246 571 246 509 c 0xd4
 246 479 259 464 297 452 c 2
 433 409 l 2
 521 381 557 338 557 262 c 0
 557 188 526 109 477 60 c 0
 427 9 355 -19 273 -19 c 0
 191 -19 126 10 94 60 c 0
 77 87 66 127 66 162 c 0xe8
 66 176 68 197 71 221 c 1
EndSplineSet
EndChar

StartChar: Scedilla
Encoding: 296 350 189
Width: 547
Flags: W
HStem: -228 57<213.5 232.5 213.5 255.5> -96 201<236.5 337.5> 613 124<348.5 399>
VStem: 66 121<165.5 169> 126 120<494 494.5> 267 77<-136.5 -116> 433 124<214 230.5 214 409> 467 121<505 574 549.5 554>
LayerCount: 2
Fore
SplineSet
286 -19 m 1xea
 259 -55 l 1
 270 -52 276 -51 284 -51 c 0
 320 -51 344 -75 344 -111 c 0
 344 -176 290 -228 221 -228 c 0
 194 -228 175 -223 134 -203 c 1
 160 -155 l 1
 189 -166 207 -171 220 -171 c 0
 245 -171 267 -149 267 -124 c 0
 267 -108 256 -96 240 -96 c 0
 233 -96 221 -99 206 -104 c 1
 192 -84 l 1
 239 -17 l 1
 182 -10 141 7 113 36 c 0
 84 65 66 114 66 162 c 0
 66 176 68 197 71 221 c 1
 189 221 l 1
 188 210 187 201 187 194 c 0
 187 137 226 105 296 105 c 0
 379 105 433 148 433 213 c 0xf6
 433 248 411 266 341 287 c 2
 281 305 l 2
 224 322 182 341 165 358 c 0
 141 381 126 421 126 463 c 0
 126 526 149 594 185 642 c 0
 232 703 305 737 392 737 c 0
 470 737 527 711 558 663 c 1
 576 633 588 592 588 556 c 0
 588 543 587 526 584 505 c 1
 467 505 l 1
 467 526 l 2xe9
 467 582 431 613 367 613 c 0
 295 613 246 571 246 509 c 0
 246 479 259 464 297 452 c 2
 433 409 l 2
 521 381 557 338 557 262 c 0
 557 166 510 74 436 26 c 0
 393 -2 344 -16 286 -19 c 1xea
EndSplineSet
EndChar

StartChar: scedilla
Encoding: 385 351 278
Width: 456
Flags: MW
HStem: -228 57<167.5 186.5 167.5 209.5> -96 188<190.5 276.5> 440 106<274.5 320>
VStem: 52 119<131.5 134.5> 221 77<-136.5 -116>
LayerCount: 2
Fore
SplineSet
244 -14 m 1
 214 -55 l 1
 224 -52 231 -51 239 -51 c 0
 274 -51 298 -76 298 -111 c 0
 298 -176 244 -228 175 -228 c 0
 148 -228 130 -223 88 -203 c 1
 115 -155 l 1
 144 -166 161 -171 174 -171 c 0
 199 -171 221 -149 221 -124 c 0
 221 -108 210 -96 194 -96 c 0
 187 -96 175 -99 160 -104 c 1
 146 -84 l 1
 197 -12 l 1
 102 -1 52 48 52 129 c 0
 52 140 53 155 54 170 c 1
 172 170 l 1
 171 162 171 155 171 150 c 0
 171 113 200 92 251 92 c 0
 302 92 338 118 338 154 c 0
 338 177 308 195 252 206 c 0
 151 225 101 268 101 335 c 0
 101 368 111 405 127 437 c 0
 164 509 229 546 317 546 c 0
 425 546 479 499 479 404 c 0
 479 398 479 384 478 370 c 1
 365 370 l 1
 365 377 l 1
 365 388 l 1
 363 423 342 440 298 440 c 0
 251 440 220 417 220 382 c 0
 220 360 249 343 305 331 c 1
 373 318 428 288 446 255 c 0
 455 238 459 221 459 200 c 0
 459 129 421 58 364 22 c 0
 329 0 294 -10 244 -14 c 1
EndSplineSet
EndChar

StartChar: Tcommaaccent
Encoding: 309 354 202
Width: 501
Flags: MW
HStem: -167 107<191 228 172 289> 0 20 591 127<136 292 114 615 415 593 415 415>
LayerCount: 2
Fore
SplineSet
415 591 m 1
 312 0 l 1
 189 0 l 1
 292 591 l 1
 114 591 l 1
 136 718 l 1
 615 718 l 1
 593 591 l 1
 415 591 l 1
191 -60 m 1
 289 -60 l 1
 272 -155 l 1
 263 -233 212 -292 149 -298 c 1
 157 -255 l 1
 195 -247 223 -213 228 -167 c 1
 172 -167 l 1
 191 -60 l 1
EndSplineSet
EndChar

StartChar: tcommaaccent
Encoding: 373 355 266
Width: 273
Flags: MW
HStem: -167 107<77 114 58 175> 432 100<101 142 83 160 275 329 101 257>
LayerCount: 2
Fore
SplineSet
300 676 m 1
 275 532 l 1
 346 532 l 1
 329 432 l 1
 257 432 l 1
 207 143 l 2
 205 134 204 124 204 120 c 0
 204 106 216 100 246 100 c 0
 252 100 259 101 271 102 c 1
 253 -4 l 1
 212 -6 211 -6 198 -6 c 2
 183 -6 l 2
 113 -6 82 17 82 68 c 0
 82 80 83 95 86 109 c 2
 142 432 l 1
 83 432 l 1
 101 532 l 1
 160 532 l 1
 185 676 l 1
 300 676 l 1
77 -60 m 1
 175 -60 l 1
 158 -155 l 1
 149 -233 98 -292 35 -298 c 1
 43 -255 l 1
 81 -247 109 -213 114 -167 c 1
 58 -167 l 1
 77 -60 l 1
EndSplineSet
EndChar

StartChar: Tcaron
Encoding: 297 356 190
Width: 501
Flags: MW
HStem: 0 20 591 127<136 292 114 615 415 593 415 415> 790 146<337 362 269 439 337 337>
LayerCount: 2
Fore
SplineSet
415 591 m 1
 312 0 l 1
 189 0 l 1
 292 591 l 1
 114 591 l 1
 136 718 l 1
 615 718 l 1
 593 591 l 1
 415 591 l 1
558 936 m 1
 439 790 l 1
 337 790 l 1
 269 936 l 1
 362 936 l 1
 399 854 l 1
 465 936 l 1
 558 936 l 1
EndSplineSet
EndChar

StartChar: tcaron
Encoding: 361 357 254
Width: 312
Flags: MW
HStem: -6 20 432 100<100 142 83 160 275 329 100 257> 611 107<354 390 335 452>
LayerCount: 2
Fore
SplineSet
275 532 m 1
 343 532 l 1
 374 553 384 572 390 611 c 1
 335 611 l 1
 354 718 l 1
 452 718 l 1
 435 623 l 1
 425 554 393 509 338 485 c 1
 329 432 l 1
 257 432 l 1
 207 143 l 2
 205 134 204 125 204 120 c 0
 204 106 216 100 246 100 c 0
 252 100 259 101 271 102 c 1
 252 -4 l 1
 212 -6 211 -6 198 -6 c 2
 183 -6 l 2
 113 -6 82 17 82 68 c 0
 82 81 83 95 86 109 c 2
 142 432 l 1
 83 432 l 1
 100 532 l 1
 160 532 l 1
 185 676 l 1
 300 676 l 1
 275 532 l 1
EndSplineSet
EndChar

StartChar: Tbar
Encoding: 656 358 549
Width: 501
Flags: MW
HStem: 0 21G<189 312 189 189> 317 112<117 244 97 264 387 510 117 367> 591 127<136 292 114 615 415 415 415 593>
LayerCount: 2
Fore
SplineSet
264 429 m 1
 292 591 l 1
 114 591 l 1
 136 718 l 1
 615 718 l 1
 593 591 l 1
 415 591 l 1
 387 429 l 1
 530 429 l 1
 510 317 l 1
 367 317 l 1
 312 0 l 1
 189 0 l 1
 244 317 l 1
 97 317 l 1
 117 429 l 1
 264 429 l 1
EndSplineSet
EndChar

StartChar: tbar
Encoding: 657 359 550
Width: 273
Flags: MW
HStem: -6 21G<148 183 183 198> 267 92<76 113 59 129 244 300> 432 100<100 142 83 160 275 329 100 257>
VStem: 59 287<267 532>
LayerCount: 2
Fore
SplineSet
300 676 m 1
 275 532 l 1
 346 532 l 1
 329 432 l 1
 257 432 l 1
 244 359 l 1
 317 359 l 1
 300 267 l 1
 228 267 l 1
 207 143 l 2
 205 134 204 125 204 120 c 0
 204 106 216 100 246 100 c 0
 252 100 259 101 271 102 c 1
 252 -4 l 1
 212 -6 211 -6 198 -6 c 2
 183 -6 l 2
 113 -6 82 17 82 68 c 0
 82 81 83 95 86 109 c 2
 113 267 l 1
 59 267 l 1
 76 359 l 1
 129 359 l 1
 142 432 l 1
 83 432 l 1
 100 532 l 1
 160 532 l 1
 185 676 l 1
 300 676 l 1
EndSplineSet
EndChar

StartChar: Utilde
Encoding: 658 360 551
Width: 592
Flags: W
HStem: -19 127<285 351 285 371> 698 20G<185 310 310 310 534 659 659 659> 825 80<507.5 523.5 507.5 525> 861 80<382.5 391>
VStem: 96 129<175 181.5>
LayerCount: 2
Fore
SplineSet
559 945 m 1xe8
 612 945 l 1
 585 865 548 825 502 825 c 0xe8
 485 825 457 834 423 850 c 0
 405 858 395 861 387 861 c 0
 368 861 352 846 341 818 c 1
 289 818 l 1
 319 903 356 941 409 941 c 0xd8
 425 941 433 938 465 922 c 0
 492 909 502 905 513 905 c 0
 534 905 548 917 559 945 c 1xe8
659 718 m 1
 578 251 l 2
 547 76 448 -19 294 -19 c 0
 167 -19 96 49 96 169 c 0
 96 194 98 218 102 242 c 2
 185 718 l 1
 310 718 l 1
 229 252 l 2
 227 237 225 220 225 208 c 0
 225 142 256 108 314 108 c 0
 388 108 436 155 451 245 c 2
 534 718 l 1
 659 718 l 1
EndSplineSet
EndChar

StartChar: utilde
Encoding: 659 361 552
Width: 501
Flags: W
HStem: -14 118<161 288> 512 20G<147 262 262 262 425 540 540 540> 639 80<428.5 444.5 428.5 446> 675 80<303.5 312>
VStem: 80 121<77 174>
LayerCount: 2
Fore
SplineSet
480 759 m 1xe8
 533 759 l 1
 506 679 469 639 423 639 c 0xe8
 406 639 378 648 344 664 c 0
 326 672 316 675 308 675 c 0
 289 675 273 660 262 632 c 1
 210 632 l 1
 240 717 277 755 330 755 c 0xd8
 346 755 354 752 386 736 c 0
 413 723 423 719 434 719 c 0
 455 719 469 731 480 759 c 1xe8
540 532 m 1
 447 0 l 1
 337 0 l 1
 351 78 l 1
 306 13 262 -14 199 -14 c 0
 123 -14 80 34 80 120 c 0
 80 140 82 161 85 182 c 2
 147 532 l 1
 262 532 l 1
 204 202 l 2
 202 191 201 180 201 168 c 0
 201 126 221 104 260 104 c 0
 316 104 358 150 371 225 c 2
 425 532 l 1
 540 532 l 1
EndSplineSet
EndChar

StartChar: umacron
Encoding: 382 363 275
Width: 501
Flags: MW
HStem: -14 118<161 288> 512 20<147 262 262 262 425 540 540 540> 604 74<227 497 214 510>
VStem: 80 121<77 174>
LayerCount: 2
Fore
SplineSet
540 532 m 1
 447 0 l 1
 337 0 l 1
 351 78 l 1
 306 13 262 -14 199 -14 c 0
 123 -14 80 34 80 120 c 0
 80 140 82 161 85 182 c 2
 147 532 l 1
 262 532 l 1
 204 202 l 2
 202 191 201 180 201 168 c 0
 201 126 221 104 260 104 c 0
 316 104 358 150 371 225 c 2
 425 532 l 1
 540 532 l 1
510 678 m 1
 497 604 l 1
 214 604 l 1
 227 678 l 1
 510 678 l 1
EndSplineSet
EndChar

StartChar: Ubreve
Encoding: 660 364 553
Width: 592
Flags: W
HStem: -19 127<285 351 285 371> 698 20G<185 310 310 310 534 659 659 659> 818 76<427.5 477>
VStem: 96 129<175 181.5> 326 55<935.5 939> 327 54<935.5 964>
LayerCount: 2
Fore
SplineSet
550 964 m 1xf8
 603 964 l 1
 576 867 519 818 435 818 c 0
 365 818 326 860 326 936 c 0xf8
 326 942 326 952 327 964 c 1xf4
 381 964 l 1
 381 958 l 2
 381 913 402 894 453 894 c 0
 506 894 530 911 550 964 c 1xf8
659 718 m 1
 578 251 l 2
 547 76 448 -19 294 -19 c 0
 167 -19 96 49 96 169 c 0
 96 194 98 218 102 242 c 2
 185 718 l 1
 310 718 l 1
 229 252 l 2
 227 237 225 220 225 208 c 0
 225 142 256 108 314 108 c 0
 388 108 436 155 451 245 c 2
 534 718 l 1
 659 718 l 1
EndSplineSet
EndChar

StartChar: ubreve
Encoding: 661 365 554
Width: 501
Flags: W
HStem: -14 118<161 288> 512 20G<147 262 262 262 425 540 540 540> 632 76<348.5 398>
VStem: 80 121<77 174> 247 55<749.5 753> 248 54<749.5 778>
LayerCount: 2
Fore
SplineSet
471 778 m 1xf8
 524 778 l 1
 497 681 440 632 356 632 c 0
 286 632 247 674 247 750 c 0xf8
 247 756 247 766 248 778 c 1xf4
 302 778 l 1
 302 772 l 2
 302 727 323 708 374 708 c 0
 427 708 451 725 471 778 c 1xf8
540 532 m 1
 447 0 l 1
 337 0 l 1
 351 78 l 1
 306 13 262 -14 199 -14 c 0
 123 -14 80 34 80 120 c 0
 80 140 82 161 85 182 c 2
 147 532 l 1
 262 532 l 1
 204 202 l 2
 202 191 201 180 201 168 c 0
 201 126 221 104 260 104 c 0
 316 104 358 150 371 225 c 2
 425 532 l 1
 540 532 l 1
EndSplineSet
EndChar

StartChar: Uring
Encoding: 302 366 195
Width: 592
Flags: W
HStem: -19 127<285 351 285 371> 698 20<185 310 310 310 534 659 659 659> 754 52<427 450.5 427 455> 910 52<441.5 465>
VStem: 96 47 96 129<175 181.5> 229 47
LayerCount: 2
Fore
SplineSet
659 718 m 1xf4
 578 251 l 2
 547 76 448 -19 294 -19 c 0
 167 -19 96 49 96 169 c 0
 96 194 98 218 102 242 c 2
 185 718 l 1
 310 718 l 1
 229 252 l 2
 227 237 225 220 225 208 c 0
 225 142 256 108 314 108 c 0
 388 108 436 155 451 245 c 2
 534 718 l 1
 659 718 l 1xf4
464 962 m 0xfa
 504 962 536 925 536 879 c 0
 536 816 482 754 428 754 c 0
 388 754 356 791 356 837 c 0
 356 900 410 962 464 962 c 0xfa
455 910 m 0
 428 910 403 880 403 847 c 0
 403 823 417 806 437 806 c 0
 464 806 489 836 489 869 c 0
 489 893 475 910 455 910 c 0
EndSplineSet
EndChar

StartChar: uring
Encoding: 366 367 259
Width: 501
Flags: W
HStem: -14 118<161 288> 512 20<147 262 262 262 425 540 540 540> 568 52<349 372.5 349 377> 724 52<363.5 387>
VStem: 80 47 80 121<77 174> 213 47
LayerCount: 2
Fore
SplineSet
540 532 m 1xf4
 447 0 l 1
 337 0 l 1
 351 78 l 1
 306 13 262 -14 199 -14 c 0
 123 -14 80 34 80 120 c 0
 80 140 82 161 85 182 c 2
 147 532 l 1
 262 532 l 1
 204 202 l 2
 202 191 201 180 201 168 c 0
 201 126 221 104 260 104 c 0
 316 104 358 150 371 225 c 2
 425 532 l 1
 540 532 l 1xf4
386 776 m 0xfa
 426 776 458 739 458 693 c 0
 458 630 404 568 350 568 c 0
 310 568 278 605 278 651 c 0
 278 714 332 776 386 776 c 0xfa
377 724 m 0
 350 724 325 694 325 661 c 0
 325 637 339 620 359 620 c 0
 386 620 411 650 411 683 c 0
 411 707 397 724 377 724 c 0
EndSplineSet
EndChar

StartChar: Uhungarumlaut
Encoding: 303 368 196
Width: 592
Flags: MW
HStem: -19 127<285 351 285 371> 698 20<185 310 310 310 534 659 659 659>
VStem: 96 129<175 181.5>
LayerCount: 2
Fore
SplineSet
659 718 m 1
 578 251 l 2
 547 76 448 -19 294 -19 c 0
 167 -19 96 49 96 169 c 0
 96 194 98 218 102 242 c 2
 185 718 l 1
 310 718 l 1
 229 252 l 2
 227 237 225 220 225 208 c 0
 225 142 256 108 314 108 c 0
 388 108 436 155 451 245 c 2
 534 718 l 1
 659 718 l 1
533 936 m 1
 388 790 l 1
 305 790 l 1
 407 936 l 1
 533 936 l 1
721 936 m 1
 575 790 l 1
 493 790 l 1
 595 936 l 1
 721 936 l 1
EndSplineSet
EndChar

StartChar: Uogonek
Encoding: 321 370 214
Width: 592
Flags: MW
HStem: -228 56<372.5 373.5> -19 127<285 306> 698 20<185 310 310 310 534 659 659 659>
VStem: 96 129<175 182> 272 79<-146.5 -125>
LayerCount: 2
Fore
SplineSet
534 718 m 1
 659 718 l 1
 578 251 l 1
 555 136 537 104 436 1 c 1
 379 -61 351 -105 351 -136 c 0
 351 -157 364 -172 381 -172 c 0
 396 -172 420 -166 447 -155 c 1
 453 -204 l 1
 409 -222 387 -228 360 -228 c 0
 308 -228 272 -197 272 -151 c 0
 272 -99 310 -41 364 -11 c 1
 336 -17 318 -19 294 -19 c 0
 167 -19 96 49 96 170 c 0
 96 194 98 218 102 242 c 2
 185 718 l 1
 310 718 l 1
 229 252 l 2
 227 237 225 220 225 208 c 0
 225 142 256 108 314 108 c 0
 388 108 436 155 451 245 c 2
 534 718 l 1
EndSplineSet
EndChar

StartChar: uogonek
Encoding: 383 371 276
Width: 501
Flags: MW
HStem: -228 56<364.5 365.5> -14 118<161 288> 512 20<147 262 262 262 425 540 540 540>
VStem: 80 121<77 174> 264 79<-146.5 -133>
LayerCount: 2
Fore
SplineSet
540 532 m 1
 447 0 l 1
 382 -46 343 -97 343 -136 c 0
 343 -157 356 -172 373 -172 c 0
 388 -172 412 -166 438 -155 c 1
 444 -204 l 1
 400 -222 379 -228 352 -228 c 0
 300 -228 264 -197 264 -151 c 0
 264 -115 284 -71 316 -40 c 0
 333 -24 344 -17 378 0 c 1
 337 0 l 1
 351 78 l 1
 306 13 262 -14 199 -14 c 0
 123 -14 80 34 80 120 c 0
 80 140 82 161 85 182 c 2
 147 532 l 1
 262 532 l 1
 204 202 l 2
 202 191 201 180 201 168 c 0
 201 126 221 104 260 104 c 0
 316 104 358 150 371 225 c 2
 425 532 l 1
 540 532 l 1
EndSplineSet
EndChar

StartChar: Wcircumflex
Encoding: 662 372 555
Width: 774
Flags: W
HStem: 0 21G<179 179 179 294 478 478 478 596> 698 20G<138 269 269 269 446 577 577 577 762 887 887 887>
VStem: 478 95 485 92
LayerCount: 2
Fore
SplineSet
607 964 m 1xe0
 675 818 l 1
 582 818 l 1
 544 900 l 1
 478 818 l 1
 385 818 l 1
 504 964 l 1
 607 964 l 1xe0
179 0 m 1
 138 718 l 1
 269 718 l 1
 272 558 274 388 274 327 c 0
 274 278 273 250 271 187 c 1
 310 313 352 440 446 718 c 1
 577 718 l 1xd0
 577 344 577 301 573 187 c 1
 604 286 629 353 762 718 c 1
 887 718 l 1
 596 0 l 1
 478 0 l 1xe0
 479 348 479 399 485 565 c 1xd0
 421 371 349 157 343 142 c 2
 294 0 l 1
 179 0 l 1
EndSplineSet
EndChar

StartChar: wcircumflex
Encoding: 663 373 556
Width: 638
Flags: MW
HStem: 0 21G<131 249 131 131 387 505 387 387> 512 20G<101 223 223 223 354 470 470 470 605 723 723 723>
VStem: 387 83<145 393 393 393>
LayerCount: 2
Fore
SplineSet
507 778 m 1
 575 632 l 1
 482 632 l 1
 444 714 l 1
 378 632 l 1
 285 632 l 1
 404 778 l 1
 507 778 l 1
723 532 m 1
 505 0 l 1
 387 0 l 1
 387 393 l 1
 249 0 l 1
 131 0 l 1
 101 532 l 1
 223 532 l 1
 225 145 l 1
 354 532 l 1
 470 532 l 1
 470 145 l 1
 605 532 l 1
 723 532 l 1
EndSplineSet
EndChar

StartChar: Ycircumflex
Encoding: 664 374 557
Width: 547
Flags: MW
HStem: 0 21G<215 339 215 215> 698 20G<137 282 282 282 521 661 661 661>
LayerCount: 2
Fore
SplineSet
494 964 m 1
 562 818 l 1
 469 818 l 1
 431 900 l 1
 365 818 l 1
 272 818 l 1
 391 964 l 1
 494 964 l 1
385 269 m 1
 339 0 l 1
 215 0 l 1
 263 271 l 1
 137 718 l 1
 282 718 l 1
 350 406 l 1
 521 718 l 1
 661 718 l 1
 385 269 l 1
EndSplineSet
EndChar

StartChar: ycircumflex
Encoding: 665 375 558
Width: 456
Flags: MW
HStem: -214 112<82.5 102 73.5 135.5> 512 20G<101 229 229 229 413 535 535 535>
LayerCount: 2
Fore
SplineSet
413 778 m 1
 481 632 l 1
 388 632 l 1
 350 714 l 1
 284 632 l 1
 191 632 l 1
 310 778 l 1
 413 778 l 1
535 532 m 1
 293 9 l 2
 198 -197 183 -214 88 -214 c 0
 77 -214 61 -213 34 -212 c 1
 54 -100 l 1
 61 -101 69 -102 78 -102 c 0
 126 -102 143 -87 165 -22 c 1
 101 532 l 1
 229 532 l 1
 254 136 l 1
 413 532 l 1
 535 532 l 1
EndSplineSet
EndChar

StartChar: Ydieresis
Encoding: 310 376 203
Width: 547
Flags: MW
HStem: 0 20 698 20<137 282 282 282 521 661 661 661> 800 115<301 384 281 404 301 441 461 544>
LayerCount: 2
Fore
SplineSet
385 269 m 1
 339 0 l 1
 215 0 l 1
 263 271 l 1
 137 718 l 1
 282 718 l 1
 350 406 l 1
 521 718 l 1
 661 718 l 1
 385 269 l 1
404 915 m 1
 384 800 l 1
 281 800 l 1
 301 915 l 1
 404 915 l 1
564 915 m 1
 544 800 l 1
 441 800 l 1
 461 915 l 1
 564 915 l 1
EndSplineSet
EndChar

StartChar: Zacute
Encoding: 305 377 198
Width: 501
Flags: MW
HStem: 0 127<42 42 192 480 20 42> 591 127<153 428 131 604>
LayerCount: 2
Fore
SplineSet
503 127 m 1
 480 0 l 1
 20 0 l 1
 42 127 l 1
 428 591 l 1
 131 591 l 1
 153 718 l 1
 604 718 l 1
 583 600 l 1
 192 127 l 1
 503 127 l 1
569 936 m 1
 423 790 l 1
 340 790 l 1
 443 936 l 1
 569 936 l 1
EndSplineSet
EndChar

StartChar: Zdotaccent
Encoding: 307 379 200
Width: 501
Flags: MW
HStem: 0 127<42 42 192 480 20 42> 591 127<153 428 131 604> 800 115<358 442 338 462>
LayerCount: 2
Fore
SplineSet
503 127 m 1
 480 0 l 1
 20 0 l 1
 42 127 l 1
 428 591 l 1
 131 591 l 1
 153 718 l 1
 604 718 l 1
 583 600 l 1
 192 127 l 1
 503 127 l 1
462 915 m 1
 442 800 l 1
 338 800 l 1
 358 915 l 1
 462 915 l 1
EndSplineSet
EndChar

StartChar: Zcaron
Encoding: 306 381 199
Width: 501
Flags: MW
HStem: 0 127<42 42 192 480 20 42> 591 127<153 428 131 604> 790 146<337 362 269 439 337 337>
LayerCount: 2
Fore
SplineSet
503 127 m 1
 480 0 l 1
 20 0 l 1
 42 127 l 1
 428 591 l 1
 131 591 l 1
 153 718 l 1
 604 718 l 1
 583 600 l 1
 192 127 l 1
 503 127 l 1
558 936 m 1
 439 790 l 1
 337 790 l 1
 269 936 l 1
 362 936 l 1
 399 854 l 1
 465 936 l 1
 558 936 l 1
EndSplineSet
EndChar

StartChar: zcaron
Encoding: 370 382 263
Width: 410
Flags: MW
HStem: 0 115<185 393> 420 112<124 313 105 478> 604 146<259 284 191 361 259 259>
LayerCount: 2
Fore
SplineSet
458 417 m 1
 185 115 l 1
 414 115 l 1
 393 0 l 1
 16 0 l 1
 35 109 l 1
 313 420 l 1
 105 420 l 1
 124 532 l 1
 478 532 l 1
 458 417 l 1
480 750 m 1
 361 604 l 1
 259 604 l 1
 191 750 l 1
 284 750 l 1
 321 668 l 1
 387 750 l 1
 480 750 l 1
EndSplineSet
EndChar

StartChar: longs
Encoding: 666 383 559
Width: 273
Flags: MW
HStem: 0 21G<71 186 71 71> 512 20G<101 164 164 164> 612 115<315.5 333 333 342.5 286.5 365>
VStem: 71 314
LayerCount: 2
Fore
SplineSet
186 0 m 1
 71 0 l 1
 146 432 l 1
 83 432 l 1
 101 532 l 1
 164 532 l 1
 171 575 l 1
 190 680 240 727 333 727 c 0
 352 727 370 726 385 725 c 1
 365 612 l 1
 333 612 l 2
 298 612 292 605 283 553 c 0
 249 370 219 184 186 0 c 1
EndSplineSet
EndChar

StartChar: florin
Encoding: 166 402 100
Width: 456
Flags: MW
HStem: -210 115<30.5 56.5 30.5 80.5> 380 97<148 231 131 260 374 456 148 346> 625 112<452 472.5>
LayerCount: 2
Fore
SplineSet
472 477 m 1
 456 380 l 1
 346 380 l 1
 235 21 l 2
 186 -137 124 -210 37 -210 c 0
 15 -210 0 -206 -41 -189 c 1
 -2 -78 l 1
 16 -92 23 -95 38 -95 c 0
 75 -95 89 -72 126 46 c 2
 231 380 l 1
 131 380 l 1
 148 477 l 1
 260 477 l 1
 291 564 l 2
 333 684 387 737 466 737 c 0
 492 737 516 731 548 718 c 1
 509 610 l 1
 494 620 479 625 466 625 c 0
 438 625 413 602 402 565 c 2
 374 477 l 1
 472 477 l 1
EndSplineSet
EndChar

StartChar: Scommaaccent
Encoding: 388 536 281
Width: 547
Flags: W
HStem: -167 107<214 251 195 312> -19 124<261 314> 613 124<348.5 399>
VStem: 66 121<165.5 169> 126 120<494 494.5> 433 124<225 230.5 225 409> 467 121<505 574 549.5 554>
LayerCount: 2
Fore
SplineSet
71 221 m 1xf4
 189 221 l 1
 188 210 187 201 187 194 c 0
 187 137 226 105 296 105 c 0
 379 105 433 148 433 213 c 0xf4
 433 248 411 266 341 287 c 2
 281 305 l 2
 224 322 182 341 165 358 c 0
 141 381 126 421 126 463 c 0
 126 526 149 594 185 642 c 0
 232 703 305 737 392 737 c 0
 470 737 527 711 558 663 c 1
 576 633 588 592 588 556 c 0
 588 543 587 526 584 505 c 1
 467 505 l 1
 467 526 l 2
 467 582 431 613 367 613 c 0
 295 613 246 571 246 509 c 0xea
 246 479 259 464 297 452 c 2
 433 409 l 2
 521 381 557 338 557 262 c 0
 557 188 526 109 477 60 c 0
 427 9 355 -19 273 -19 c 0
 191 -19 126 10 94 60 c 0
 77 87 66 127 66 162 c 0
 66 176 68 197 71 221 c 1xf4
214 -60 m 1xe0
 312 -60 l 1
 295 -155 l 1
 286 -233 235 -292 172 -298 c 1
 180 -255 l 1
 218 -247 246 -213 251 -167 c 1
 195 -167 l 1
 214 -60 l 1xe0
EndSplineSet
EndChar

StartChar: circumflex
Encoding: 195 710 125
Width: 273
Flags: MW
HStem: 604 146<97 319 97 319 294 319 216 387 294 294>
LayerCount: 2
Fore
SplineSet
319 750 m 1
 387 604 l 1
 294 604 l 1
 256 686 l 1
 190 604 l 1
 97 604 l 1
 216 750 l 1
 319 750 l 1
EndSplineSet
EndChar

StartChar: caron
Encoding: 207 711 135
Width: 273
Flags: MW
HStem: 604 146<191 216 123 293 191 191>
LayerCount: 2
Fore
SplineSet
412 750 m 1
 293 604 l 1
 191 604 l 1
 123 750 l 1
 216 750 l 1
 253 668 l 1
 319 750 l 1
 412 750 l 1
EndSplineSet
EndChar

StartChar: breve
Encoding: 198 728 128
Width: 273
Flags: MW
HStem: 604 76<229.5 279>
VStem: 128 55<721.5 725>
LayerCount: 2
Fore
SplineSet
352 750 m 1
 405 750 l 1
 378 653 321 604 237 604 c 0
 167 604 128 646 128 722 c 0
 128 728 128 738 129 750 c 1
 183 750 l 1
 183 744 l 2
 183 699 204 680 255 680 c 0
 308 680 332 697 352 750 c 1
EndSplineSet
EndChar

StartChar: dotaccent
Encoding: 199 729 129
Width: 273
Flags: MW
HStem: 614 115<212 296 192 316>
LayerCount: 2
Fore
SplineSet
316 729 m 1
 296 614 l 1
 192 614 l 1
 212 729 l 1
 316 729 l 1
EndSplineSet
EndChar

StartChar: ring
Encoding: 202 730 131
Width: 273
Flags: MW
HStem: 568 52<235 258.5 235 263> 724 52<249.5 273>
VStem: 164 47<649 677.5 649 682.5> 297 47<666.5 695>
LayerCount: 2
Fore
SplineSet
272 776 m 0
 312 776 344 739 344 693 c 0
 344 630 290 568 236 568 c 0
 196 568 164 605 164 651 c 0
 164 714 218 776 272 776 c 0
263 724 m 0
 236 724 211 694 211 661 c 0
 211 637 225 620 245 620 c 0
 272 620 297 650 297 683 c 0
 297 707 283 724 263 724 c 0
EndSplineSet
EndChar

StartChar: ogonek
Encoding: 206 731 134
Width: 273
Flags: MW
HStem: -228 56<133.5 134.5>
VStem: 33 79<-146.5 -136.5>
LayerCount: 2
Fore
SplineSet
207 -155 m 1
 213 -204 l 1
 169 -222 148 -228 121 -228 c 0
 69 -228 33 -197 33 -151 c 0
 33 -122 47 -85 70 -57 c 0
 90 -32 108 -19 147 0 c 1
 216 0 l 1
 215 -4 l 1
 151 -45 112 -95 112 -136 c 0
 112 -157 125 -172 142 -172 c 0
 157 -172 181 -166 207 -155 c 1
EndSplineSet
EndChar

StartChar: tilde
Encoding: 196 732 126
Width: 273
Flags: W
HStem: 617 80<310.5 326.5 310.5 328> 653 80<185.5 194> 717 20<362 415 415 415>
LayerCount: 2
Fore
SplineSet
362 737 m 1xa0
 415 737 l 1
 388 657 351 617 305 617 c 0xa0
 288 617 260 626 226 642 c 0
 208 650 198 653 190 653 c 0
 171 653 155 638 144 610 c 1
 92 610 l 1
 122 695 159 733 212 733 c 0x40
 228 733 236 730 268 714 c 0
 295 701 305 697 316 697 c 0
 337 697 351 709 362 737 c 1xa0
EndSplineSet
EndChar

StartChar: hungarumlaut
Encoding: 205 733 133
Width: 273
Flags: W
LayerCount: 2
Fore
SplineSet
341 750 m 1
 196 604 l 1
 113 604 l 1
 215 750 l 1
 341 750 l 1
529 750 m 1
 383 604 l 1
 301 604 l 1
 403 750 l 1
 529 750 l 1
EndSplineSet
EndChar

StartChar: mu
Encoding: 421 956 314
Width: 501
Flags: W
HStem: -207 207<18 447> -14 118<240.5 248> 512 20<147 262 262 262 425 540 540 540>
LayerCount: 2
Fore
SplineSet
540 532 m 1x60
 447 0 l 1
 337 0 l 1xa0
 351 78 l 1
 308 14 270 -14 226 -14 c 0x40
 200 -14 185 -7 171 12 c 1
 133 -207 l 1
 18 -207 l 1xa0
 147 532 l 1
 262 532 l 1
 204 202 l 2
 202 191 201 177 201 168 c 0
 201 126 221 104 260 104 c 0
 316 104 358 150 372 225 c 1
 425 532 l 1
 540 532 l 1x60
EndSplineSet
EndChar

StartChar: uni0400
Encoding: 488 1024 381
Width: 547
Flags: MW
HStem: 0 127<205 509> 313 127<259 524 237 546> 591 127<285 598 285 285>
LayerCount: 2
Fore
SplineSet
447 818 m 1
 352 964 l 1
 478 964 l 1
 530 818 l 1
 447 818 l 1
620 718 m 1
 598 591 l 1
 285 591 l 1
 259 440 l 1
 546 440 l 1
 524 313 l 1
 237 313 l 1
 205 127 l 1
 531 127 l 1
 509 0 l 1
 62 0 l 1
 187 718 l 1
 620 718 l 1
EndSplineSet
EndChar

StartChar: afii10023
Encoding: 428 1025 321
Width: 547
Flags: MW
HStem: 0 127<205 509> 313 127<259 524 237 546> 591 127<285 598 285 285> 800 115<301 384 281 404 301 441 461 544>
LayerCount: 2
Fore
SplineSet
620 718 m 1
 598 591 l 1
 285 591 l 1
 259 440 l 1
 546 440 l 1
 524 313 l 1
 237 313 l 1
 205 127 l 1
 531 127 l 1
 509 0 l 1
 62 0 l 1
 187 718 l 1
 620 718 l 1
404 915 m 1
 384 800 l 1
 281 800 l 1
 301 915 l 1
 404 915 l 1
564 915 m 1
 544 800 l 1
 441 800 l 1
 461 915 l 1
 564 915 l 1
EndSplineSet
EndChar

StartChar: afii10051
Encoding: 489 1026 382
Width: 650
Flags: MW
HStem: -138 79<381 412.5 381 448.5> 0 21G<149 272 149 149 480 480 603 603> 347 123<409 544> 591 127<136 252 114 535 375 375 375 513>
LayerCount: 2
Fore
SplineSet
381 -138 m 1
 381 -59 l 1
 444 -59 474 -32 480 0 c 2
 529 277 l 2
 530 281 530 284 530 288 c 0
 530 323 494 347 431 347 c 0
 387 347 331 332 320 272 c 2
 272 0 l 1
 149 0 l 1
 252 591 l 1
 114 591 l 1
 136 718 l 1
 535 718 l 1
 513 591 l 1
 375 591 l 1
 347 429 l 1
 390 468 442 470 491 470 c 0
 597 470 657 424 657 332 c 0
 657 316 655 299 652 281 c 2
 603 0 l 2
 581 -126 516 -138 381 -138 c 1
EndSplineSet
EndChar

StartChar: afii10052
Encoding: 490 1027 383
Width: 501
Flags: MW
HStem: 0 21G<62 185 62 62> 591 127<288 584 288 288>
LayerCount: 2
Fore
SplineSet
457 922 m 1
 311 776 l 1
 228 776 l 1
 331 922 l 1
 457 922 l 1
185 0 m 1
 62 0 l 1
 187 718 l 1
 606 718 l 1
 584 591 l 1
 288 591 l 1
 185 0 l 1
EndSplineSet
EndChar

StartChar: afii10053
Encoding: 491 1028 384
Width: 592
Flags: MW
HStem: -19 130<285.5 341> 313 127<244 429 217 451> 607 130<380.5 439.5>
LayerCount: 2
Fore
SplineSet
244 440 m 1
 451 440 l 1
 429 313 l 1
 217 313 l 1
 205 186 244 111 327 111 c 0
 370 111 409 130 439 167 c 0
 456 188 465 206 481 246 c 1
 604 246 l 1
 573 161 550 120 508 74 c 0
 452 13 380 -19 302 -19 c 0
 135 -19 58 124 99 357 c 0
 140 591 271 737 439 737 c 0
 532 737 601 691 631 610 c 0
 646 570 650 540 646 483 c 1
 523 483 l 1
 521 522 517 538 507 559 c 0
 492 589 460 607 419 607 c 0
 342 607 280 546 244 440 c 1
EndSplineSet
EndChar

StartChar: afii10055
Encoding: 493 1030 386
Width: 228
Flags: MW
HStem: 0 21G<52 175 52 52> 698 20G<178 301 301 301>
VStem: 52 249
LayerCount: 2
Fore
SplineSet
301 718 m 1
 175 0 l 1
 52 0 l 1
 178 718 l 1
 301 718 l 1
EndSplineSet
EndChar

StartChar: afii10056
Encoding: 494 1031 387
Width: 228
Flags: MW
HStem: 0 21G<52 175 52 52> 698 20G<177 300 300 300> 800 115<142 225 122 245 142 282 302 385>
VStem: 52 353
LayerCount: 2
Fore
SplineSet
300 718 m 1
 175 0 l 1
 52 0 l 1
 177 718 l 1
 300 718 l 1
245 915 m 1
 225 800 l 1
 122 800 l 1
 142 915 l 1
 245 915 l 1
405 915 m 1
 385 800 l 1
 282 800 l 1
 302 915 l 1
 405 915 l 1
EndSplineSet
EndChar

StartChar: afii10057
Encoding: 495 1032 388
Width: 456
Flags: MW
HStem: -18 121<204.5 249 204.5 269.5> 698 20G<399 522 522 522>
VStem: 49 119<144 150.5>
LayerCount: 2
Fore
SplineSet
522 718 m 1
 433 208 l 2
 407 58 331 -18 208 -18 c 0
 100 -18 49 31 49 134 c 0
 49 167 53 200 65 271 c 1
 180 271 l 1
 171 214 168 190 168 166 c 0
 168 122 185 103 224 103 c 0
 274 103 297 130 310 208 c 2
 399 718 l 1
 522 718 l 1
EndSplineSet
EndChar

StartChar: afii10058
Encoding: 496 1033 389
Width: 838
Flags: MW
HStem: 0 121<-27 -27 -27 40> 335 123<535 697 556 649> 595 123<293 459 293 293>
VStem: 725 125<220.5 286>
LayerCount: 2
Fore
SplineSet
353 0 m 1
 459 595 l 1
 293 595 l 1
 274 485 l 1
 239 276 128 0 -48 0 c 1
 -27 121 l 1
 35 120 121 312 152 490 c 2
 192 718 l 1
 602 718 l 1
 556 458 l 1
 697 458 l 2
 793 458 850 392 850 285 c 0
 850 130 751 0 622 0 c 2
 353 0 l 1
535 335 m 1
 497 123 l 1
 595 123 l 2
 686 123 725 180 725 261 c 0
 725 311 700 335 649 335 c 2
 535 335 l 1
EndSplineSet
EndChar

StartChar: afii10059
Encoding: 497 1034 390
Width: 874
Flags: W
HStem: 0 123<555 653 653 680> 322 124<259 467 237 489> 335 123<593 755 614 707> 698 20G<183 306 306 306 536 660 660 660>
VStem: 783 125<220.5 286>
LayerCount: 2
Fore
SplineSet
660 718 m 1xd8
 614 458 l 1
 755 458 l 2xb8
 851 458 908 392 908 285 c 0
 908 130 809 0 680 0 c 2
 411 0 l 1
 467 322 l 1
 237 322 l 1
 181 0 l 1
 58 0 l 1
 183 718 l 1
 306 718 l 1
 259 446 l 1
 489 446 l 1
 536 718 l 1
 660 718 l 1xd8
593 335 m 1
 555 123 l 1
 653 123 l 2
 744 123 783 180 783 261 c 0
 783 311 758 335 707 335 c 2
 593 335 l 1
EndSplineSet
EndChar

StartChar: afii10060
Encoding: 498 1035 391
Width: 650
Flags: MW
HStem: 0 21G<149 272 149 149 480 603 480 480> 347 123<409 544> 591 127<136 252 114 535 375 375 375 513>
LayerCount: 2
Fore
SplineSet
347 429 m 1
 389 476 442 470 491 470 c 0
 597 470 657 424 657 332 c 0
 657 316 655 299 652 281 c 2
 603 0 l 1
 480 0 l 1
 529 277 l 2
 530 281 530 284 530 288 c 0
 530 323 494 347 431 347 c 0
 387 347 331 332 320 272 c 2
 272 0 l 1
 149 0 l 1
 252 591 l 1
 114 591 l 1
 136 718 l 1
 535 718 l 1
 513 591 l 1
 375 591 l 1
 347 429 l 1
EndSplineSet
EndChar

StartChar: afii10061
Encoding: 499 1036 392
Width: 593
Flags: MW
HStem: 0 21G<71 194 71 71 434 434 434 592> 698 20G<197 320 320 320 545 704 704 704>
LayerCount: 2
Fore
SplineSet
457 922 m 1
 311 776 l 1
 228 776 l 1
 331 922 l 1
 457 922 l 1
194 0 m 1
 71 0 l 1
 197 718 l 1
 320 718 l 1
 275 460 l 1
 545 718 l 1
 704 718 l 1
 346 374 l 1
 592 0 l 1
 434 0 l 1
 244 284 l 1
 194 0 l 1
EndSplineSet
EndChar

StartChar: uni040D
Encoding: 500 1037 393
Width: 596
Flags: MW
HStem: 0 21G<58 187 58 58 423 423 423 537> 698 20G<184 298 298 298 541 663 663 663>
LayerCount: 2
Fore
SplineSet
460 818 m 1
 365 964 l 1
 491 964 l 1
 543 818 l 1
 460 818 l 1
512 504 m 1
 187 0 l 1
 58 0 l 1
 184 718 l 1
 298 718 l 1
 207 203 l 1
 541 718 l 1
 663 718 l 1
 537 0 l 1
 423 0 l 1
 512 504 l 1
EndSplineSet
EndChar

StartChar: afii10062
Encoding: 501 1038 394
Width: 547
Flags: W
HStem: 0 21G<86 225 86 86> 698 20G<138 283 283 283 522 661 661 661> 790 76<424.5 474>
VStem: 323 55<907.5 911> 324 54<907.5 936>
LayerCount: 2
Fore
SplineSet
547 936 m 1xf0
 600 936 l 1
 573 839 516 790 432 790 c 0
 362 790 323 832 323 908 c 0xf0
 323 914 323 924 324 936 c 1xe8
 378 936 l 1
 378 930 l 2
 378 885 399 866 450 866 c 0
 503 866 527 883 547 936 c 1xf0
225 0 m 1
 86 0 l 1
 263 282 l 1
 138 718 l 1
 283 718 l 1
 359 428 l 1
 522 718 l 1
 661 718 l 1
 225 0 l 1
EndSplineSet
EndChar

StartChar: afii10145
Encoding: 502 1039 395
Width: 590
Flags: MW
HStem: 0 123<201 248 355 355 355 431 201 533> 698 20G<183 306 306 306 536 659 659 659>
LayerCount: 2
Fore
SplineSet
248 0 m 1
 57 0 l 1
 183 718 l 1
 306 718 l 1
 201 123 l 1
 431 123 l 1
 536 718 l 1
 659 718 l 1
 533 0 l 1
 355 0 l 1
 334 -120 l 1
 227 -120 l 1
 248 0 l 1
EndSplineSet
EndChar

StartChar: afii10017
Encoding: 422 1040 315
Width: 592
Flags: MW
HStem: 0 21G<16 146 16 16 442 442 442 576> 148 124<213 417 267 417 267 430> 698 20G<352 494 494 494>
LayerCount: 2
Fore
SplineSet
213 148 m 1
 146 0 l 1
 16 0 l 1
 352 718 l 1
 494 718 l 1
 576 0 l 1
 442 0 l 1
 430 148 l 1
 213 148 l 1
394 559 m 1
 267 272 l 1
 417 272 l 1
 394 559 l 1
EndSplineSet
EndChar

StartChar: afii10018
Encoding: 423 1041 316
Width: 592
Flags: MW
HStem: 0 123<138 248> 315 122<172 338 194 329> 591 127<221 522 221 221>
VStem: 404 124<218 268.5>
LayerCount: 2
Fore
SplineSet
522 591 m 1
 221 591 l 1
 194 437 l 1
 338 437 l 2
 525 437 528 293 528 262 c 0
 528 174 494 112 446 64 c 0
 396 15 350 0 248 0 c 2
 -1 0 l 1
 125 718 l 1
 544 718 l 1
 522 591 l 1
172 315 m 1
 138 123 l 1
 289 123 l 2
 358 123 404 178 404 247 c 0
 404 290 377 315 329 315 c 2
 172 315 l 1
EndSplineSet
EndChar

StartChar: afii10019
Encoding: 424 1042 317
Width: 592
Flags: W
HStem: 0 124<202 311> 316 121<235 401 256 392> 594 124<284 284 284 425>
VStem: 467 124<235.5 270> 504 122<549.5 557>
LayerCount: 2
Fore
SplineSet
62 0 m 1xf0
 187 718 l 1
 474 718 l 2
 571 718 626 666 626 574 c 0xe8
 626 525 610 473 586 438 c 0
 570 416 555 404 525 387 c 1
 573 359 591 326 591 266 c 0
 591 197 565 127 520 77 c 0
 468 18 419 0 311 0 c 2
 62 0 l 1xf0
235 316 m 1
 202 124 l 1
 353 124 l 2
 393 124 423 139 443 168 c 0
 457 190 467 222 467 249 c 0xf0
 467 291 439 316 392 316 c 2
 235 316 l 1
284 594 m 1
 256 437 l 1
 401 437 l 2
 463 437 504 477 504 538 c 0xe8
 504 576 479 594 425 594 c 2
 284 594 l 1
EndSplineSet
EndChar

StartChar: afii10020
Encoding: 425 1043 318
Width: 501
Flags: MW
HStem: 0 21G<62 185 62 62> 591 127<288 584 288 288>
LayerCount: 2
Fore
SplineSet
185 0 m 1
 62 0 l 1
 187 718 l 1
 606 718 l 1
 584 591 l 1
 288 591 l 1
 185 0 l 1
EndSplineSet
EndChar

StartChar: afii10021
Encoding: 426 1044 319
Width: 712
Flags: MW
HStem: 0 120<80 90 -6 528 80 80> 595 123<379 545 379 379>
LayerCount: 2
Fore
SplineSet
-48 -120 m 1
 -6 120 l 1
 59 120 l 2
 121 120 206 312 237 490 c 2
 277 718 l 1
 689 718 l 1
 585 120 l 1
 656 120 l 1
 614 -120 l 1
 507 -120 l 1
 528 0 l 1
 80 0 l 1
 59 -120 l 1
 -48 -120 l 1
226 123 m 1
 462 123 l 1
 545 595 l 1
 379 595 l 1
 359 485 l 1
 339 365 294 222 226 123 c 1
EndSplineSet
EndChar

StartChar: afii10022
Encoding: 427 1045 320
Width: 547
Flags: MW
HStem: 0 127<205 509> 313 127<259 524 237 546> 591 127<285 598 285 285>
LayerCount: 2
Fore
SplineSet
620 718 m 1
 598 591 l 1
 285 591 l 1
 259 440 l 1
 546 440 l 1
 524 313 l 1
 237 313 l 1
 205 127 l 1
 531 127 l 1
 509 0 l 1
 62 0 l 1
 187 718 l 1
 620 718 l 1
EndSplineSet
EndChar

StartChar: afii10024
Encoding: 429 1046 322
Width: 900
Flags: MW
HStem: 0 21G<11 169 11 11 389 511 389 389 731 889 731 731> 698 20G<151 310 310 310 515 637 637 637 842 1001 1001 1001>
LayerCount: 2
Fore
SplineSet
515 718 m 1
 637 718 l 1
 592 460 l 1
 842 718 l 1
 1001 718 l 1
 663 374 l 1
 889 0 l 1
 731 0 l 1
 561 284 l 1
 511 0 l 1
 389 0 l 1
 439 284 l 1
 169 0 l 1
 11 0 l 1
 369 374 l 1
 151 718 l 1
 310 718 l 1
 470 460 l 1
 515 718 l 1
EndSplineSet
EndChar

StartChar: afii10025
Encoding: 430 1047 323
Width: 537
Flags: W
HStem: -19 123<244 327.5 244 342.5> 308 117<255 372 276 334> 614 123<337.5 403>
VStem: 424 123<185.5 244> 465 116<523.5 556.5>
LayerCount: 2
Fore
SplineSet
255 308 m 1xf0
 276 425 l 1
 372 425 l 2
 436 425 465 483 465 534 c 0
 465 579 432 614 374 614 c 0
 301 614 259 581 237 505 c 1
 119 505 l 1
 154 655 251 737 392 737 c 0
 513 737 581 673 581 566 c 0xe8
 581 481 547 408 501 369 c 1
 533 344 547 311 547 266 c 0
 547 54 423 -19 262 -19 c 0
 159 -19 90 22 65 98 c 0
 58 119 54 138 54 161 c 0
 54 178 56 197 60 221 c 1
 178 221 l 1
 169 142 203 104 285 104 c 0
 370 104 424 148 424 223 c 0
 424 265 404 308 334 308 c 2
 255 308 l 1xf0
EndSplineSet
EndChar

StartChar: afii10026
Encoding: 431 1048 324
Width: 596
Flags: MW
HStem: 0 21G<58 187 58 58 423 423 423 537> 698 20G<184 298 298 298 541 663 663 663>
LayerCount: 2
Fore
SplineSet
512 504 m 1
 187 0 l 1
 58 0 l 1
 184 718 l 1
 298 718 l 1
 207 203 l 1
 541 718 l 1
 663 718 l 1
 537 0 l 1
 423 0 l 1
 512 504 l 1
EndSplineSet
EndChar

StartChar: afii10027
Encoding: 432 1049 325
Width: 596
Flags: W
HStem: 0 21G<58 187 58 58 423 423 423 537> 698 20G<184 298 298 298 541 663 663 663> 790 76<436.5 486>
VStem: 335 55<907.5 911> 336 54<907.5 936>
LayerCount: 2
Fore
SplineSet
559 936 m 1xf0
 612 936 l 1
 585 839 528 790 444 790 c 0
 374 790 335 832 335 908 c 0xf0
 335 914 335 924 336 936 c 1xe8
 390 936 l 1
 390 930 l 2
 390 885 411 866 462 866 c 0
 515 866 539 883 559 936 c 1xf0
512 504 m 1
 187 0 l 1
 58 0 l 1
 184 718 l 1
 298 718 l 1
 207 203 l 1
 541 718 l 1
 663 718 l 1
 537 0 l 1
 423 0 l 1
 512 504 l 1
EndSplineSet
EndChar

StartChar: afii10029
Encoding: 434 1051 327
Width: 592
Flags: MW
HStem: 0 121<-27 -27 -27 40> 595 123<293 459 293 293>
LayerCount: 2
Fore
SplineSet
459 595 m 1
 293 595 l 1
 274 485 l 1
 239 276 128 0 -48 0 c 1
 -27 121 l 1
 35 120 121 312 152 490 c 2
 192 718 l 1
 604 718 l 1
 478 0 l 1
 355 0 l 1
 459 595 l 1
EndSplineSet
EndChar

StartChar: afii10030
Encoding: 435 1052 328
Width: 686
Flags: W
HStem: 0 21G<58 173 58 58 282 402 282 282 513 628 513 513> 698 20G<183 362 362 362 575 753 753 753>
VStem: 279 83 282 88
LayerCount: 2
Fore
SplineSet
753 718 m 1xd0
 628 0 l 1
 513 0 l 1
 619 609 l 1
 402 0 l 1
 282 0 l 1xd0
 279 609 l 1
 173 0 l 1
 58 0 l 1
 183 718 l 1
 362 718 l 1xe0
 370 148 l 1
 575 718 l 1
 753 718 l 1xd0
EndSplineSet
EndChar

StartChar: afii10031
Encoding: 436 1053 329
Width: 592
Flags: MW
HStem: 0 21G<58 181 58 58 411 411 411 534> 322 124<259 467 237 489> 698 20G<183 306 306 306 536 659 659 659>
LayerCount: 2
Fore
SplineSet
467 322 m 1
 237 322 l 1
 181 0 l 1
 58 0 l 1
 183 718 l 1
 306 718 l 1
 259 446 l 1
 489 446 l 1
 536 718 l 1
 659 718 l 1
 534 0 l 1
 411 0 l 1
 467 322 l 1
EndSplineSet
EndChar

StartChar: afii10033
Encoding: 438 1055 331
Width: 590
Flags: MW
HStem: 0 21G<57 180 57 57 410 410 410 533> 595 123<285 515 285 285>
LayerCount: 2
Fore
SplineSet
515 595 m 1
 285 595 l 1
 180 0 l 1
 57 0 l 1
 183 718 l 1
 659 718 l 1
 533 0 l 1
 410 0 l 1
 515 595 l 1
EndSplineSet
EndChar

StartChar: afii10034
Encoding: 439 1056 332
Width: 547
Flags: MW
HStem: 0 21G<62 185 62 62> 259 124<230 366 252 366 366 371> 594 124<289 386 289 289>
VStem: 480 125<510.5 549>
LayerCount: 2
Fore
SplineSet
230 259 m 1
 185 0 l 1
 62 0 l 1
 187 718 l 1
 448 718 l 2
 542 718 605 656 605 551 c 0
 605 396 531 259 371 259 c 2
 230 259 l 1
252 383 m 1
 366 383 l 2
 410 383 441 401 460 437 c 0
 472 460 480 496 480 525 c 0
 480 573 451 594 386 594 c 2
 289 594 l 1
 252 383 l 1
EndSplineSet
EndChar

StartChar: afii10036
Encoding: 441 1058 334
Width: 501
Flags: MW
HStem: 0 21G<189 312 189 189> 591 127<136 292 114 615 415 593 415 415>
LayerCount: 2
Fore
SplineSet
415 591 m 1
 312 0 l 1
 189 0 l 1
 292 591 l 1
 114 591 l 1
 136 718 l 1
 615 718 l 1
 593 591 l 1
 415 591 l 1
EndSplineSet
EndChar

StartChar: afii10037
Encoding: 442 1059 335
Width: 547
Flags: MW
HStem: 0 21G<86 225 86 86> 698 20G<138 283 283 283 522 661 661 661>
LayerCount: 2
Fore
SplineSet
225 0 m 1
 86 0 l 1
 263 282 l 1
 138 718 l 1
 283 718 l 1
 359 428 l 1
 522 718 l 1
 661 718 l 1
 225 0 l 1
EndSplineSet
EndChar

StartChar: afii10038
Encoding: 443 1060 336
Width: 776
Flags: MW
HStem: 0 21G<307 431 307 307> 698 20G<433 557 557 557>
LayerCount: 2
Fore
SplineSet
445 79 m 1
 431 0 l 1
 307 0 l 1
 320 78 l 1
 229 87 159 113 113 157 c 0
 61 207 40 281 55 363 c 0
 68 438 117 512 185 561 c 0
 244 604 327 631 419 639 c 1
 433 718 l 1
 557 718 l 1
 544 640 l 1
 634 632 706 604 751 561 c 0
 802 512 824 438 810 359 c 0
 792 256 718 166 614 119 c 1
 565 98 509 84 445 79 c 1
466 202 m 1
 587 217 668 274 683 359 c 0
 698 444 638 501 522 516 c 1
 466 202 l 1
342 203 m 1
 398 516 l 1
 340 508 287 491 252 465 c 1
 214 439 188 400 181 361 c 0
 166 274 227 217 342 203 c 1
EndSplineSet
EndChar

StartChar: afii10039
Encoding: 444 1061 337
Width: 547
Flags: MW
HStem: 0 21G<11 155 11 11 385 535 385 385> 698 20G<147 294 294 294 506 648 648 648>
LayerCount: 2
Fore
SplineSet
408 373 m 1
 535 0 l 1
 385 0 l 1
 316 245 l 1
 155 0 l 1
 11 0 l 1
 265 367 l 1
 147 718 l 1
 294 718 l 1
 358 486 l 1
 506 718 l 1
 648 718 l 1
 408 373 l 1
EndSplineSet
EndChar

StartChar: afii10040
Encoding: 445 1062 338
Width: 653
Flags: MW
HStem: 0 123<207 437 207 548> 698 20G<189 312 312 312 542 665 665 665>
LayerCount: 2
Fore
SplineSet
437 123 m 1
 542 718 l 1
 665 718 l 1
 559 120 l 1
 676 120 l 1
 634 -120 l 1
 527 -120 l 1
 548 0 l 1
 62 0 l 1
 189 718 l 1
 312 718 l 1
 207 123 l 1
 437 123 l 1
EndSplineSet
EndChar

StartChar: afii10042
Encoding: 447 1064 340
Width: 744
Flags: MW
HStem: 0 124<340 340 340 463 340 687> 698 20G<188 311 311 311 444 567 567 567 690 813 813 813>
LayerCount: 2
Fore
SplineSet
463 124 m 1
 585 123 l 1
 690 718 l 1
 813 718 l 1
 687 0 l 1
 62 0 l 1
 188 718 l 1
 311 718 l 1
 206 123 l 1
 340 124 l 1
 444 718 l 1
 567 718 l 1
 463 124 l 1
EndSplineSet
EndChar

StartChar: afii10043
Encoding: 448 1065 341
Width: 802
Flags: MW
HStem: 0 123<207 340 463 586> 698 20G<189 312 312 312 445 568 568 568 691 814 814 814>
LayerCount: 2
Fore
SplineSet
463 123 m 1
 586 123 l 1
 691 718 l 1
 814 718 l 1
 708 120 l 1
 825 120 l 1
 783 -120 l 1
 676 -120 l 1
 697 0 l 1
 62 0 l 1
 189 718 l 1
 312 718 l 1
 207 123 l 1
 340 123 l 1
 445 718 l 1
 568 718 l 1
 463 123 l 1
EndSplineSet
EndChar

StartChar: afii10044
Encoding: 449 1066 342
Width: 633
Flags: MW
HStem: 0 123<315 413 413 440> 335 123<353 515 374 467> 591 127<79 275 57 420>
VStem: 543 125<220.5 286>
LayerCount: 2
Fore
SplineSet
171 0 m 1
 275 591 l 1
 57 591 l 1
 79 718 l 1
 420 718 l 1
 374 458 l 1
 515 458 l 2
 611 458 668 392 668 285 c 0
 668 130 569 0 440 0 c 2
 171 0 l 1
353 335 m 1
 315 123 l 1
 413 123 l 2
 504 123 543 180 543 261 c 0
 543 311 518 335 467 335 c 2
 353 335 l 1
EndSplineSet
EndChar

StartChar: afii10045
Encoding: 450 1067 343
Width: 727
Flags: MW
HStem: 0 123<206 304 304 331> 335 123<244 406 265 358> 698 20G<188 311 311 311 673 796 796 796>
VStem: 434 125<220.5 286>
LayerCount: 2
Fore
SplineSet
796 718 m 1
 670 0 l 1
 547 0 l 1
 673 718 l 1
 796 718 l 1
265 458 m 1
 406 458 l 2
 502 458 559 392 559 285 c 0
 559 130 460 0 331 0 c 2
 62 0 l 1
 188 718 l 1
 311 718 l 1
 265 458 l 1
244 335 m 1
 206 123 l 1
 304 123 l 2
 395 123 434 180 434 261 c 0
 434 311 409 335 358 335 c 2
 244 335 l 1
EndSplineSet
EndChar

StartChar: afii10046
Encoding: 451 1068 344
Width: 524
Flags: MW
HStem: 0 123<206 304 304 331> 335 123<244 406 265 358> 698 20G<188 311 311 311>
VStem: 434 125<220.5 286>
LayerCount: 2
Fore
SplineSet
265 458 m 1
 406 458 l 2
 502 458 559 392 559 285 c 0
 559 130 460 0 331 0 c 2
 62 0 l 1
 188 718 l 1
 311 718 l 1
 265 458 l 1
244 335 m 1
 206 123 l 1
 304 123 l 2
 395 123 434 180 434 261 c 0
 434 311 409 335 358 335 c 2
 244 335 l 1
EndSplineSet
EndChar

StartChar: afii10047
Encoding: 452 1069 345
Width: 606
Flags: MW
HStem: -19 130<295.5 358.5 295.5 405> 313 127<309 498 287 516> 607 130<380.5 438>
VStem: 516 128<440 447 447 498>
LayerCount: 2
Fore
SplineSet
516 440 m 1
 516 447 l 2
 516 549 475 607 401 607 c 0
 360 607 322 589 295 559 c 1
 279 538 269 522 253 483 c 1
 130 483 l 1
 146 540 160 570 189 610 c 0
 249 691 334 737 427 737 c 0
 566 737 644 638 644 471 c 0
 644 202 514 -19 296 -19 c 0
 218 -19 158 13 124 74 c 0
 98 120 89 161 88 246 c 1
 211 246 l 1
 213 206 216 188 225 167 c 1
 243 130 274 111 317 111 c 0
 400 111 466 186 498 313 c 1
 287 313 l 1
 309 440 l 1
 516 440 l 1
EndSplineSet
EndChar

StartChar: afii10048
Encoding: 453 1070 346
Width: 914
Flags: MW
HStem: -19 127<573 629.5> 323 123<258 368 237 395> 610 127<687 722.5>
VStem: 363 126<225.5 258> 825 126<391.5 467>
LayerCount: 2
Fore
SplineSet
395 446 m 1
 420 528 457 594 505 642 c 0
 566 703 646 737 728 737 c 0
 803 737 870 701 909 642 c 0
 937 600 951 542 951 473 c 0
 951 310 888 155 809 76 c 0
 750 16 669 -19 590 -19 c 0
 487 -19 408 39 378 135 c 0
 368 167 363 205 363 246 c 0
 363 270 365 296 368 323 c 1
 237 323 l 1
 180 0 l 1
 57 0 l 1
 183 718 l 1
 306 718 l 1
 258 446 l 1
 395 446 l 1
703 610 m 0
 579 610 489 447 489 274 c 0
 489 169 533 108 613 108 c 0
 733 108 825 269 825 443 c 0
 825 491 816 530 798 558 c 0
 778 591 742 610 703 610 c 0
EndSplineSet
EndChar

StartChar: afii10049
Encoding: 454 1071 347
Width: 570
Flags: MW
HStem: 0 21G<16 174 16 16 375 498 375 375> 595 123<355 382 382 480>
VStem: 127 125<432 497.5 432 509>
LayerCount: 2
Fore
SplineSet
265 260 m 1
 177 266 127 333 127 431 c 0
 127 587 225 718 355 718 c 2
 624 718 l 1
 498 0 l 1
 375 0 l 1
 421 260 l 1
 174 0 l 1
 16 0 l 1
 265 260 l 1
442 383 m 1
 480 595 l 1
 382 595 l 2
 291 595 252 538 252 457 c 0
 252 407 277 383 328 383 c 2
 442 383 l 1
EndSplineSet
EndChar

StartChar: afii10066
Encoding: 456 1073 349
Width: 497
Flags: MW
HStem: -14 118<234 303.5 234 318> 428 118<327 345.5>
VStem: 60 119<173.5 201.5> 400 120<266.5 357>
LayerCount: 2
Fore
SplineSet
252 668 m 0
 344 718 407 708 446 718 c 0
 486 728 491 747 508 776 c 1
 612 776 l 1
 592 730 575 687 526 650 c 0
 472 609 424 615 369 598 c 0
 306 578 277 564 258 531 c 1
 284 541 312 546 342 546 c 0
 454 546 520 466 520 339 c 0
 520 148 396 -14 240 -14 c 0
 126 -14 60 66 60 190 c 0
 60 213 62 238 67 265 c 0
 90 400 123 599 252 668 c 0
319 428 m 0
 232 428 179 318 179 207 c 0
 179 140 207 104 261 104 c 0
 346 104 400 210 400 323 c 0
 400 391 372 428 319 428 c 0
EndSplineSet
EndChar

StartChar: afii10067
Encoding: 457 1074 350
Width: 485
Flags: W
HStem: 0 106<181 226> 228 101<202 297 220 292> 426 106<237 237 237 311>
VStem: 372 122<159 196.5 158 200.5> 395 122<388 402.5>
LayerCount: 2
Fore
SplineSet
50 0 m 1xf0
 144 532 l 1
 357 532 l 2
 458 532 517 492 517 419 c 0xe8
 517 357 482 311 424 287 c 1
 458 272 472 260 484 237 c 0
 491 223 494 206 494 187 c 0
 494 129 466 82 422 48 c 0
 374 11 328 0 226 0 c 2
 50 0 l 1xf0
202 228 m 1
 181 106 l 1
 265 106 l 2
 331 106 372 134 372 184 c 0xf0
 372 217 342 228 292 228 c 2
 202 228 l 1
237 426 m 1
 220 329 l 1
 297 329 l 2
 356 329 395 342 395 387 c 0xe8
 395 418 368 426 311 426 c 2
 237 426 l 1
EndSplineSet
EndChar

StartChar: afii10068
Encoding: 458 1075 351
Width: 380
Flags: MW
HStem: 0 21G<50 164 50 50> 418 114<238 442 238 238>
VStem: 50 412
LayerCount: 2
Fore
SplineSet
462 532 m 1
 442 418 l 1
 238 418 l 1
 164 0 l 1
 50 0 l 1
 144 532 l 1
 462 532 l 1
EndSplineSet
EndChar

StartChar: afii10069
Encoding: 459 1076 352
Width: 637
Flags: MW
HStem: 0 114<222 406 222 467> 418 114<326 459 326 326>
LayerCount: 2
Fore
SplineSet
88 110 m 2
 114 110 178 223 206 381 c 2
 232 532 l 1
 593 532 l 1
 519 110 l 1
 590 110 l 1
 550 -120 l 1
 446 -120 l 1
 467 0 l 1
 98 0 l 1
 77 -120 l 1
 -27 -120 l 1
 13 110 l 1
 88 110 l 2
222 114 m 1
 406 114 l 1
 459 418 l 1
 326 418 l 1
 321 387 l 1
 309 319 275 202 222 114 c 1
EndSplineSet
EndChar

StartChar: afii10072
Encoding: 462 1078 355
Width: 720
Flags: MW
HStem: 0 21G<12 150 12 12 301 416 301 301 568 706 568 568> 512 20G<111 252 252 252 396 510 510 510 654 795 795 795>
LayerCount: 2
Fore
SplineSet
396 532 m 1
 510 532 l 1
 477 346 l 1
 654 532 l 1
 795 532 l 1
 549 282 l 1
 706 0 l 1
 568 0 l 1
 453 208 l 1
 416 0 l 1
 301 0 l 1
 339 208 l 1
 150 0 l 1
 12 0 l 1
 269 282 l 1
 111 532 l 1
 252 532 l 1
 363 346 l 1
 396 532 l 1
EndSplineSet
EndChar

StartChar: afii10073
Encoding: 463 1079 356
Width: 457
Flags: W
HStem: -14 107<221 278 221 294> 223 94<274 281> 439 107<301 330>
VStem: 339 120<142 179> 371 111<380.5 403.5>
LayerCount: 2
Fore
SplineSet
274 223 m 2xf0
 228 224 l 1
 244 316 l 1
 281 317 l 2
 354 319 371 362 371 390 c 0
 371 417 350 439 310 439 c 0
 260 439 237 422 219 370 c 1
 106 370 l 1
 128 444 149 478 190 507 c 0
 226 532 274 546 328 546 c 0
 401 546 449 521 470 470 c 0
 478 451 482 430 482 408 c 0xe8
 482 353 464 311 435 280 c 1
 450 247 l 2
 456 233 459 218 459 203 c 0
 459 72 358 -14 230 -14 c 0
 171 -14 121 3 90 33 c 0
 64 58 53 84 53 131 c 0
 53 143 54 155 55 170 c 1
 173 170 l 1
 166 117 190 93 252 93 c 0
 304 93 339 118 339 166 c 0
 339 192 327 222 274 223 c 2xf0
EndSplineSet
EndChar

StartChar: afii10074
Encoding: 464 1080 357
Width: 503
Flags: MW
HStem: 0 21G<53 184 53 53 334 448 334 334> 512 20G<147 261 261 261 411 542 542 542>
VStem: 53 489
LayerCount: 2
Fore
SplineSet
542 532 m 1
 448 0 l 1
 334 0 l 1
 394 342 l 1
 184 0 l 1
 53 0 l 1
 147 532 l 1
 261 532 l 1
 200 189 l 1
 411 532 l 1
 542 532 l 1
EndSplineSet
EndChar

StartChar: afii10075
Encoding: 465 1081 358
Width: 504
Flags: W
HStem: 0 21G<53 184 53 53 334 448 334 334> 512 20G<147 261 261 261 411 542 542 542> 604 76<367.5 417>
VStem: 266 55<721.5 725> 267 54<721.5 750>
LayerCount: 2
Fore
SplineSet
542 532 m 1xe0
 448 0 l 1
 334 0 l 1
 394 342 l 1
 184 0 l 1
 53 0 l 1
 147 532 l 1
 261 532 l 1
 200 189 l 1
 411 532 l 1
 542 532 l 1xe0
490 750 m 1
 543 750 l 1
 516 653 459 604 375 604 c 0
 305 604 266 646 266 722 c 0xf0
 266 728 266 738 267 750 c 1xe8
 321 750 l 1
 321 744 l 2xf0
 321 699 342 680 393 680 c 0
 446 680 470 697 490 750 c 1
EndSplineSet
EndChar

StartChar: afii10076
Encoding: 466 1082 359
Width: 457
Flags: MW
HStem: 0 21G<57 171 57 57 323 323 323 461> 512 20G<151 265 265 265 409 550 550 550>
VStem: 57 493
LayerCount: 2
Fore
SplineSet
171 0 m 1
 57 0 l 1
 151 532 l 1
 265 532 l 1
 232 346 l 1
 409 532 l 1
 550 532 l 1
 304 282 l 1
 461 0 l 1
 323 0 l 1
 208 208 l 1
 171 0 l 1
EndSplineSet
EndChar

StartChar: afii10077
Encoding: 467 1083 360
Width: 496
Flags: MW
HStem: 0 21G<-29 43.5 288 402 288 288> 418 114<228 361 228 228>
LayerCount: 2
Fore
SplineSet
494 532 m 1
 402 0 l 1
 288 0 l 1
 361 418 l 1
 228 418 l 1
 222 387 l 1
 202 269 116 0 -29 0 c 1
 -9 115 l 1
 17 115 79 223 107 381 c 2
 133 532 l 1
 494 532 l 1
EndSplineSet
EndChar

StartChar: afii10078
Encoding: 468 1084 361
Width: 648
Flags: MW
HStem: 0 21G<53 167 53 53 259 380 259 259 479 593 479 479> 512 20G<147 325 325 325 509 687 687 687>
LayerCount: 2
Fore
SplineSet
147 532 m 1
 325 532 l 1
 346 136 l 1
 509 532 l 1
 687 532 l 1
 593 0 l 1
 479 0 l 1
 538 335 l 1
 380 0 l 1
 259 0 l 1
 222 313 l 1
 167 0 l 1
 53 0 l 1
 147 532 l 1
EndSplineSet
EndChar

StartChar: afii10079
Encoding: 469 1085 362
Width: 503
Flags: MW
HStem: 0 21G<53 167 53 53 334 448 334 334> 240 114<227 374 207 394> 512 20G<147 261 261 261 428 542 542 542>
VStem: 53 489
LayerCount: 2
Fore
SplineSet
542 532 m 1
 448 0 l 1
 334 0 l 1
 374 240 l 1
 207 240 l 1
 167 0 l 1
 53 0 l 1
 147 532 l 1
 261 532 l 1
 227 354 l 1
 394 354 l 1
 428 532 l 1
 542 532 l 1
EndSplineSet
EndChar

StartChar: afii10082
Encoding: 472 1088 365
Width: 501
Flags: MW
HStem: -14 115<257.5 297 253.5 317.5> 425 121<312 431>
VStem: 407 122<306.5 355.5>
LayerCount: 2
Fore
SplineSet
254 532 m 1
 240 452 l 1
 288 521 327 546 387 546 c 0
 475 546 529 475 529 358 c 0
 529 255 495 143 443 73 c 0
 399 15 348 -14 287 -14 c 0
 228 -14 198 10 178 71 c 1
 130 -207 l 1
 15 -207 l 1
 144 532 l 1
 254 532 l 1
332 425 m 0
 292 425 258 401 237 357 c 0
 215 312 201 253 201 202 c 0
 201 138 229 101 278 101 c 0
 316 101 349 126 373 174 c 0
 394 216 407 272 407 322 c 0
 407 389 381 425 332 425 c 0
EndSplineSet
EndChar

StartChar: afii10083
Encoding: 473 1089 366
Width: 456
Flags: MW
HStem: -14 115<230 272.5 230 283> 428 118<294.5 334.5>
VStem: 65 120<161 218 161 221> 373 118<342 434>
LayerCount: 2
Fore
SplineSet
346 194 m 1
 463 194 l 1
 422 60 339 -14 227 -14 c 0
 122 -14 65 51 65 170 c 0
 65 272 99 386 150 453 c 0
 196 514 258 546 329 546 c 0
 427 546 491 483 491 385 c 0
 491 374 490 358 489 342 c 1
 373 342 l 1
 372 402 355 428 314 428 c 0
 275 428 245 406 222 361 c 0
 200 320 185 247 185 189 c 0
 185 133 209 101 251 101 c 0
 294 101 332 138 346 194 c 1
EndSplineSet
EndChar

StartChar: afii10084
Encoding: 474 1090 367
Width: 370
Flags: MW
HStem: 0 21G<125 239 125 125> 432 100<100 201 82 452 315 434 315 315>
VStem: 82 370<432 532>
LayerCount: 2
Fore
SplineSet
452 532 m 1
 434 432 l 1
 315 432 l 1
 239 0 l 1
 125 0 l 1
 201 432 l 1
 82 432 l 1
 100 532 l 1
 452 532 l 1
EndSplineSet
EndChar

StartChar: afii10085
Encoding: 475 1091 368
Width: 456
Flags: MW
HStem: -214 112<82.5 102 73.5 135.5> 512 20G<101 229 229 229 413 535 535 535>
LayerCount: 2
Fore
SplineSet
535 532 m 1
 293 9 l 2
 198 -197 183 -214 88 -214 c 0
 77 -214 61 -213 34 -212 c 1
 54 -100 l 1
 61 -101 69 -102 78 -102 c 0
 126 -102 143 -87 165 -22 c 1
 101 532 l 1
 229 532 l 1
 254 136 l 1
 413 532 l 1
 535 532 l 1
EndSplineSet
EndChar

StartChar: afii10086
Encoding: 476 1092 369
Width: 786
Flags: MW
HStem: -14 115<235.5 239.5 542.5 599> 424 122<279.5 336.5 237.5 342.5 641.5 642.5>
VStem: 66 120<174 261.5 174 271.5> 392 94<168.5 358> 693 122<265 353>
LayerCount: 2
Fore
SplineSet
448 637 m 1
 562 637 l 1
 530 452 l 1
 573 524 612 546 671 546 c 0
 762 546 815 473 815 355 c 0
 815 172 708 -14 572 -14 c 0
 513 -14 482 10 463 71 c 1
 414 -207 l 1
 300 -207 l 1
 349 71 l 1
 308 10 269 -14 210 -14 c 0
 118 -14 66 63 66 180 c 0
 66 363 168 546 307 546 c 0
 366 546 405 522 416 452 c 1
 448 637 l 1
318 424 m 0
 241 424 186 316 186 207 c 0
 186 141 212 101 259 101 c 0
 342 101 392 214 392 325 c 0
 392 391 367 424 318 424 c 0
618 424 m 0
 538 424 486 312 486 201 c 0
 486 136 513 101 563 101 c 0
 635 101 693 210 693 320 c 0
 693 386 667 424 618 424 c 0
EndSplineSet
EndChar

StartChar: afii10087
Encoding: 477 1093 370
Width: 456
Flags: MW
HStem: 0 21G<12 151 12 12 301 443 301 301> 512 20G<110 250 250 250 396 531 531 531>
LayerCount: 2
Fore
SplineSet
342 271 m 1
 443 0 l 1
 301 0 l 1
 254 160 l 1
 151 0 l 1
 12 0 l 1
 208 271 l 1
 110 532 l 1
 250 532 l 1
 297 377 l 1
 396 532 l 1
 531 532 l 1
 342 271 l 1
EndSplineSet
EndChar

StartChar: afii10088
Encoding: 478 1094 371
Width: 571
Flags: MW
HStem: 0 114<187 354 187 458> 512 20G<146 260 260 260 427 541 541 541>
LayerCount: 2
Fore
SplineSet
458 0 m 1
 53 0 l 1
 146 532 l 1
 260 532 l 1
 187 114 l 1
 354 114 l 1
 427 532 l 1
 541 532 l 1
 467 110 l 1
 581 110 l 1
 541 -120 l 1
 437 -120 l 1
 458 0 l 1
EndSplineSet
EndChar

StartChar: afii10089
Encoding: 479 1095 372
Width: 418
Flags: MW
HStem: 0 21G<250 364 250 250> 164 97<150.5 245> 512 20G<90 204 204 204 344 458 458 458>
LayerCount: 2
Fore
SplineSet
458 532 m 1
 364 0 l 1
 250 0 l 1
 282 186 l 1
 256 166 216 164 172 164 c 0
 129 164 48 192 48 284 c 0
 48 293 49 303 51 313 c 2
 90 532 l 1
 204 532 l 1
 165 316 l 2
 163 310 162 304 162 298 c 0
 162 279 176 261 228 261 c 0
 262 261 293 283 305 316 c 1
 344 532 l 1
 458 532 l 1
EndSplineSet
EndChar

StartChar: afii10090
Encoding: 480 1096 373
Width: 678
Flags: MW
HStem: 0 114<187 301 415 529> 512 20G<147 261 261 261 375 489 489 489 603 717 717 717>
LayerCount: 2
Fore
SplineSet
415 114 m 1
 529 114 l 1
 603 532 l 1
 717 532 l 1
 623 0 l 1
 53 0 l 1
 147 532 l 1
 261 532 l 1
 187 114 l 1
 301 114 l 1
 375 532 l 1
 489 532 l 1
 415 114 l 1
EndSplineSet
EndChar

StartChar: afii10091
Encoding: 481 1097 374
Width: 746
Flags: MW
HStem: 0 114<187 301 415 529> 512 20G<146 260 260 260 374 488 488 488 602 716 716 716>
LayerCount: 2
Fore
SplineSet
415 114 m 1
 529 114 l 1
 602 532 l 1
 716 532 l 1
 642 110 l 1
 756 110 l 1
 716 -120 l 1
 612 -120 l 1
 633 0 l 1
 53 0 l 1
 146 532 l 1
 260 532 l 1
 187 114 l 1
 301 114 l 1
 374 532 l 1
 488 532 l 1
 415 114 l 1
EndSplineSet
EndChar

StartChar: afii10092
Encoding: 482 1098 375
Width: 548
Flags: MW
HStem: 0 106<266 311> 228 101<287 382 305 377> 432 100<100 211 82 341>
VStem: 457 122<159 200.5>
LayerCount: 2
Fore
SplineSet
100 532 m 1
 341 532 l 1
 305 329 l 1
 382 329 l 2
 554 329 579 233 579 187 c 0
 579 128 551 82 507 48 c 0
 459 11 413 0 311 0 c 2
 135 0 l 1
 211 432 l 1
 82 432 l 1
 100 532 l 1
287 228 m 1
 266 106 l 1
 350 106 l 2
 416 106 457 134 457 184 c 0
 457 217 427 228 377 228 c 2
 287 228 l 1
EndSplineSet
EndChar

StartChar: afii10093
Encoding: 483 1099 376
Width: 687
Flags: MW
HStem: 0 106<184 229> 228 101<205 300 223 295> 512 20G<147 259 259 259 612 726 726 726>
VStem: 375 122<159 196.5 158 200.5>
LayerCount: 2
Fore
SplineSet
612 532 m 1
 726 532 l 1
 632 0 l 1
 518 0 l 1
 612 532 l 1
259 532 m 1
 223 329 l 1
 300 329 l 2
 459 329 475 260 487 237 c 0
 494 223 497 206 497 187 c 0
 497 129 469 82 425 48 c 0
 377 11 331 0 229 0 c 2
 53 0 l 1
 147 532 l 1
 259 532 l 1
205 228 m 1
 184 106 l 1
 268 106 l 2
 334 106 375 134 375 184 c 0
 375 217 345 228 295 228 c 2
 205 228 l 1
EndSplineSet
EndChar

StartChar: afii10094
Encoding: 484 1100 377
Width: 458
Flags: MW
HStem: 0 106<184 229> 228 101<205 300 223 295> 512 20G<147 259 259 259>
VStem: 375 122<159 196.5 158 200.5>
LayerCount: 2
Fore
SplineSet
259 532 m 1
 223 329 l 1
 300 329 l 2
 459 329 475 260 487 237 c 0
 494 223 497 206 497 187 c 0
 497 129 469 82 425 48 c 0
 377 11 331 0 229 0 c 2
 53 0 l 1
 147 532 l 1
 259 532 l 1
205 228 m 1
 184 106 l 1
 268 106 l 2
 334 106 375 134 375 184 c 0
 375 217 345 228 295 228 c 2
 205 228 l 1
EndSplineSet
EndChar

StartChar: afii10095
Encoding: 485 1101 378
Width: 462
Flags: MW
HStem: -14 115<225 271.5 225 310.5> 221 114<264 354 244 369> 428 118<287 321>
VStem: 369 120<335 366>
LayerCount: 2
Fore
SplineSet
369 335 m 1
 369 397 344 428 298 428 c 0
 257 428 230 402 208 342 c 1
 92 342 l 1
 107 395 118 421 141 452 c 0
 184 512 251 546 323 546 c 0
 430 546 489 474 489 349 c 0
 489 163 390 -14 231 -14 c 0
 118 -14 61 59 67 194 c 1
 183 194 l 1
 178 138 203 101 247 101 c 0
 296 101 332 142 354 221 c 1
 244 221 l 1
 264 335 l 1
 369 335 l 1
EndSplineSet
EndChar

StartChar: afii10096
Encoding: 486 1102 379
Width: 723
Flags: MW
HStem: -14 118<463 533 463 548.5> 221 114<226 291 206 314> 428 118<511.5 575.5>
VStem: 290 118<173.5 194> 630 119<267.5 357.5>
LayerCount: 2
Fore
SplineSet
291 221 m 1
 206 221 l 1
 167 0 l 1
 53 0 l 1
 147 532 l 1
 261 532 l 1
 226 335 l 1
 314 335 l 1
 357 467 452 546 571 546 c 0
 683 546 749 466 749 340 c 0
 749 150 627 -14 470 -14 c 0
 356 -14 290 64 290 189 c 0
 290 199 290 210 291 221 c 1
549 428 m 0
 463 428 408 319 408 207 c 0
 408 140 436 104 490 104 c 0
 576 104 630 211 630 324 c 0
 630 391 602 428 549 428 c 0
EndSplineSet
EndChar

StartChar: afii10097
Encoding: 487 1103 380
Width: 487
Flags: MW
HStem: 0 21G<32 170 32 32 320 320 320 432> 426 106<278 526 350 395>
VStem: 82 122<335.5 373 331.5 374>
LayerCount: 2
Fore
SplineSet
356 203 m 1
 170 0 l 1
 32 0 l 1
 220 207 l 1
 117 222 102 275 92 295 c 0
 85 309 82 326 82 345 c 0
 82 403 110 450 154 484 c 0
 202 521 248 532 350 532 c 2
 526 532 l 1
 432 0 l 1
 320 0 l 1
 356 203 l 1
374 304 m 1
 395 426 l 1
 311 426 l 2
 245 426 204 398 204 348 c 0
 204 315 234 304 284 304 c 2
 374 304 l 1
EndSplineSet
EndChar

StartChar: afii10099
Encoding: 504 1106 397
Width: 518
Flags: MW
HStem: -135 73<315 334 315 382.5> 0 21G<95 210 95 95> 336 118<331 456> 505 100<113 184 95 198 313 437> 698 20G<220 335 335 335>
LayerCount: 2
Fore
SplineSet
315 -135 m 1
 315 -62 l 1
 353 -62 369 -36 375 -2 c 2
 414 231 l 2
 416 249 419 266 419 276 c 0
 419 314 397 336 359 336 c 0
 303 336 259 289 246 213 c 2
 210 0 l 1
 95 0 l 1
 184 505 l 1
 95 505 l 1
 113 605 l 1
 198 605 l 1
 220 718 l 1
 335 718 l 1
 313 605 l 1
 455 605 l 1
 437 505 l 1
 298 505 l 1
 273 367 l 1
 306 424 356 454 418 454 c 0
 494 454 541 403 541 321 c 0
 541 307 539 292 537 276 c 2
 489 -2 l 2
 473 -98 450 -135 315 -135 c 1
EndSplineSet
EndChar

StartChar: afii10100
Encoding: 505 1107 398
Width: 380
Flags: MW
HStem: 0 21G<50 164 50 50> 418 114<238 442 238 238>
VStem: 50 412
LayerCount: 2
Fore
SplineSet
405 740 m 1
 259 594 l 1
 176 594 l 1
 279 740 l 1
 405 740 l 1
462 532 m 1
 442 418 l 1
 238 418 l 1
 164 0 l 1
 50 0 l 1
 144 532 l 1
 462 532 l 1
EndSplineSet
EndChar

StartChar: afii10101
Encoding: 506 1108 399
Width: 456
Flags: MW
HStem: -14 115<225 272 225 282.5> 221 114<210 295 186 315> 428 118<291.5 335.5>
LayerCount: 2
Fore
SplineSet
210 335 m 1
 315 335 l 1
 295 221 l 1
 186 221 l 1
 179 142 200 101 250 101 c 0
 294 101 331 138 346 194 c 1
 462 194 l 1
 422 59 339 -14 226 -14 c 0
 97 -14 42 84 73 259 c 0
 105 439 200 546 330 546 c 0
 402 546 457 512 480 452 c 0
 491 421 494 395 489 342 c 1
 373 342 l 1
 373 402 356 428 315 428 c 0
 268 428 232 397 210 335 c 1
EndSplineSet
EndChar

StartChar: afii10102
Encoding: 507 1109 400
Width: 456
Flags: MW
HStem: -14 106<225.5 263.5> 440 106<274.5 320>
VStem: 52 119<131.5 134.5> 338 121<136 234>
LayerCount: 2
Fore
SplineSet
478 370 m 1
 365 370 l 1
 365 377 l 1
 365 388 l 1
 363 423 342 440 298 440 c 0
 251 440 220 417 220 382 c 0
 220 360 249 343 305 331 c 1
 409 311 459 268 459 200 c 0
 459 146 434 86 397 48 c 0
 357 8 297 -14 230 -14 c 0
 119 -14 52 40 52 129 c 0
 52 140 53 155 54 170 c 1
 172 170 l 1
 171 162 171 155 171 150 c 0
 171 113 200 92 251 92 c 0
 302 92 338 118 338 154 c 0
 338 177 308 195 252 206 c 0
 151 225 101 268 101 335 c 0
 101 368 111 405 127 437 c 0
 164 509 229 546 317 546 c 0
 425 546 479 499 479 404 c 0
 479 398 479 384 478 370 c 1
EndSplineSet
EndChar

StartChar: afii10103
Encoding: 508 1110 401
Width: 228
Flags: MW
HStem: 0 21G<57 172 57 57> 512 20G<150 264 264 264> 595 130<183 275 161 298>
VStem: 57 241
LayerCount: 2
Fore
SplineSet
150 532 m 1
 264 532 l 1
 172 0 l 1
 57 0 l 1
 150 532 l 1
298 725 m 1
 275 595 l 1
 161 595 l 1
 183 725 l 1
 298 725 l 1
EndSplineSet
EndChar

StartChar: afii10104
Encoding: 509 1111 402
Width: 228
Flags: MW
HStem: 0 21G<57 171 57 57> 512 20G<150 264 264 264> 632 115<113 196 93 216 113 253 273 356>
VStem: 57 319
LayerCount: 2
Fore
SplineSet
216 747 m 1
 196 632 l 1
 93 632 l 1
 113 747 l 1
 216 747 l 1
376 747 m 1
 356 632 l 1
 253 632 l 1
 273 747 l 1
 376 747 l 1
150 532 m 1
 264 532 l 1
 171 0 l 1
 57 0 l 1
 150 532 l 1
EndSplineSet
EndChar

StartChar: afii10105
Encoding: 510 1112 403
Width: 228
Flags: MW
HStem: 512 20G<149 264 264 264> 595 130<183 275 160 298>
VStem: -35 333
LayerCount: 2
Fore
SplineSet
264 532 m 1
 162 -56 l 2
 141 -175 100 -214 -6 -214 c 2
 -35 -214 l 1
 -15 -102 l 1
 5 -102 l 2
 29 -102 41 -88 47 -53 c 2
 149 532 l 1
 264 532 l 1
298 725 m 1
 275 595 l 1
 160 595 l 1
 183 725 l 1
 298 725 l 1
EndSplineSet
EndChar

StartChar: afii10106
Encoding: 511 1113 404
Width: 730
Flags: MW
HStem: 0 106<420 465> 228 101<441 536 459 531> 418 114<228 361 228 228>
VStem: 611 122<159 196.5 158 200.5>
LayerCount: 2
Fore
SplineSet
289 0 m 1
 361 418 l 1
 228 418 l 1
 222 387 l 1
 202 269 116 0 -29 0 c 1
 -9 115 l 1
 17 115 79 223 107 381 c 2
 133 532 l 1
 495 532 l 1
 459 329 l 1
 536 329 l 2
 695 329 711 260 723 237 c 0
 730 223 733 206 733 187 c 0
 733 129 705 82 661 48 c 0
 613 11 567 0 465 0 c 2
 289 0 l 1
441 228 m 1
 420 106 l 1
 504 106 l 2
 570 106 611 134 611 184 c 0
 611 217 581 228 531 228 c 2
 441 228 l 1
EndSplineSet
EndChar

StartChar: afii10107
Encoding: 512 1114 405
Width: 739
Flags: W
HStem: 0 106<465 510> 221 114<226 373 206 393> 228 101<486 581 504 576> 512 20G<147 261 261 261 428 540 540 540>
LayerCount: 2
Fore
SplineSet
540 532 m 1xd0
 504 329 l 1
 581 329 l 2xb0
 740 329 756 260 768 237 c 0
 778 216 781 189 776 160 c 0
 769 117 745 78 706 48 c 0
 658 11 612 0 510 0 c 2
 334 0 l 1
 373 221 l 1
 206 221 l 1
 167 0 l 1
 53 0 l 1
 147 532 l 1
 261 532 l 1
 226 335 l 1
 393 335 l 1
 428 532 l 1
 540 532 l 1xd0
486 228 m 1
 465 106 l 1
 549 106 l 2
 611 106 647 123 655 172 c 1
 663 214 632 228 576 228 c 2
 486 228 l 1
EndSplineSet
EndChar

StartChar: afii10108
Encoding: 513 1115 406
Width: 518
Flags: MW
HStem: 0 21G<95 210 95 95 375 490 375 375> 336 118<331 456> 505 100<113 184 95 198 313 437> 698 20G<220 335 335 335>
LayerCount: 2
Fore
SplineSet
198 605 m 1
 220 718 l 1
 335 718 l 1
 313 605 l 1
 455 605 l 1
 437 505 l 1
 298 505 l 1
 273 367 l 1
 306 424 356 454 418 454 c 0
 494 454 541 403 541 321 c 0
 541 307 540 292 537 276 c 2
 490 0 l 1
 375 0 l 1
 414 231 l 2
 417 249 419 266 419 276 c 0
 419 314 397 336 359 336 c 0
 303 336 259 289 246 213 c 2
 210 0 l 1
 95 0 l 1
 184 505 l 1
 95 505 l 1
 113 605 l 1
 198 605 l 1
EndSplineSet
EndChar

StartChar: afii10110
Encoding: 516 1118 409
Width: 456
Flags: W
HStem: -214 112<82.5 102 73.5 135.5> 512 20G<101 229 229 229 413 535 535 535> 604 76<320.5 370>
VStem: 219 55<721.5 725> 220 54<721.5 750>
LayerCount: 2
Fore
SplineSet
443 750 m 1xf0
 496 750 l 1
 469 653 412 604 328 604 c 0
 258 604 219 646 219 722 c 0xf0
 219 728 219 738 220 750 c 1xe8
 274 750 l 1
 274 744 l 2
 274 699 295 680 346 680 c 0
 399 680 423 697 443 750 c 1xf0
535 532 m 1
 293 9 l 2
 198 -197 183 -214 88 -214 c 0
 77 -214 61 -213 34 -212 c 1
 54 -100 l 1
 61 -101 69 -102 78 -102 c 0
 126 -102 143 -87 165 -22 c 1
 101 532 l 1
 229 532 l 1
 254 136 l 1
 413 532 l 1
 535 532 l 1
EndSplineSet
EndChar

StartChar: afii10193
Encoding: 517 1119 410
Width: 503
Flags: MW
HStem: 0 114<187 206 310 310 310 354 187 448> 512 20G<147 261 261 261 428 542 542 542>
VStem: 53 489
LayerCount: 2
Fore
SplineSet
206 0 m 1
 53 0 l 1
 147 532 l 1
 261 532 l 1
 187 114 l 1
 354 114 l 1
 428 532 l 1
 542 532 l 1
 448 0 l 1
 310 0 l 1
 289 -120 l 1
 185 -120 l 1
 206 0 l 1
EndSplineSet
EndChar

StartChar: uni048C
Encoding: 518 1164 411
Width: 584
Flags: MW
HStem: 0 123<266 364 364 391> 335 123<304 466 325 418> 557 92<147 220 130 236 359 443> 698 20G<248 371 371 371>
VStem: 494 125<220.5 286>
LayerCount: 2
Fore
SplineSet
304 335 m 1
 266 123 l 1
 364 123 l 2
 455 123 494 180 494 261 c 0
 494 311 469 335 418 335 c 2
 304 335 l 1
325 458 m 1
 466 458 l 2
 562 458 619 392 619 285 c 0
 619 130 520 0 391 0 c 2
 122 0 l 1
 220 557 l 1
 130 557 l 1
 147 649 l 1
 236 649 l 1
 248 718 l 1
 371 718 l 1
 359 649 l 1
 460 649 l 1
 443 557 l 1
 343 557 l 1
 325 458 l 1
EndSplineSet
EndChar

StartChar: uni048D
Encoding: 519 1165 412
Width: 508
Flags: MW
HStem: 0 106<234 279> 228 101<255 350 273 345> 377 92<107 170 90 186 298 353> 512 20G<197 309 309 309>
VStem: 425 122<159 196.5 158 200.5>
LayerCount: 2
Fore
SplineSet
255 228 m 1
 234 106 l 1
 318 106 l 2
 384 106 425 134 425 184 c 0
 425 217 395 228 345 228 c 2
 255 228 l 1
186 469 m 1
 197 532 l 1
 309 532 l 1
 298 469 l 1
 370 469 l 1
 353 377 l 1
 282 377 l 1
 273 329 l 1
 350 329 l 2
 509 329 525 260 537 237 c 0
 544 223 547 206 547 187 c 0
 547 129 519 82 475 48 c 0
 427 11 381 0 279 0 c 2
 103 0 l 1
 170 377 l 1
 90 377 l 1
 107 469 l 1
 186 469 l 1
EndSplineSet
EndChar

StartChar: uni048E
Encoding: 520 1166 413
Width: 583
Flags: MW
HStem: 0 21G<62 185 62 62> 259 124<230 366 252 366 366 371> 594 124<289 386 289 289>
VStem: 480 125<518 549>
LayerCount: 2
Fore
SplineSet
252 383 m 1
 366 383 l 2
 378 383 390 384 400 387 c 1
 351 446 l 1
 414 522 l 1
 468 457 l 1
 476 478 480 503 480 525 c 0
 480 573 451 594 386 594 c 2
 289 594 l 1
 252 383 l 1
230 259 m 1
 185 0 l 1
 62 0 l 1
 187 718 l 1
 456 718 l 2
 550 718 605 656 605 551 c 0
 605 485 584 415 548 361 c 1
 616 280 l 1
 553 204 l 1
 480 291 l 1
 448 270 412 259 371 259 c 2
 230 259 l 1
EndSplineSet
EndChar

StartChar: uni048F
Encoding: 521 1167 414
Width: 541
Flags: MW
HStem: -14 115<257.5 288 253.5 309.5> 425 121<312 431>
VStem: 407 122<315.5 355.5>
LayerCount: 2
Fore
SplineSet
332 425 m 0
 292 425 258 401 237 357 c 0
 215 312 201 253 201 202 c 0
 201 138 229 101 278 101 c 0
 298 101 317 108 334 122 c 1
 271 198 l 1
 334 274 l 1
 388 210 l 1
 400 245 407 285 407 322 c 0
 407 389 381 425 332 425 c 0
254 532 m 1
 240 452 l 1
 288 521 327 546 387 546 c 0
 475 546 529 475 529 358 c 0
 529 273 506 182 468 113 c 1
 536 32 l 1
 473 -44 l 1
 408 34 l 1
 372 2 332 -14 287 -14 c 0
 228 -14 198 10 178 71 c 1
 130 -207 l 1
 15 -207 l 1
 144 532 l 1
 254 532 l 1
EndSplineSet
EndChar

StartChar: afii10050
Encoding: 522 1168 415
Width: 541
Flags: MW
HStem: 0 21G<62 185 62 62> 591 127<289 484 188 585 289 289>
LayerCount: 2
Fore
SplineSet
185 0 m 1
 62 0 l 1
 188 718 l 1
 484 718 l 1
 502 822 l 1
 625 822 l 1
 585 591 l 1
 289 591 l 1
 185 0 l 1
EndSplineSet
EndChar

StartChar: afii10098
Encoding: 523 1169 416
Width: 424
Flags: MW
HStem: 0 21G<50 164 50 50> 418 114<143 441 143 237>
VStem: 50 430
LayerCount: 2
Fore
SplineSet
480 640 m 1
 441 418 l 1
 237 418 l 1
 164 0 l 1
 50 0 l 1
 143 532 l 1
 354 533 l 1
 372 640 l 1
 480 640 l 1
EndSplineSet
EndChar

StartChar: uni0492
Encoding: 524 1170 417
Width: 501
Flags: MW
HStem: 0 21G<62 185 62 62> 360 124<83 125 62 146 269 383 83 248> 591 127<288 584 288 288>
LayerCount: 2
Fore
SplineSet
248 360 m 1
 185 0 l 1
 62 0 l 1
 125 360 l 1
 62 360 l 1
 83 484 l 1
 146 484 l 1
 187 718 l 1
 606 718 l 1
 584 591 l 1
 288 591 l 1
 269 484 l 1
 404 484 l 1
 383 360 l 1
 248 360 l 1
EndSplineSet
EndChar

StartChar: uni0493
Encoding: 525 1171 418
Width: 380
Flags: MW
HStem: 0 21G<50 164 50 50> 266 94<62 98 46 114 228 301> 418 114<238 442 238 238>
VStem: 46 416<266 532>
LayerCount: 2
Fore
SplineSet
98 266 m 1
 46 266 l 1
 62 360 l 1
 114 360 l 1
 144 532 l 1
 462 532 l 1
 442 418 l 1
 238 418 l 1
 228 360 l 1
 318 360 l 1
 301 266 l 1
 211 266 l 1
 164 0 l 1
 50 0 l 1
 98 266 l 1
EndSplineSet
EndChar

StartChar: uni0494
Encoding: 526 1172 419
Width: 574
Flags: MW
HStem: -138 79<294 325.5 294 361.5> 0 21G<62 185 62 62 393 393 516 516> 347 123<322 457> 591 127<288 584 288 288>
LayerCount: 2
Fore
SplineSet
185 0 m 1
 62 0 l 1
 187 718 l 1
 606 718 l 1
 584 591 l 1
 288 591 l 1
 258 428 l 1
 306 462 355 470 404 470 c 0
 510 470 570 424 570 332 c 0
 570 316 568 299 565 281 c 2
 516 0 l 2
 494 -126 429 -138 294 -138 c 1
 294 -59 l 1
 357 -59 387 -32 393 0 c 2
 442 277 l 2
 443 281 443 284 443 288 c 0
 443 323 407 347 344 347 c 0
 300 347 242 332 232 272 c 2
 185 0 l 1
EndSplineSet
EndChar

StartChar: uni0495
Encoding: 527 1173 420
Width: 491
Flags: MW
HStem: -135 73<269 288 269 336.5> 0 21G<50 164 50 50> 216 118<264 389> 418 114<238 442 238 238>
LayerCount: 2
Fore
SplineSet
206 247 m 1
 239 304 289 334 351 334 c 0
 427 334 474 283 474 201 c 0
 474 187 472 172 470 156 c 2
 443 -2 l 2
 427 -98 404 -135 269 -135 c 1
 269 -62 l 1
 307 -62 323 -36 329 -2 c 2
 347 111 l 2
 349 129 352 146 352 156 c 0
 352 194 330 216 292 216 c 0
 236 216 191 169 179 93 c 2
 164 0 l 1
 50 0 l 1
 144 532 l 1
 462 532 l 1
 442 418 l 1
 238 418 l 1
 206 247 l 1
EndSplineSet
EndChar

StartChar: uni0496
Encoding: 528 1174 421
Width: 900
Flags: MW
HStem: -20 20G<11 169 11 11 389 511 389 389 731 782 731 731> 698 20G<151 310 310 310 515 637 637 637 842 1001 1001 1001>
LayerCount: 2
Fore
SplineSet
816 120 m 1
 910 120 l 1
 868 -120 l 1
 761 -120 l 1
 782 0 l 1
 731 0 l 1
 561 284 l 1
 511 0 l 1
 389 0 l 1
 439 284 l 1
 169 0 l 1
 11 0 l 1
 369 374 l 1
 151 718 l 1
 310 718 l 1
 470 460 l 1
 515 718 l 1
 637 718 l 1
 592 460 l 1
 842 718 l 1
 1001 718 l 1
 663 374 l 1
 816 120 l 1
EndSplineSet
EndChar

StartChar: uni0497
Encoding: 529 1175 422
Width: 720
Flags: MW
HStem: -20 20G<12 150 12 12 301 416 301 301 568 602 568 568> 512 20G<111 252 252 252 396 510 510 510 654 795 795 795>
LayerCount: 2
Fore
SplineSet
645 110 m 1
 725 110 l 1
 685 -120 l 1
 581 -120 l 1
 602 0 l 1
 568 0 l 1
 453 208 l 1
 416 0 l 1
 301 0 l 1
 339 208 l 1
 150 0 l 1
 12 0 l 1
 269 282 l 1
 111 532 l 1
 252 532 l 1
 363 346 l 1
 396 532 l 1
 510 532 l 1
 477 346 l 1
 654 532 l 1
 795 532 l 1
 549 282 l 1
 645 110 l 1
EndSplineSet
EndChar

StartChar: uni0498
Encoding: 530 1176 423
Width: 537
Flags: W
HStem: -228 57<205 222 205 246> 308 117<255 372 276 334> 614 123<337.5 403>
VStem: 262 77<-128 -91> 424 123<185.5 244> 465 116<523.5 556.5>
LayerCount: 2
Fore
SplineSet
255 308 m 1xf8
 276 425 l 1
 372 425 l 2
 436 425 465 483 465 534 c 0
 465 579 432 614 374 614 c 0
 301 614 259 581 237 505 c 1
 119 505 l 1
 154 655 251 737 392 737 c 0
 513 737 581 673 581 566 c 0xf4
 581 481 547 408 501 369 c 1
 533 344 547 311 547 266 c 0
 547 71 442 -7 299 -18 c 1
 326 -40 339 -67 339 -100 c 0
 339 -179 280 -228 212 -228 c 0
 185 -228 166 -222 129 -204 c 1
 154 -155 l 1
 177 -165 198 -171 212 -171 c 0
 232 -171 262 -150 262 -106 c 0
 262 -76 247 -45 218 -16 c 1
 139 -6 86 34 65 98 c 0
 58 119 54 138 54 161 c 0
 54 178 56 197 60 221 c 1
 178 221 l 1
 169 142 203 104 285 104 c 0
 370 104 424 148 424 223 c 0
 424 265 404 308 334 308 c 2
 255 308 l 1xf8
EndSplineSet
EndChar

StartChar: uni0499
Encoding: 531 1177 424
Width: 457
Flags: W
HStem: -228 57<182 199 182 223> 223 94<274 281> 439 107<301 330>
VStem: 239 77<-128 -90> 339 120<144 179> 371 111<380.5 403.5>
LayerCount: 2
Fore
SplineSet
274 223 m 2xf8
 228 224 l 1
 244 316 l 1
 281 317 l 2
 354 319 371 362 371 390 c 0
 371 417 350 439 310 439 c 0
 260 439 237 422 219 370 c 1
 106 370 l 1
 128 444 149 478 190 507 c 0
 226 532 274 546 328 546 c 0
 401 546 449 521 470 470 c 0
 478 451 482 430 482 408 c 0xf4
 482 353 464 311 435 280 c 1
 450 247 l 2
 456 233 459 218 459 203 c 0
 459 85 378 4 268 -11 c 1
 301 -35 316 -64 316 -100 c 0
 316 -179 257 -228 189 -228 c 0
 162 -228 143 -222 106 -204 c 1
 131 -155 l 1
 154 -165 175 -171 189 -171 c 0
 209 -171 239 -150 239 -106 c 0
 239 -74 222 -41 189 -11 c 1
 148 -5 114 10 90 33 c 0
 64 58 53 84 53 131 c 0
 53 143 54 155 55 170 c 1
 173 170 l 1
 166 117 190 93 252 93 c 0
 304 93 339 118 339 166 c 0
 339 192 327 222 274 223 c 2xf8
EndSplineSet
EndChar

StartChar: uni049A
Encoding: 532 1178 425
Width: 593
Flags: MW
HStem: -20 20G<71 194 71 71 434 485 434 434> 698 20G<197 320 320 320 545 704 704 704>
LayerCount: 2
Fore
SplineSet
513 120 m 1
 613 120 l 1
 571 -120 l 1
 464 -120 l 1
 485 0 l 1
 434 0 l 1
 244 284 l 1
 194 0 l 1
 71 0 l 1
 197 718 l 1
 320 718 l 1
 275 460 l 1
 545 718 l 1
 704 718 l 1
 346 374 l 1
 513 120 l 1
EndSplineSet
EndChar

StartChar: uni049B
Encoding: 533 1179 426
Width: 457
Flags: MW
HStem: -20 20G<57 171 57 57 323 357 323 323> 512 20G<151 265 265 265 409 550 550 550>
VStem: 57 493
LayerCount: 2
Fore
SplineSet
400 110 m 1
 480 110 l 1
 440 -120 l 1
 336 -120 l 1
 357 0 l 1
 323 0 l 1
 208 208 l 1
 171 0 l 1
 57 0 l 1
 151 532 l 1
 265 532 l 1
 232 346 l 1
 409 532 l 1
 550 532 l 1
 304 282 l 1
 400 110 l 1
EndSplineSet
EndChar

StartChar: uni049C
Encoding: 534 1180 427
Width: 593
Flags: MW
HStem: 0 21G<71 194 71 71 434 434 434 592> 698 20G<197 320 320 320 545 704 704 704>
LayerCount: 2
Fore
SplineSet
194 0 m 1
 71 0 l 1
 197 718 l 1
 320 718 l 1
 275 460 l 1
 333 516 l 1
 359 662 l 1
 433 662 l 1
 422 601 l 1
 545 718 l 1
 704 718 l 1
 390 416 l 1
 375 330 l 1
 592 0 l 1
 434 0 l 1
 341 139 l 1
 331 80 l 1
 257 80 l 1
 283 226 l 1
 244 284 l 1
 194 0 l 1
EndSplineSet
EndChar

StartChar: uni049D
Encoding: 535 1181 428
Width: 457
Flags: MW
HStem: 0 21G<57 171 57 57 323 323 323 461> 512 20G<151 265 265 265 409 550 550 550>
VStem: 57 493
LayerCount: 2
Fore
SplineSet
171 0 m 1
 57 0 l 1
 151 532 l 1
 265 532 l 1
 232 346 l 1
 268 384 l 1
 289 502 l 1
 353 502 l 1
 347 467 l 1
 409 532 l 1
 550 532 l 1
 317 295 l 1
 312 268 l 1
 461 0 l 1
 323 0 l 1
 279 80 l 1
 270 30 l 1
 206 30 l 1
 230 168 l 1
 208 208 l 1
 171 0 l 1
EndSplineSet
EndChar

StartChar: uni049E
Encoding: 536 1182 429
Width: 593
Flags: MW
HStem: 0 21G<71 194 71 71 434 434 434 592> 587 82<107 174 92 188 311 385> 698 20G<197 320 320 320 545 704 704 704>
LayerCount: 2
Fore
SplineSet
194 0 m 1
 71 0 l 1
 174 587 l 1
 92 587 l 1
 107 669 l 1
 188 669 l 1
 197 718 l 1
 320 718 l 1
 311 669 l 1
 400 669 l 1
 385 587 l 1
 297 587 l 1
 275 460 l 1
 545 718 l 1
 704 718 l 1
 346 374 l 1
 592 0 l 1
 434 0 l 1
 244 284 l 1
 194 0 l 1
EndSplineSet
EndChar

StartChar: uni049F
Encoding: 537 1183 430
Width: 457
Flags: MW
HStem: 0 21G<57 171 57 57 323 323 323 461> 427 62<87 132 76 143 257 299> 512 20G<151 265 265 265 409 550 550 550>
VStem: 57 493
LayerCount: 2
Fore
SplineSet
171 0 m 1
 57 0 l 1
 132 427 l 1
 76 427 l 1
 87 489 l 1
 143 489 l 1
 151 532 l 1
 265 532 l 1
 257 489 l 1
 310 489 l 1
 299 427 l 1
 246 427 l 1
 232 346 l 1
 409 532 l 1
 550 532 l 1
 304 282 l 1
 461 0 l 1
 323 0 l 1
 208 208 l 1
 171 0 l 1
EndSplineSet
EndChar

StartChar: uni04A0
Encoding: 538 1184 431
Width: 694
Flags: MW
HStem: 0 21G<172 295 172 172 535 535 535 693> 591 127<79 276 57 421>
LayerCount: 2
Fore
SplineSet
295 0 m 1
 172 0 l 1
 276 591 l 1
 57 591 l 1
 79 718 l 1
 421 718 l 1
 376 460 l 1
 646 718 l 1
 805 718 l 1
 447 374 l 1
 693 0 l 1
 535 0 l 1
 345 284 l 1
 295 0 l 1
EndSplineSet
EndChar

StartChar: uni04A1
Encoding: 539 1185 432
Width: 535
Flags: MW
HStem: 0 21G<134 248 134 134 400 400 400 538> 432 100<100 210 82 342>
LayerCount: 2
Fore
SplineSet
248 0 m 1
 134 0 l 1
 210 432 l 1
 82 432 l 1
 100 532 l 1
 342 532 l 1
 309 346 l 1
 486 532 l 1
 627 532 l 1
 381 282 l 1
 538 0 l 1
 400 0 l 1
 285 208 l 1
 248 0 l 1
EndSplineSet
EndChar

StartChar: uni04A2
Encoding: 540 1186 433
Width: 592
Flags: MW
HStem: -20 20G<58 181 58 58 411 529 411 411> 322 124<259 467 237 489> 698 20G<183 306 306 306 536 659 659 659>
LayerCount: 2
Fore
SplineSet
555 120 m 1
 657 120 l 1
 615 -120 l 1
 508 -120 l 1
 529 0 l 1
 411 0 l 1
 467 322 l 1
 237 322 l 1
 181 0 l 1
 58 0 l 1
 183 718 l 1
 306 718 l 1
 259 446 l 1
 489 446 l 1
 536 718 l 1
 659 718 l 1
 555 120 l 1
EndSplineSet
EndChar

StartChar: uni04A3
Encoding: 541 1187 434
Width: 503
Flags: MW
HStem: -20 20G<53 167 53 53 334 438 334 334> 240 114<227 374 207 394> 512 20G<147 261 261 261 428 542 542 542>
LayerCount: 2
Fore
SplineSet
467 110 m 1
 561 110 l 1
 521 -120 l 1
 417 -120 l 1
 438 0 l 1
 334 0 l 1
 374 240 l 1
 207 240 l 1
 167 0 l 1
 53 0 l 1
 147 532 l 1
 261 532 l 1
 227 354 l 1
 394 354 l 1
 428 532 l 1
 542 532 l 1
 467 110 l 1
EndSplineSet
EndChar

StartChar: uni04A4
Encoding: 542 1188 435
Width: 830
Flags: MW
HStem: 0 21G<58 181 58 58 411 411 411 534> 322 124<259 467 237 489> 591 127<637 913 637 637>
LayerCount: 2
Fore
SplineSet
467 322 m 1
 237 322 l 1
 181 0 l 1
 58 0 l 1
 183 718 l 1
 306 718 l 1
 259 446 l 1
 489 446 l 1
 536 718 l 1
 935 718 l 1
 913 591 l 1
 637 591 l 1
 534 0 l 1
 411 0 l 1
 467 322 l 1
EndSplineSet
EndChar

StartChar: uni04A5
Encoding: 543 1189 436
Width: 709
Flags: MW
HStem: 0 21G<53 167 53 53 334 448 334 334> 240 114<227 374 207 394> 418 114<522 522 522 721>
LayerCount: 2
Fore
SplineSet
522 418 m 1
 448 0 l 1
 334 0 l 1
 374 240 l 1
 207 240 l 1
 167 0 l 1
 53 0 l 1
 147 532 l 1
 261 532 l 1
 227 354 l 1
 394 354 l 1
 428 532 l 1
 741 532 l 1
 721 418 l 1
 522 418 l 1
EndSplineSet
EndChar

StartChar: uni04A6
Encoding: 544 1190 437
Width: 920
Flags: MW
HStem: -138 79<644 675.5 644 711.5> 0 21G<57 180 57 57 410 535 410 410 743 743 866 866> 347 123<672 807> 595 123<285 515 285 285>
LayerCount: 2
Fore
SplineSet
609 429 m 1
 656 462 705 470 754 470 c 0
 860 470 920 424 920 332 c 0
 920 316 918 299 915 281 c 2
 866 0 l 2
 844 -126 779 -138 644 -138 c 1
 644 -59 l 1
 707 -59 737 -32 743 0 c 2
 792 277 l 2
 793 281 793 284 793 288 c 0
 793 323 757 347 694 347 c 0
 650 347 594 332 583 272 c 2
 535 0 l 1
 410 0 l 1
 515 595 l 1
 285 595 l 1
 180 0 l 1
 57 0 l 1
 183 718 l 1
 659 718 l 1
 609 429 l 1
EndSplineSet
EndChar

StartChar: uni04A7
Encoding: 545 1191 438
Width: 788
Flags: MW
HStem: -135 73<554 573 554 621.5> 0 21G<53 167 53 53 334 448 334 334> 216 118<551.5 674> 418 114<241 408 241 241>
LayerCount: 2
Fore
SplineSet
468 111 m 1
 448 0 l 1
 334 0 l 1
 408 418 l 1
 241 418 l 1
 167 0 l 1
 53 0 l 1
 147 532 l 1
 542 532 l 1
 492 249 l 1
 525 305 575 334 636 334 c 0
 712 334 759 283 759 201 c 0
 759 187 757 172 755 156 c 2
 728 -2 l 2
 712 -98 689 -135 554 -135 c 1
 554 -62 l 1
 592 -62 608 -36 614 -2 c 2
 632 111 l 2
 634 129 637 146 637 156 c 0
 637 194 615 216 577 216 c 0
 526 216 484 177 468 111 c 1
EndSplineSet
EndChar

StartChar: uni04A8
Encoding: 546 1192 439
Width: 592
Flags: MW
HStem: -19 130<291 330> 349 99<490 504.5> 607 130<391.5 438.5>
VStem: 88 128<216.5 308.5> 354 113<290 318.5 290 326> 512 115<311 335.5>
LayerCount: 2
Fore
SplineSet
327 111 m 0
 349 111 369 115 388 123 c 1
 365 168 354 219 354 280 c 0
 354 372 425 448 522 448 c 0
 577 448 627 399 627 348 c 0
 627 271 599 188 551 121 c 1
 565 107 580 93 597 78 c 1
 504 -22 l 1
 486 -6 470 11 456 27 c 1
 411 -3 357 -19 303 -19 c 0
 242 -19 188 2 152 39 c 0
 113 80 88 158 88 241 c 0
 88 376 132 521 199 609 c 0
 263 693 345 737 438 737 c 0
 563 737 647 650 647 519 c 0
 647 510 647 499 646 483 c 1
 522 483 l 1
 520 522 517 538 506 559 c 0
 491 589 459 607 418 607 c 0
 365 607 319 579 283 524 c 0
 244 464 216 359 216 266 c 0
 216 167 255 111 327 111 c 0
484 213 m 1
 502 248 512 289 512 333 c 0
 512 338 507 349 502 349 c 0
 478 349 467 328 467 309 c 0
 467 271 473 240 484 213 c 1
EndSplineSet
EndChar
